<?xml version="1.0" encoding="UTF-8"?>
<svg id="Layer_2" xmlns="http://www.w3.org/2000/svg" viewBox="0 0 1364.34 769.58">
  <defs>
    <style>
      .cls-1 {
        fill: #fff;
      }

      .cls-2 {
        fill: none;
        stroke: #000;
        stroke-miterlimit: 10;
        stroke-width: .39px;
      }
    </style>
  </defs>
  <g id="Layer_4">
    <g>
      <rect class="cls-1" width="1364.34" height="769.58"/>
      <path class="cls-2" d="M649.66,378.43s11.99-17.39,28.89-15.38c0,0,1.19-11.28,14.07-10.88,0,0-1.61-13.48,13.55-11.42,0,0-7.13-10.61,2.95-19.57,10.87-9.66,19.62,1.21,19.62,1.21,0,0,2.92-14.79,18.41-12.07,15.8,2.77,12.68,18.11,12.68,18.11,0,0,17.1-.78,13.88,14.95,0,0,14.09-5.19,20.93,11.31,0,0,14.09-5.63,22.94,10.46,0,0,21.73-6.44,27.77,13.28h-195.68Z"/>
      <path class="cls-2" d="M970.24,304.94s-11.99-17.39-28.89-15.38c0,0-1.19-11.28-14.07-10.88,0,0,1.61-13.48-13.55-11.42,0,0,7.13-10.61-2.95-19.57-10.87-9.66-19.62,1.21-19.62,1.21,0,0-2.92-14.79-18.41-12.07-15.8,2.77-12.68,18.11-12.68,18.11,0,0-17.1-.78-13.88,14.95,0,0-14.09-5.19-20.93,11.31,0,0-14.09-5.63-22.94,10.46,0,0-21.73-6.44-27.77,13.28h195.68Z"/>
    </g>
  </g>
</svg>