<?xml version="1.0" encoding="UTF-8"?>
<svg id="Layer_2" data-name="Layer 2" xmlns="http://www.w3.org/2000/svg" xmlns:xlink="http://www.w3.org/1999/xlink" viewBox="0 0 1924 995.04">
  <defs>
    <style>
      .cls-1 {
        fill: url(#linear-gradient);
      }

      .cls-1, .cls-2, .cls-3, .cls-4, .cls-5, .cls-6, .cls-7, .cls-8, .cls-9, .cls-10, .cls-11, .cls-12 {
        stroke-width: 0px;
      }

      .cls-2 {
        fill: url(#linear-gradient-6);
      }

      .cls-3 {
        fill: url(#linear-gradient-11);
      }

      .cls-4 {
        fill: url(#linear-gradient-5);
      }

      .cls-5 {
        fill: url(#linear-gradient-2);
      }

      .cls-6 {
        fill: url(#linear-gradient-7);
      }

      .cls-7 {
        fill: url(#linear-gradient-3);
      }

      .cls-8 {
        fill: url(#linear-gradient-9);
      }

      .cls-9 {
        fill: url(#radial-gradient);
      }

      .cls-10 {
        fill: url(#linear-gradient-8);
      }

      .cls-11 {
        fill: url(#linear-gradient-10);
      }

      .cls-12 {
        fill: url(#linear-gradient-4);
      }
    </style>
    <radialGradient id="radial-gradient" cx="962.8" cy="791.65" fx="962.8" fy="791.65" r="765.32" gradientUnits="userSpaceOnUse">
      <stop offset="0" stop-color="#fb5373"/>
      <stop offset=".16" stop-color="#fb5a68"/>
      <stop offset=".42" stop-color="#fc6d4d"/>
      <stop offset=".76" stop-color="#fd8b22"/>
      <stop offset="1" stop-color="#ffa400"/>
    </radialGradient>
    <linearGradient id="linear-gradient" x1="397.23" y1="238.23" x2="343.13" y2="23.8" gradientUnits="userSpaceOnUse">
      <stop offset="0" stop-color="#000"/>
      <stop offset=".12" stop-color="#010818"/>
      <stop offset=".26" stop-color="#03112f"/>
      <stop offset=".36" stop-color="#041438"/>
      <stop offset=".54" stop-color="#091e4a"/>
      <stop offset=".91" stop-color="#173b7b"/>
      <stop offset="1" stop-color="#1b4389"/>
    </linearGradient>
    <linearGradient id="linear-gradient-2" x1="562" y1="210.38" x2="659.3" y2="210.38" gradientUnits="userSpaceOnUse">
      <stop offset="0" stop-color="#000"/>
      <stop offset=".12" stop-color="#010818"/>
      <stop offset=".26" stop-color="#03112f"/>
      <stop offset=".36" stop-color="#041438"/>
      <stop offset=".47" stop-color="#0c1d4a"/>
      <stop offset=".69" stop-color="#21367c"/>
      <stop offset="1" stop-color="#425cc7"/>
    </linearGradient>
    <linearGradient id="linear-gradient-3" x1="642" y1="357.83" x2="834" y2="357.83" xlink:href="#linear-gradient-2"/>
    <linearGradient id="linear-gradient-4" x1="323.78" y1="218.73" x2="236.86" y2="72.29" xlink:href="#linear-gradient"/>
    <linearGradient id="linear-gradient-5" x1="-51.68" y1="206.57" x2="429.34" y2="787.67" gradientUnits="userSpaceOnUse">
      <stop offset="0" stop-color="#425cc7"/>
      <stop offset=".04" stop-color="#3850b0"/>
      <stop offset=".15" stop-color="#21367c"/>
      <stop offset=".24" stop-color="#112357"/>
      <stop offset=".31" stop-color="#071840"/>
      <stop offset=".36" stop-color="#041438"/>
      <stop offset=".54" stop-color="#091e4a"/>
      <stop offset=".91" stop-color="#173b7b"/>
      <stop offset="1" stop-color="#1b4389"/>
    </linearGradient>
    <linearGradient id="linear-gradient-6" x1="577.61" y1="453.11" x2="365.78" y2="208.9" xlink:href="#linear-gradient-2"/>
    <linearGradient id="linear-gradient-7" x1="879" y1="343.66" x2="979" y2="343.66" xlink:href="#linear-gradient-2"/>
    <linearGradient id="linear-gradient-8" x1="1366.6" y1="620.41" x2="1011.88" y2="242.15" xlink:href="#linear-gradient-2"/>
    <linearGradient id="linear-gradient-9" x1="1340.08" y1="399.53" x2="1268.09" y2="322.77" gradientUnits="userSpaceOnUse">
      <stop offset="0" stop-color="#000"/>
      <stop offset=".03" stop-color="#010818"/>
      <stop offset=".06" stop-color="#03112f"/>
      <stop offset=".07" stop-color="#041438"/>
      <stop offset=".2" stop-color="#0c1d4a"/>
      <stop offset=".47" stop-color="#21367c"/>
      <stop offset=".82" stop-color="#425cc7"/>
    </linearGradient>
    <linearGradient id="linear-gradient-10" x1="1575.84" y1="507.2" x2="1331.85" y2="243.61" xlink:href="#linear-gradient-2"/>
    <linearGradient id="linear-gradient-11" x1="1890.7" y1="598.51" x2="1550.03" y2="230.49" gradientUnits="userSpaceOnUse">
      <stop offset="0" stop-color="#000"/>
      <stop offset=".19" stop-color="#010818"/>
      <stop offset=".41" stop-color="#03112f"/>
      <stop offset=".55" stop-color="#041438"/>
      <stop offset=".63" stop-color="#0c1d4a"/>
      <stop offset=".79" stop-color="#21367c"/>
      <stop offset="1" stop-color="#425cc7"/>
    </linearGradient>
  </defs>
  <g id="Back_mountains_Orange" data-name="Back mountains Orange">
    <g>
      <path class="cls-9" d="m1924,302.22c0-1.39-1.25.59-59-2.93-84-5.12-213-70.98-247-13.17-12,19.76-31,42.44-44,46.1s-68-19.76-68-19.76c0,0-84-42.44-110-19.76-7.49,6.54-37,41.71-82,32.93-12.6-2.46-34,30.73-47,30.73s-39-30.73-39-30.73c0,0-93-91.47-103-90.74s-121,107.57-134,108.3-61-38.78-73-42.44c-12-3.66-39,13.17-39,13.17,0,0-263-174.16-273-178.55-10-4.39-29-5.12-37-2.2S407,0,407,0c0,0-64,54.15-73,56.35-9,2.2-35,20.49-43,21.95s-10-8.05-25-8.05-58,42.44-58,42.44l-50-27.81L2,199.04v520.26h-.4v275.74l1921.02-2.81-.77-250.72,2.15-439.3Z"/>
      <path class="cls-1" d="m407,0s-38,85.62-30,103.91,54,101.71,54,101.71l-80-75.37-21-31.47-23-5.12-20-15.37L407,0Z"/>
      <polygon class="cls-5" points="562 230.5 588 174.89 569 133.18 627 184.4 633 237.82 659.3 218.06 642 287.58 562 230.5"/>
      <polygon class="cls-7" points="642 287.58 834 428.08 767 351.97 642 287.58"/>
      <path class="cls-12" d="m266,70.25s-13,13.9-11,19.03,30,29.27,30,29.27l20-20.49-11,56.35,16,32.93-102-74.64s43-43.17,58-42.44Z"/>
      <polygon class="cls-4" points="154 84.88 148 171.96 204 214.36 188 242.94 296.06 218.06 116.83 411.98 216.4 428.08 327 337.34 358.11 411.98 330 445.64 191 547.35 303.81 621.56 435 535.65 445 584.67 667 677.61 0 677.61 0 196.84 154 84.88"/>
      <polygon class="cls-2" points="300.06 218.06 674 479.3 497 318.31 431 205.62 410 263.43 300.06 218.06"/>
      <path class="cls-6" d="m914.26,300.23s-16.26,12.96-6.26,18.81,66,37.32,66,37.32l5,30.73-100-73.18s21-13.9,35.26-13.69Z"/>
      <path class="cls-10" d="m1125,234.89l-37,62.93,15,67.32,95,13.9,33,131.72,153,70.98-196-68.05-202.28-171.55s134.28-109.44,139.28-107.25Z"/>
      <path class="cls-8" d="m1254.44,350.88l74.53,54.54-31.97-45.39,13.84-34.34s-3.84-2.25-31.84,24.09c-5,4.39-24.56,1.1-24.56,1.1Z"/>
      <path class="cls-11" d="m1414.7,286.17s-27.7,24.93,13.3,53.05c41,28.12,28,33.97,42,39.09,14,5.12,67,2.2,67,2.2l20,36.59-11,43.17-215.4-133.29s25.67-.12,58.28-31.77c.33.24,10.53-9.71,25.83-9.04Z"/>
      <path class="cls-3" d="m1659.77,263.01s-31.77,23.11-10.77,37.75c21,14.64,49,3.66,49,3.66l-13,55.61,95.32,100.25,96.68,46.83-175-74.64-137.63-100.46s29.39-6.38,55.51-48.82c8.24-16.1,32.65-20.61,39.89-20.18Z"/>
    </g>
  </g>
</svg>