<?xml version="1.0" encoding="UTF-8"?>
<svg id="Layer_2" data-name="Layer 2" xmlns="http://www.w3.org/2000/svg" xmlns:xlink="http://www.w3.org/1999/xlink" viewBox="0 0 1368.73 765.34">
  <defs>
    <style>
      .cls-1 {
        fill: url(#radial-gradient);
      }

      .cls-2 {
        fill: #fff;
        stroke: #000;
        stroke-miterlimit: 10;
        stroke-width: .7px;
      }
    </style>
    <radialGradient id="radial-gradient" cx="1046.11" cy="199.05" fx="1046.11" fy="199.05" r="224.19" gradientUnits="userSpaceOnUse">
      <stop offset="0" stop-color="#758dd8"/>
      <stop offset="1" stop-color="#fff"/>
    </radialGradient>
  </defs>
  <g id="Layer_4" data-name="Layer 4">
    <polygon class="cls-1" points="1366.97 765.34 0 765.34 1.76 0 1368.73 0 1366.97 765.34"/>
    <path class="cls-2" d="M898.58,285.87s11.62-16.85,28.01-14.9c0,0,1.15-10.94,13.63-10.55,0,0-1.56-13.07,13.14-11.06,0,0-6.91-10.29,2.86-18.97,10.53-9.36,19.02,1.17,19.02,1.17,0,0,2.83-14.34,17.85-11.7,15.31,2.68,12.29,17.55,12.29,17.55,0,0,16.58-.76,13.46,14.49,0,0,13.65-5.03,20.28,10.96,0,0,13.65-5.46,22.23,10.14,0,0,21.06-6.24,26.91,12.87h-189.67Z"/>
    <path class="cls-2" d="M1209.32,214.65s-11.62-16.85-28.01-14.9c0,0-1.15-10.94-13.63-10.55,0,0,1.56-13.07-13.14-11.06,0,0,6.91-10.29-2.86-18.97-10.53-9.36-19.02,1.17-19.02,1.17,0,0-2.83-14.34-17.85-11.7s-12.29,17.55-12.29,17.55c0,0-16.58-.76-13.46,14.49,0,0-13.65-5.03-20.28,10.96,0,0-13.65-5.46-22.23,10.14,0,0-21.06-6.24-26.91,12.87h189.67Z"/>
  </g>
</svg>