<?xml version="1.0" encoding="UTF-8"?>
<svg id="Layer_2" xmlns="http://www.w3.org/2000/svg" viewBox="0 0 1937.32 1085.55">
  <defs>
    <style>
      .cls-1 {
        fill: #425cc7;
      }
    </style>
  </defs>
  <g id="Trees_1">
    <g>
      <g>
        <path class="cls-1" d="M149.15,535.51c.07.06.11.1.11.1,0,0-.04-.04-.11-.1Z"/>
        <path class="cls-1" d="M548.6,601.1c-.07.04-.11.07-.11.07,0,0,.04-.03.11-.07Z"/>
        <path class="cls-1" d="M815.56,653.28c.07.03.11.05.11.05,0,0-.04-.02-.11-.05Z"/>
        <path class="cls-1" d="M1800.39,566.44c-.07.06-.11.1-.11.1,0,0,.04-.04.11-.1Z"/>
        <path class="cls-1" d="M1400.94,632.03c.07.04.11.07.11.07,0,0-.04-.03-.11-.07Z"/>
        <path class="cls-1" d="M1133.98,684.21c-.07.03-.11.05-.11.05,0,0,.04-.02.11-.05Z"/>
        <path class="cls-1" d="M1920.07,499.59l8.62-19.59-12.93-8.22h-7.85s.09-13.39,3.54-13.39,9.48,1.03,7.76-5.15c-1.72-6.18.55-17.51-4.04-16.48-4.59,1.03-11.89,0-11.89,0,0,0-3.85-7.21,0-8.24l3.85-1.03s9.7-4.12.11-13.39c-1.7-1.64-3.18-3.12-4.45-4.43-.81-.84-1.54-1.59-2.18-2.27,2.45.95,5.07-.29,5.31-4.17.35-5.61-.51-10.76-5.69-11.79-5.17-1.03-3.45,2.06-5.17-1.03-1.72-3.09-6.03-9.34,0-9.82,6.03-.48,12.99-1.21,8.22-4.97l-4.77-3.75s10.35,1.03,6.03-8.24-7.76-16.48-9.48-18.54c-1.72-2.06-3.45-2.06,2.59-6.18,6.03-4.12,7.76-7.21,4.31-9.27-3.45-2.06-4.49-20.69-10-11.37-5.51,9.31,4.32,9.15-2.93,13.43-17.97,10.62,1.18,5.67-3.99,9.79-5.17,4.12-2.91,1.54-3.77,5.66-.86,4.12,0,18.45,0,18.45-6.03,9.36-12.01,6.57-9.02,10.02,2.99,3.46,2.13.37,6.44,6.55s6.9,0,4.31,6.18c-2.59,6.18-3.17,5.15-5.47,7.21-2.29,2.06-9.19,1.03-3.16,5.15,6.03,4.12,11.21,3.09,10.35,7.21-.86,4.12.84,1.03-3.89,6.18-4.73,5.15-7.99,5.06-9.38,8.19-1.39,3.14-10.52-3.04-2.51,6.23,8.02,9.27,14.05,13.39,10.6,15.45s-7.76,4.12-8.62,6.18c-.86,2.06-3.45,2.06,1.72,6.18,5.17,4.12,9.48,1.03,5.17,4.12-4.31,3.09-13.45,9.22-8.88,6.16,4.57-3.07,7.03-5.17,9.24,0,2.22,5.17-2.09,9.29-4.68,10.32-2.59,1.03-3.58,3.11-7.82,4.65-4.25,1.53,4.08,9.77,8.54,12.86,4.46,3.09,14.8-8.24,7.91,6.18-6.9,14.42-6.03,15.45-12.07,17.51-6.03,2.06-12.07,2.06-12.07,2.06,0,0-8.62,7.14,0,8.72,8.62,1.58,20.69,7.76,20.69,7.76l-14.66,5.15h-19.52s-2.04-4.12-2.9-9.27c-.86-5.15,0-5.96,0-9.16s-.86-2.17,3.45-4.23,8.62-1.03,6.9-7.21c-1.72-6.18,8.62-5.15-5.17-9.27-13.79-4.12-16.38-13.39-13.79-13.39s-8.62,0,5.17-1.03c13.79-1.03,16.38,0,16.38-5.15s0-11.33-1.72-11.33-10.29-5.17-10.29-5.17l-3.5-6.16s-2.59-4.12,2.59-5.15c5.17-1.03,0,2.06,5.17-1.03,5.17-3.09,6.03-9.27,6.03-9.27,0,0-3.17-9.27-6.33-8.24-3.16,1.03-4.48,1.03-7.26,0-2.79-1.03-8.1,0-8.1,0,0,0,3.93-7.21,6.78-8.24,2.84-1.03,6.29-9.27,2.84-10.3-3.45-1.03-9.62-4.12-9.62-4.12,0,0-1-4.16,0-8.26,1-4.1.05-7.19-3.79-10.28-3.83-3.09-6.27-5.15-4.62,0,1.65,5.15-.98,10.45-.52,15.01l.45,4.56s-1.87,1.64-.5,6.49c1.37,4.84,11.56-2.94,3.88,7.13-7.69,10.07-13.04-.23-11.23,8.01,1.82,8.24,4.65,4.26,7.54,9.85,2.89,5.6,3.76,6.63,1.17,10.75-2.59,4.12-7.76-2.06-5.17,6.18,2.59,8.24,3.45,4.12,2.59,8.24-.86,4.12-8.65,4.62-6.48,9.01,2.17,4.38,3.03,4.38,4.76,7.47,1.72,3.09,4.81,1.03,1.54,6.18-3.26,5.15-12.68,3.55-6.68,10.01,6,6.46,12.9,7.49,7.72,10.58-5.17,3.09-4.31-4.12-5.17,3.09-.86,7.21,2.59,6.18.86,11.33-1.72,5.15-7.29,2.87-5.37,8.13,1.92,5.26,1.92.11,1.92,5.26s3.26,3.09.77,8.24c-2.36,4.87-13.23,14.33-14.42,15.35.47-.38,2.53-1.69,6.49.1,4.57,2.06,6.29-4.12,7.15,4.12.86,8.24,5.17,2.06.86,8.24s-4.31,6.18-8.62,6.18-10.44-8.24-9.96,0c.48,8.24,1.34,11.33,6.51,14.42,5.17,3.09,15.52-5.15,8.62,9.27-6.9,14.42-7.04,18.56-15.16,21.13-8.12,2.56-12.43,3.59-13.29.5-.86-3.09-3.45-1.03-5.17-9.27-1.72-8.24-9.48-17.09,0-18.85,9.48-1.75,10.35,5.46,9.48-1.75-.86-7.21-4.31-10.3-7.76-12.36-3.45-2.06-6.35-4.03-6.35-4.03,0,0-6.58.94,5.49-2.15,12.07-3.09,25-3.09,16.38-8.24-8.62-5.15-12.07-6.18-17.24-7.21-5.17-1.03-3.45,5.15-5.17-1.03-1.72-6.18-4.77-15.45,4.51-14.42,9.28,1.03,13.59-9.27,13.59-9.27,0,0,1.72-4.12-6.03-5.15-7.76-1.03-13.96-3.02-13.96-3.02,0,0-16.21-6.44-9.32-7.89,6.9-1.45,12.93.61,13.79-2.48.86-3.09-3.45-11.33-3.45-11.33l-6.9-5.15,11.21-3.09s-.05-16.13-6.49-14.25c-6.44,1.89-9.87-11.04-9.87-11.04,0,0-1.74-6.05,1.71-7.89,3.45-1.84,11.21-3.9,6.03-11.11l-5.17-7.21s-10.35-10.3-6.9-10.3,13.79-1.03,6.03-5.15c-7.76-4.12-10.35-23.69-11.21-5.15s-1.72,10.3-.86,18.54c.86,8.24,4.46,8.98-.36,11.7-4.82,2.72-10.56,8.17-5.53,12.14,5.03,3.97,10.2.88,7.61,9.12-2.59,8.24-.17-1.57-4.39,5.91-4.23,7.48-12.14,6.23-5.17,11.49s9.56,1.14,9.56,7.32-4.31,9.27-6.03,12.36c-1.72,3.09-12.58,2.48-6.29,7.93,6.29,5.46,4.56-.72,6.29,5.46,1.72,6.18-5.17,6.18-4.31,8.24.86,2.06,3.91,8.24,6.7,9.27,2.79,1.03.2,6.18-7.56,8.24-7.76,2.06-28.45-7.21-15.52,3.09s12.07,11.33,17.24,12.36c5.17,1.03,13.79-3.09,6.9,4.12-6.9,7.21-9.48,9.27-12.93,12.36-3.45,3.09-13.79,1.03-9.48,6.18,4.31,5.15,5.17,4.12,10.35,8.24,5.17,4.12-2.18,10.78-1.52,11.57.66.79-21.44-4.25-14.7,2.39,6.74,6.64-.16,2.52,6.74,6.64,6.9,4.12,13.81-.31,9.92,6.03-3.89,6.33-4.75,3.24-8.2,8.39-1.42,2.11-4.66,1.48-7.44.82.17-.58-.37-1.45-2.04-2.88-6.03-5.15-8.94-7.17-12.66-8.22-3.72-1.05-6.31-.02-7.17-4.14-.86-4.12-4.31-6.68,0-9.01,4.31-2.32,10.35-2.32,9.48-5.41-.86-3.09-2.59-10.3-8.62-12.36-6.03-2.06-13.79-4.12-12.93-6.18.86-2.06,2.59-10.3,7.76-10.3s16.97,1.73,8.05-3.77c-8.91-5.5-10.64-7.56-10.64-7.56,0,0-4.31-3.09,0-5.15s7.76-6.18,7.76-10.3,6.03-13.39,0-16.48c-6.03-3.09-8.62-5.15-8.62-5.15,0,0,5.17-4.12,7.76-4.12s14.66,0,1.72-5.15c-12.93-5.15-16.38-8.24-16.38-8.24,0,0,12.07-9.27,13.79-9.27h1.72c-3.45,0,4.31-7.21,2.59-9.27s.86-8.24-6.03-8.24-6.9,1.4-12.07-.33c-5.17-1.73,3.45-11,3.45-11l3.45-6.18s3.45-2.06,1.72-5.15c-1.72-3.09-2.59-6.18-6.9-7.21-4.31-1.03-7.76-3.09-7.76-3.09,0,0,.75-5.33,3.39-5.24,2.64.09,6.09-5.06,6.09-5.06,0,0-5.28-4.76-6.09-5.98-.81-1.23-5.98,0-3.39-4.73,2.59-4.73,3.45-5.76,5.17-9.88,1.72-4.12,8.2-8.24,1.08-12.36-7.12-4.12-9.7-7.21-9.7-7.21,6.03-7.21,10.35-14.42,10.35-14.42l-3.5-2.94-2.53-3.24s4.2-9.73,2.53-15.16c-1.67-5.43-3.39-18.82-3.39-18.82l-3.45-9.58v-9.47l-5.17,20.07v6.22s3.45-.04,1.72,4.08c-1.72,4.12-1.72,1.03-3.45,4.12-1.72,3.09-5.5,1.03-1.89,6.18,3.61,5.15,3.61-3.09,3.61,5.15s3.45,7.21,0,8.24c-3.45,1.03.1-.72-5.12,2.21-5.22,2.94-6.76,3.97-6.85,6.03-.09,2.06,4.22,4.12,5.94,5.15,1.72,1.03,2.59,1.03,2.59,3.09s2.59-2.06,0,2.06c-2.59,4.12-7.58,3.22-8.53,4.19-.95.96-5.17-3.16-2.2,4.05,2.97,7.21,5.56,7.21,8.14,10.3,2.59,3.09,10.09-3.09,4.18,4.12-5.91,7.21-21.42,12.36-22.29,14.42-.86,2.06-7.76,3.88,0,7.6,7.76,3.73,6.03,1.67,11.21,4.76,5.17,3.09,8.62,1.03,6.9,5.15s-.86,4.12-7.76,5.15c-6.9,1.03-14.66-2.06-9.48,2.06s4.31,3.09,7.76,7.21c3.45,4.12,6.03,3.09,4.31,7.21-1.72,4.12-6.03,3.42-9.05,6.86-3.02,3.44-10.78,3.44-3.02,8.59,7.76,5.15,18.97-7.21,12.07,6.18-6.9,13.39-13.33,10.8-16.58,14.16-3.25,3.35-12.73-2.83-5.83,5.41,6.9,8.24,11.21,7.39,13.36,11.42,2.16,4.03,8.19,7.12,6.47,10.21-1.72,3.09-6.03,5.15-10.35,6.18-4.31,1.03-6.03-5.15-8.62-1.03-2.59,4.12-12.67,3.24-3.32,8.83,9.35,5.59,5.57,5.59,11.77,7.65,6.2,2.06,25.17-4.12,19.13,4.12-6.03,8.24-4.31,12.36-10.35,10.3-6.03-2.06-9.48-4.12-11.21-3.09-1.72,1.03-6.9,1.03-3.45,7.21,3.45,6.18,3.45,8.24,6.03,8.24s1.72-3.51,3.88,1.34,7.33,5.83,0,8.94c-7.33,3.11-10.78-3.07-13.36,4.14-2.59,7.21-2.59,10.3,7.76,13.39,10.35,3.09,13.79-4.12,13.79,4.12s-12.07,9.27-12.07,9.27c0,0-14.43-7.08-15.84-1.99-1.41,5.08-5.72,4.05-2.27,8.17,3.45,4.12-.86,3.09,6.03,5.15s13.79-5.39,15.95,2.45c2.16,7.85,8.19,8.88,2.16,14.03-6.03,5.15-6.9,4.12-13.79,5.15-6.9,1.03-11.23.57-11.65,3.89-.42,3.32-2.14,8.47,3.03,8.47s7.14-5.15,9.17,0c2.04,5.15,5.48,10.3,1.17,13.39-4.31,3.09-6.9,3.09-12.07,3.09s-33.03-15.73-33.03-15.73c0,0-4.58-6.41,0-13.88,4.58-7.47,11.47-6.44,11.47-6.44,0,0,3.45,1.03,2.59-4.12-.86-5.15-8.62-13.39-10.35-13.39s-4.6,3.57-5.75-1.82c-1.15-5.39-4.02-7.41,0-10.52,4.02-3.11,4.02-2.08,6.61-3.11,2.59-1.03,7.76,1.03,5.17-5.15-2.59-6.18-.86-10.3-6.03-13.39-5.17-3.09-5.3-5.19-7.82-5.17-2.52.02-7.7,1.05-5.97-2.04,1.72-3.09.86-5.15,6.03-6.18,5.17-1.03,10.35-6.18,9.48-7.21-.86-1.03-3.45-6.18-5.17-8.24s-7.76-4.12-6.03-6.18c1.72-2.06,6.03-11.33,6.03-11.33,0,0,9.48,4.12,2.59-2.06-6.9-6.18-11.21-8.24-11.21-8.24,0,0-5.86-4.62-2.07-9.01,3.79-4.38,10.69-12.62,6.38-16.74s-7.66-10.61-7.66-10.61c0,0-6.14-13.08-4.41-2.78,1.72,10.3,7.76,4.12,2.59,13.39-5.17,9.27-11.21,6.18-12.07,10.3s-5.17,5.85,0,10.65,6.9,2.74,6.9,8.92-3.5,6.18-6.49,10.3c-2.99,4.12-6.27,2.87-2.91,8.13,3.36,5.26,6.81,4.23,6.81,7.32s2.59,3.09-5.17,5.15c-7.73,2.05-16.3.02-12.12,6.1-3.33-.93-7.58-2.46-12.02-9.03-6.9-10.21,4.31-.79,12.07-4.71s0-3.93-3.02-6.55c-3.02-2.62-7.33-2.09-9.05-5.23-1.72-3.14.86-2.36,4.31-5.5,3.45-3.14,2.59-2.36,7.76-5.5,5.17-3.14-2.59-.79-9.48-1.57-6.9-.79-6.03-.79-7.76-3.93-1.72-3.14,1.72-1.57,6.9-3.93,5.17-2.36,3.45-.79,11.21-3.63,7.76-2.84.86-4.23,0-5.8-.86-1.57-16.38-5.5-22.29-10.99-5.91-5.5,1.6-.79,4.18-3.14s5.17-2.36,8.14-7.85c2.97-5.5-1.25-2.36-2.2-3.09s-5.94-.05-8.53-3.19c-2.59-3.14,0,0,0-1.57s.86-1.57,2.59-2.36,6.03-2.36,5.94-3.93c-.09-1.57-1.63-2.36-6.85-4.59-5.22-2.24-1.68-.9-5.12-1.69-3.45-.78,0,0,0-6.28s0,0,3.61-3.93c3.61-3.93-.17-2.36-1.89-4.71-1.72-2.36-1.72,0-3.45-3.14-1.72-3.14,1.72-3.11,1.72-3.11v-4.74l-5.17-15.3v7.22l-3.45,7.3s-1.72,10.21-3.39,14.35c-1.67,4.14,2.53,11.56,2.53,11.56l-2.53,2.47-3.5,2.24s4.31,5.5,10.35,10.99c0,0-2.59,2.36-9.7,5.5-7.12,3.14-.64,6.28,1.08,9.42,1.72,3.14,2.59,3.93,5.17,7.53,2.59,3.61-2.59,2.67-3.39,3.61-.81.94-6.09,4.56-6.09,4.56,0,0,3.45,3.93,6.09,3.86,2.64-.07,3.39,3.99,3.39,3.99,0,0-3.45,1.57-7.76,2.36-4.31.79-5.17,3.14-6.9,5.5-1.72,2.36,1.72,3.93,1.72,3.93l3.45,4.71s8.62,7.07,3.45,8.39c-5.17,1.32-5.17.25-12.07.25s-4.31,4.71-6.03,6.28c-1.72,1.57,6.03,7.07,2.59,7.07h1.72c1.72,0,13.79,7.07,13.79,7.07,0,0-3.45,2.36-16.38,6.28s-.86,3.93,1.72,3.93,7.76,3.14,7.76,3.14c0,0-2.59,1.57-8.62,3.93-6.03,2.36,0,9.42,0,12.56s3.45,6.28,7.76,7.85c4.31,1.57,0,3.93,0,3.93,0,0-1.72,1.57-10.64,5.76-8.91,4.19,2.88,2.87,8.05,2.87s6.9,6.28,7.76,7.85c.86,1.57-6.9,3.14-12.93,4.71-6.03,1.57-7.76,7.07-8.62,9.42-.86,2.36,5.17,2.36,9.48,4.13,4.31,1.77.86,3.73,0,6.87-.86,3.14-3.45,2.36-7.17,3.16-3.72.8-6.62,2.34-12.66,6.26-1.67,1.09-2.21,1.75-2.04,2.2-2.78.51-6.03.99-7.44-.63-3.45-3.93-4.31-1.57-8.2-6.4-3.89-4.83,3.03-1.45,9.92-4.59,6.9-3.14,0,0,6.74-5.06,6.74-5.06-15.36-1.22-14.7-1.82.66-.6-6.69-5.68-1.52-8.82,5.17-3.14,6.03-2.36,10.35-6.28s-6.03-2.36-9.48-4.71c-3.45-2.36-6.03-3.93-12.93-9.42-6.9-5.5,1.72-2.36,6.9-3.14,5.17-.79,4.31-1.57,17.24-9.42,12.93-7.85-7.76-.79-15.52-2.36-7.76-1.57-10.35-5.5-7.56-6.28,2.79-.79,5.83-5.5,6.7-7.07.86-1.57-6.03-1.57-4.31-6.28,1.72-4.71,0,0,6.29-4.16,6.29-4.16-4.56-3.69-6.29-6.05-1.72-2.36-6.03-4.71-6.03-9.42s2.59-1.57,9.56-5.58c6.97-4.01-.94-3.06-5.17-8.76-4.23-5.7-1.81,1.78-4.39-4.51-2.59-6.28,2.59-3.93,7.61-6.95,5.03-3.03-.72-7.18-5.53-9.25-4.82-2.07-1.22-2.64-.36-8.92.86-6.28,0,0-.86-14.13-.86-14.13-3.45.79-11.21,3.93-7.76,3.14,2.59,3.93,6.03,3.93s-6.9,7.85-6.9,7.85l-5.17,5.5c-5.17,5.5,2.59,7.07,6.03,8.47,3.45,1.4,1.71,6.01,1.71,6.01,0,0-3.43,9.86-9.87,8.42-6.44-1.44-6.49,10.86-6.49,10.86l11.21,2.36-6.9,3.93s-4.31,6.28-3.45,8.64c.86,2.36,6.9.79,13.79,1.89,6.9,1.1-9.32,6.01-9.32,6.01,0,0-6.2,1.52-13.96,2.31-7.76.79-6.03,3.93-6.03,3.93,0,0,4.31,7.85,13.59,7.07s6.24,6.28,4.51,10.99c-1.72,4.71,0,0-5.17.79s-8.62,1.57-17.24,5.5c-8.62,3.93,4.31,3.93,16.38,6.28,12.07,2.36,5.49,1.64,5.49,1.64,0,0-2.9,1.5-6.35,3.07-3.45,1.57-6.9,3.93-7.76,9.42-.86,5.5,0,0,9.48,1.34,9.48,1.34,1.72,8.09,0,14.37-1.72,6.28-4.31,4.71-5.17,7.07-.86,2.36-5.17,1.57-13.29-.38-8.12-1.95-8.26-5.11-15.16-16.1-6.9-10.99,3.45-4.71,8.62-7.07,5.17-2.36,6.03-4.71,6.51-10.99.48-6.28-5.65,0-9.96,0s-4.31,0-8.62-4.71c-4.31-4.71,0,0,.86-6.28.86-6.28,2.59-1.57,7.15-3.14,3.96-1.36,6.02-.36,6.49-.07-1.18-.78-12.06-7.99-14.42-11.7-2.49-3.93.77-2.36.77-6.28s0,0,1.92-4.01c1.92-4.01-3.65-2.27-5.37-6.2-1.72-3.93,1.72-3.14.86-8.64-.86-5.5,0,0-5.17-2.36-5.17-2.36,1.72-3.14,7.72-8.07,6-4.93-3.41-3.71-6.68-7.63-3.27-3.93-.18-2.36,1.54-4.71,1.72-2.36,2.59-2.36,4.76-5.7,2.17-3.34-5.62-3.73-6.48-6.87-.86-3.14,0,0,2.59-6.28,2.59-6.28-2.59-1.57-5.17-4.71-2.59-3.14-1.72-3.93,1.17-8.19,2.89-4.27,5.73-1.23,7.54-7.51s-3.54,1.57-11.23-6.11c-7.69-7.68,2.51-1.74,3.88-5.44,1.37-3.69-.5-4.94-.5-4.94l.45-3.47c.45-3.47-2.18-7.52-.52-11.44,1.65-3.93-.79-2.36-4.62,0-3.83,2.36-4.79,4.71-3.79,7.83,1,3.12,0,6.3,0,6.3,0,0-6.17,2.36-9.62,3.14-3.45.79,0,7.07,2.84,7.85,2.84.79,1.47,5.5-1.32,6.28-2.79.79-4.11.79-7.26,0s-6.33,6.28-6.33,6.28c0,0,.86,4.71,6.03,7.07,5.17,2.36,0,0,5.17.79,5.17.79,2.59,3.93,2.59,3.93l-3.5,4.69s-3.99,1.39-5.72,1.39-16.72,11.18-6.3,11.19,2.59,3.14,16.38,3.93c5.11,0-9.64,1.99-11.66,3.61-3.49,2.8,16.83,4.24,3.04,7.38-13.79,3.14-3.45,2.36-5.17,7.07-1.72,4.71,2.59,3.93,6.9,5.5,4.31,1.57,3.45.79,3.45,3.22s-10.07,3.42-10.93,7.34c-.86,3.93,8.04,6.71,8.04,6.71h-19.52l-14.66-3.93s12.07-4.71,20.69-5.91c8.62-1.2,0-6.65,0-6.65,0,0-6.03,0-12.07-1.57-6.03-1.57-5.17-2.36-12.07-13.35-6.9-10.99,3.45-2.36,7.91-4.71,4.46-2.36,12.78-8.64,8.54-9.81-4.25-1.17-5.24-2.76-7.82-3.54-2.59-.79-6.9-3.93-4.68-7.87,2.22-3.94,2.02,2.16,10.07-2.4,4.46-2.53-5.39.06-9.7-2.3-4.31-2.36,0,0,5.17-3.14,5.17-3.14,2.59-3.14,1.72-4.71-.86-1.57-5.17-3.14-8.62-4.71-3.45-1.57,2.59-4.71,10.6-11.78,8.02-7.07-1.12-2.36-2.51-4.75-1.39-2.39-4.65-2.32-9.38-6.25-4.73-3.93-3.03-1.57-3.89-4.71-.86-3.14,4.31-2.36,10.35-5.5,6.03-3.14-.86-2.36-3.16-3.93-2.29-1.57-2.88-.79-5.47-5.5-2.59-4.71,0,0,4.31-4.71,4.31-4.71,3.45-2.36,6.44-4.99,2.99-2.63-2.99-.51-9.02-7.64,0,0,.86-10.92,0-14.07-.86-3.14-4.31-2.36-9.48-5.5-5.17-3.14,0,0,1.72-6.28,1.72-6.28,2.59-3.14-2.93-10.24-5.51-7.1-6.56,7.1-10,8.67-3.45,1.57-1.72,3.93,4.31,7.07,6.03,3.14,4.31,3.14,2.59,4.71-1.72,1.57-5.17,7.07-9.48,14.13-4.31,7.07,6.03,6.28,6.03,6.28l-4.77,2.86c-4.77,2.86,2.18,3.42,8.22,3.79,6.03.37,1.72,5.13,0,7.48-1.72,2.36,0,0-5.17.79-5.17.79-6.03,4.71-5.69,8.99.24,2.95,2.86,3.9,5.31,3.18-.65.52-1.37,1.1-2.18,1.73-1.27.99-2.75,2.12-4.45,3.37-9.59,7.07.11,10.21.11,10.21l3.85.79c3.85.79,0,6.28,0,6.28,0,0-7.3.79-11.89,0s-2.31,7.85-4.04,12.56c-1.72,4.71,4.31,3.93,7.76,3.93s3.54,10.21,3.54,10.21h-7.85l-12.93,6.26,8.62,14.93-15.52,12.24,5.17,5.15,5.17,7.21-10.35,4.12-.09,6.76,5.26,9.72-5.45,7.47,3.72,9.01-10.35,8.24.04,1.5-6.94-6.8,8.62-11.29-12.93-4.73h-7.85s.09-7.71,3.54-7.71,9.48.59,7.76-2.97c-1.72-3.56.55-10.09-4.04-9.49-4.59.59-11.89,0-11.89,0,0,0-3.85-4.15,0-4.75l3.85-.59s9.7-2.37.11-7.71c-1.7-.95-3.18-1.8-4.45-2.55-.82-.48-1.54-.92-2.18-1.31,2.45.55,5.07-.17,5.31-2.4.35-3.23-.51-6.2-5.69-6.79-5.17-.59-3.45,1.19-5.17-.59-1.72-1.78-6.03-5.38,0-5.66,6.03-.28,12.99-.7,8.22-2.86l-4.77-2.16s10.35.59,6.03-4.75c-14.85-5.1-.14-9.06-1.87-10.24-1.72-1.19-11.07-1.62-5.03-4,6.03-2.37,7.76-4.15,4.31-5.34-3.45-1.19-4.49-11.92-10-6.55-5.51,5.37,1.32,5-2.93,7.74-6.8,4.39,2.36,3.48-2.82,5.85-5.17,2.37.41,5.87-6.35,8.07-2.4.78,1.41,5.6,1.41,5.6-6.03,5.39-12.01,3.78-9.02,5.77,2.99,1.99,2.13.21,6.44,3.77s6.9,0,4.31,3.56c-2.59,3.56-3.17,2.97-5.47,4.15-2.29,1.19-9.19.59-3.16,2.97,6.03,2.37,11.21,1.78,10.35,4.15-.86,2.37.84.59-3.89,3.56-4.73,2.97-7.99,2.91-9.38,4.72-1.39,1.81-10.52-1.75-2.51,3.59,8.02,5.34,14.05,7.71,10.6,8.9-3.45,1.19-7.76,2.37-8.62,3.56-.86,1.19-3.45,1.19,1.72,3.56,5.17,2.37,9.48.59,5.17,2.37-4.31,1.78-7.09,2.57-8.88,3.55-4.3,2.35,3.83,2.05,9.24,0,3.47-1.32-2.09,5.35-4.68,5.95-2.59.59-3.58,1.79-7.82,2.68-4.25.88,4.08,5.63,8.54,7.41,4.46,1.78,14.8-4.75,7.91,3.56-6.9,8.31-6.03,8.9-12.07,10.09-6.03,1.19-12.07,1.19-12.07,1.19,0,0-8.62,4.12,0,5.02,8.62.91,20.69,4.47,20.69,4.47l-14.66,2.97h-19.52s-2.04-2.37-2.9-5.34c-.86-2.97,0-3.43,0-5.28s-.86-1.25,3.45-2.44c4.31-1.19,8.62-.59,6.9-4.15-1.72-3.56,8.62-2.97-5.17-5.34-13.79-2.37-16.38-7.71-13.79-7.71s-8.62,0,5.17-.59c13.79-.59,16.38,0,16.38-2.97s0-6.53-1.72-6.53-10.29-2.98-10.29-2.98l-3.5-3.55s-2.59-2.37,2.59-2.97c5.17-.59,0,1.19,5.17-.59,5.17-1.78,6.03-5.34,6.03-5.34,0,0-3.17-5.34-6.33-4.75-3.16.59-4.48.59-7.26,0-2.79-.59-8.1,0-8.1,0,0,0,3.93-4.15,6.78-4.75,2.84-.59,6.29-5.34,2.84-5.93-3.45-.59-9.62-2.37-9.62-2.37,0,0-1-2.4,0-4.76,1-2.36.05-4.14-3.79-5.92-3.83-1.78-6.27-2.97-4.62,0,1.65,2.97-.98,6.02-.52,8.65l.45,2.63s-1.87.95-.5,3.74c1.37,2.79,11.56-1.69,3.88,4.11-7.69,5.8-13.04-.13-11.23,4.62,1.82,4.75,4.65,2.45,7.54,5.68,2.89,3.22,3.75,3.82,1.17,6.19-2.59,2.37-7.76-1.19-5.17,3.56,2.59,4.75,3.45,2.37,2.59,4.75-.86,2.37-8.65,2.66-6.48,5.19,2.17,2.52,3.03,2.52,4.76,4.3,1.72,1.78,4.81.59,1.54,3.56-3.27,2.97-12.68,2.05-6.68,5.77,6,3.72,12.9,4.32,7.72,6.1-5.17,1.78-4.31-2.37-5.17,1.78-.86,4.15,2.59,3.56.86,6.53-1.72,2.97-7.29,1.65-5.37,4.68,1.92,3.03,1.92.06,1.92,3.03s3.27,1.78.77,4.75c-2.36,2.8-13.24,8.26-14.42,8.85.47-.22-2.51,2.4,6.49.05,4.57-1.19,6.29-2.37,7.15,2.37.86,4.75,5.17,1.19.86,4.75q-4.31,3.56-8.62,3.56c-4.31,0-10.44-4.75-9.96,0,.48,4.75,1.34,6.53,6.51,8.31,5.17,1.78,15.52-2.97,8.62,5.34-6.9,8.31-7.04,10.69-15.16,12.17-8.12,1.48-12.43,2.07-13.29.29-.86-1.78-3.45-.59-5.17-5.34-1.72-4.75-9.48-9.85,0-10.86s10.35,3.14,9.48-1.01c-.86-4.15-4.31-5.93-7.76-7.12-3.45-1.19-6.35-2.32-6.35-2.32,0,0-6.58.54,5.49-1.24,12.07-1.78,25-1.78,16.38-4.75-8.62-2.97-12.07-3.56-17.24-4.15-5.17-.59-3.45,2.97-5.17-.59-1.72-3.56-4.77-8.9,4.51-8.31,9.28.59,13.59-5.34,13.59-5.34,0,0,1.72-2.37-6.03-2.97-7.76-.59-13.96-1.74-13.96-1.74,0,0-16.21-3.71-9.32-4.54,6.9-.83,12.93.35,13.79-1.43.86-1.78-3.45-6.53-3.45-6.53l-6.9-2.97,11.21-1.78s-.05-9.3-6.49-8.21c-6.44,1.09-9.87-6.36-9.87-6.36,0,0-1.74-3.48,1.71-4.54,3.45-1.06,11.21-2.25,6.03-6.4l-5.17-4.15s-10.35-5.93-6.9-5.93,13.79-.59,6.03-2.97c-7.76-2.37-10.35-13.65-11.21-2.97-.86,10.68-1.72,5.93-.86,10.68.86,4.75,4.46,5.18-.36,6.74-4.82,1.57-10.56,4.71-5.53,6.99,5.03,2.29,10.2.51,7.61,5.25-2.59,4.75-.17-.9-4.39,3.41-4.23,4.31-12.14,3.59-5.17,6.62,6.97,3.03,9.56.66,9.56,4.22s-4.31,5.34-6.03,7.12c-1.72,1.78-12.58,1.43-6.29,4.57,6.29,3.14,4.56-.42,6.29,3.14,1.72,3.56-5.17,3.56-4.31,4.75.86,1.19,3.91,4.75,6.7,5.34,2.79.59.2,3.56-7.56,4.75-7.76,1.19-28.45-4.15-15.52,1.78,12.93,5.93,12.07,6.53,17.24,7.12,5.17.59,13.79-1.78,6.9,2.37-6.9,4.15-9.48,5.34-12.93,7.12-3.45,1.78-13.79.59-9.48,3.56s5.17,2.37,10.35,4.75c5.17,2.37-2.18,6.21-1.52,6.67.66.45-21.44-2.45-14.7,1.38,6.74,3.82-.16,1.45,6.74,3.82,6.9,2.37,13.81-.18,9.92,3.47-3.89,3.65-4.75,1.87-8.2,4.84-1.42,1.22-4.66.86-7.44.47.17-.34-.37-.84-2.04-1.66-6.03-2.97-8.94-4.13-12.66-4.73-3.72-.61-6.31-.01-7.17-2.39-.86-2.37-4.31-3.85,0-5.19,4.31-1.34,10.35-1.34,9.48-3.12-.86-1.78-2.59-5.93-8.62-7.12-6.03-1.19-13.79-2.37-12.93-3.56.86-1.19,2.59-5.93,7.76-5.93s16.97,1,8.05-2.17c-8.91-3.17-10.64-4.36-10.64-4.36,0,0-4.31-1.78,0-2.97s7.76-3.56,7.76-5.93,6.03-7.71,0-9.49c-6.03-1.78-8.62-2.97-8.62-2.97,0,0,5.17-2.37,7.76-2.37s14.66,0,1.72-2.97c-12.93-2.97-16.38-4.75-16.38-4.75,0,0,12.07-5.34,13.79-5.34h1.72c-3.45,0,4.31-4.15,2.59-5.34-1.72-1.19.86-4.75-6.03-4.75s-6.9.81-12.07-.19c-5.17-1,3.45-6.34,3.45-6.34l3.45-3.56s3.45-1.19,1.72-2.97c-1.72-1.78-2.59-3.56-6.9-4.15-4.31-.59-7.76-1.78-7.76-1.78,0,0,.75-3.07,3.39-3.02,2.64.05,6.09-2.92,6.09-2.92,0,0-5.28-2.74-6.09-3.45-.81-.71-5.98,0-3.39-2.73,2.59-2.73,3.45-3.32,5.17-5.69,1.72-2.37,8.2-4.75,1.08-7.12-7.12-2.37-9.7-4.15-9.7-4.15,6.03-4.15,10.35-8.31,10.35-8.31l-3.5-1.69-2.53-1.87s4.2-5.61,2.53-8.74c-1.67-3.13-3.39-10.84-3.39-10.84l-3.45-5.52v-5.45l-5.17,11.56v3.59s3.45-.03,1.72,2.35c-1.72,2.37-1.72.59-3.45,2.37-1.72,1.78-5.5.59-1.89,3.56,3.61,2.97,3.61-1.78,3.61,2.97s3.45,4.15,0,4.75c-3.45.59.1-.42-5.12,1.28-5.22,1.69-6.76,2.28-6.85,3.47-.09,1.19,4.22,2.37,5.94,2.97,1.72.59,2.59.59,2.59,1.78s2.59-1.19,0,1.19c-2.59,2.37-7.58,1.86-8.53,2.41-.95.56-5.17-1.82-2.2,2.34,2.97,4.15,5.56,4.15,8.14,5.93,2.59,1.78,10.09-1.78,4.18,2.37-5.91,4.15-21.42,7.12-22.29,8.31-.86,1.19-7.76,2.23,0,4.38,7.76,2.15,6.03.96,11.21,2.74,5.17,1.78,8.62.59,6.9,2.97-1.72,2.37-.86,2.37-7.76,2.97-2.8.24-5.74.09-7.9-.01-.26-.9-5.91.59-8.28-.81-3.25-1.93-9.68-.44-16.58-8.16s4.31-.59,12.07-3.56c7.76-2.97,0-2.97-3.02-4.95-3.02-1.98-7.33-1.58-9.05-3.95s.86-1.78,4.31-4.15c3.45-2.37,2.59-1.78,7.76-4.15,5.17-2.37-2.59-.59-9.48-1.19-6.9-.59-6.03-.59-7.76-2.97-1.72-2.37,1.72-1.19,6.9-2.97,5.17-1.78,3.45-.59,11.21-2.74,7.76-2.15.86-3.19,0-4.38-.86-1.19-16.38-4.15-22.29-8.31-5.91-4.15,1.6-.59,4.18-2.37,2.59-1.78,5.17-1.78,8.14-5.93,2.97-4.15-1.25-1.78-2.2-2.34-.95-.56-5.94-.04-8.53-2.41-2.59-2.37,0,0,0-1.19s.86-1.19,2.59-1.78c1.72-.59,6.03-1.78,5.94-2.97-.09-1.19-1.63-1.78-6.85-3.47-5.22-1.69-1.68-.68-5.12-1.28-3.45-.59,0,0,0-4.75s0,0,3.61-2.97c3.61-2.97-.16-1.78-1.89-3.56-1.72-1.78-1.72,0-3.45-2.37-1.72-2.37,1.72-2.35,1.72-2.35v-3.59l-5.17-11.56v5.45l-3.45,5.52s-1.72,7.71-3.39,10.84c-1.67,3.13,2.53,8.74,2.53,8.74l-2.53,1.87-3.5,1.69s4.31,4.15,10.35,8.31c0,0-2.59,1.78-9.7,4.15-7.12,2.37-.64,4.75,1.08,7.12,1.72,2.37,2.59,2.97,5.17,5.69,2.59,2.73-2.59,2.02-3.39,2.73-.81.71-6.09,3.45-6.09,3.45,0,0,3.45,2.97,6.09,2.92,2.64-.05,3.39,3.02,3.39,3.02,0,0-3.45,1.19-7.76,1.78-4.31.59-5.17,2.37-6.9,4.15s1.72,2.97,1.72,2.97l3.45,3.56s8.62,5.34,3.45,6.34c-5.17,1-5.17.19-12.07.19s-4.31,3.56-6.03,4.75c-1.72,1.19,6.03,5.34,2.59,5.34h1.72c1.72,0,13.79,5.34,13.79,5.34,0,0-3.45,1.78-16.38,4.75s-.86,2.97,1.72,2.97,7.76,2.37,7.76,2.37c0,0-2.59,1.19-8.62,2.97-6.03,1.78,0,7.12,0,9.49s3.45,4.75,7.76,5.93c4.31,1.19,0,2.97,0,2.97,0,0-1.72,1.19-10.64,4.36s2.88,2.17,8.05,2.17,6.9,4.75,7.76,5.93c.86,1.19-6.9,2.37-12.93,3.56-6.03,1.19-7.76,5.34-8.62,7.12-.86,1.78,5.17,1.78,9.48,3.12,4.31,1.34.86,2.82,0,5.19-.86,2.37-3.45,1.78-7.17,2.39-3.72.61-6.62,1.77-12.66,4.73-1.67.82-2.21,1.32-2.04,1.66-2.78.38-6.03.75-7.44-.47-3.45-2.97-4.31-1.19-8.2-4.84-3.89-3.65,3.03-1.1,9.92-3.47,6.9-2.37,0,0,6.74-3.83,6.74-3.83-15.36-.92-14.7-1.38.66-.45-6.7-4.29-1.52-6.67,5.17-2.37,6.03-1.78,10.35-4.75s-6.03-1.78-9.48-3.56-6.03-2.97-12.93-7.12c-6.9-4.15,1.72-1.78,6.9-2.37,5.17-.59,4.31-1.19,17.24-7.12,12.93-5.93-7.76-.59-15.52-1.78-7.76-1.19-10.35-4.15-7.56-4.75,2.79-.59,5.83-4.15,6.7-5.34.86-1.19-6.03-1.19-4.31-4.75,1.72-3.56,0,0,6.29-3.14,6.29-3.14-4.56-2.79-6.29-4.57-1.72-1.78-6.03-3.56-6.03-7.12s2.59-1.19,9.56-4.22c6.97-3.03-.94-2.31-5.17-6.62-4.23-4.31-1.81,1.34-4.39-3.41-2.59-4.75,2.59-2.97,7.61-5.25,5.03-2.29-.72-5.43-5.53-6.99-4.82-1.57-1.22-1.99-.36-6.74.86-4.75,0,0-.86-10.68-.86-10.68-3.45.59-11.21,2.97-7.76,2.37,2.59,2.97,6.03,2.97s-6.9,5.93-6.9,5.93l-5.17,4.15c-5.17,4.15,2.59,5.34,6.03,6.4,3.45,1.06,1.71,4.54,1.71,4.54,0,0-3.43,7.45-9.87,6.36-6.44-1.09-6.49,8.21-6.49,8.21l11.21,1.78-6.9,2.97s-4.31,4.75-3.45,6.53c.86,1.78,6.9.59,13.79,1.43,6.9.83-9.32,4.54-9.32,4.54,0,0-6.2,1.15-13.96,1.74-7.76.59-6.03,2.97-6.03,2.97,0,0,4.31,5.93,13.59,5.34,9.28-.59,6.24,4.75,4.51,8.31-1.72,3.56,0,0-5.17.59-5.17.59-8.62,1.19-17.24,4.15-8.62,2.97,4.31,2.97,16.38,4.75,12.07,1.78,5.49,1.24,5.49,1.24,0,0-2.9,1.14-6.35,2.32-3.45,1.19-6.9,2.97-7.76,7.12-.86,4.15,0,0,9.48,1.01,9.48,1.01,1.72,6.11,0,10.86-1.72,4.75-4.31,3.56-5.17,5.34-.86,1.78-5.17,1.19-13.29-.29-8.12-1.48-8.26-3.86-15.16-12.17-6.9-8.31,3.45-3.56,8.62-5.34s6.03-3.56,6.51-8.31c.48-4.75-5.65,0-9.96,0s-4.31,0-8.62-3.56c-4.31-3.56,0,0,.86-4.75s2.59-1.19,7.15-2.37c3.96-1.03,6.02-.27,6.49-.05-1.18-.59-12.06-6.04-14.42-8.85-2.49-2.97.77-1.78.77-4.75s0,0,1.92-3.03c1.92-3.03-3.65-1.72-5.37-4.68-1.72-2.97,1.72-2.37.86-6.53-.86-4.15,0,0-5.17-1.78-5.17-1.78,1.72-2.37,7.72-6.1,6-3.72-3.41-2.8-6.68-5.77-3.27-2.97-.18-1.78,1.54-3.56,1.72-1.78,2.59-1.78,4.76-4.3,2.17-2.52-5.62-2.82-6.48-5.19-.86-2.37,0,0,2.59-4.75,2.59-4.75-2.59-1.19-5.17-3.56s-1.72-2.97,1.17-6.19c2.89-3.22,5.73-.93,7.54-5.68,1.82-4.75-3.54,1.19-11.23-4.62-7.69-5.8,2.51-1.32,3.88-4.11,1.37-2.79-.5-3.74-.5-3.74l.45-2.63c.45-2.63-2.18-5.68-.52-8.65,1.65-2.97-.79-1.78-4.62,0-3.83,1.78-4.79,3.56-3.79,5.92,1,2.36,0,4.76,0,4.76,0,0-6.17,1.78-9.62,2.37s0,5.34,2.84,5.93c2.84.59,6.78,4.75,6.78,4.75,0,0-5.31-.59-8.1,0-2.79.59-4.11.59-7.26,0-3.15-.59-6.33,4.75-6.33,4.75,0,0,.86,3.56,6.03,5.34,5.17,1.78,0,0,5.17.59,5.17.59,2.59,2.97,2.59,2.97l-3.5,3.55s-8.57,2.98-10.29,2.98-1.72,3.56-1.72,6.53,2.59,2.37,16.38,2.97c13.79.59,2.59.59,5.17.59s0,5.34-13.79,7.71c-13.79,2.37-3.45,1.78-5.17,5.34-1.72,3.56,2.59,2.97,6.9,4.15,4.31,1.19,3.45.59,3.45,2.44s.86,2.31,0,5.28c-.86,2.97-2.9,5.34-2.9,5.34h-19.52l-14.66-2.97s12.07-3.56,20.69-4.47c8.62-.91,0-5.02,0-5.02,0,0-6.03,0-12.07-1.19-6.03-1.19-5.17-1.78-12.07-10.09-6.9-8.31,3.45-1.78,7.91-3.56,4.46-1.78,12.78-6.53,8.54-7.41-4.25-.88-5.24-2.08-7.82-2.68-2.59-.59-8.38-5.65-4.68-5.95,2.95-.24,5.53,3.2,9.24,0,.47-.41-4.57-1.77-8.88-3.55-4.31-1.78,0,0,5.17-2.37,5.17-2.37,2.59-2.37,1.72-3.56-.86-1.19-5.17-2.37-8.62-3.56s2.59-3.56,10.6-8.9c8.02-5.34-1.12-1.78-2.51-3.59-1.39-1.81-4.65-1.75-9.38-4.72-4.73-2.97-3.03-1.19-3.89-3.56-.86-2.37,4.31-1.78,10.35-4.15,6.03-2.37-.86-1.78-3.15-2.97-2.29-1.19-2.88-.59-5.47-4.15-2.59-3.56,0,0,4.31-3.56,4.31-3.56,3.45-1.78,6.44-3.77,2.99-1.99-2.99-.38-9.02-5.77,0,0,.86-8.26,0-10.63-.86-2.37-4.31-1.78-9.48-4.15-5.17-2.37,0,0,1.72-4.75,1.72-4.75,2.59-2.37-2.93-7.74-5.51-5.37-6.56,5.37-10,6.55-3.45,1.19-1.72,2.97,4.31,5.34,6.03,2.37,4.31,2.37,2.59,3.56-1.72,1.19-5.17,5.34-9.48,10.68-4.31,5.34,6.03,4.75,6.03,4.75l-4.77,2.16c-4.77,2.16,2.18,2.58,8.22,2.86,6.03.28,1.72,3.88,0,5.66-1.72,1.78,0,0-5.17.59-5.17.59-6.03,3.56-5.69,6.79.24,2.23,2.86,2.95,5.31,2.4-.65.39-1.37.83-2.18,1.31-1.27.75-2.75,1.6-4.45,2.55-9.59,5.34.11,7.71.11,7.71l3.85.59c3.85.59,0,4.75,0,4.75,0,0-7.3.59-11.89,0-4.59-.59-2.31,5.93-4.04,9.49-1.72,3.56,4.31,2.97,7.76,2.97s3.54,7.71,3.54,7.71h-7.85l-12.93,4.73,8.62,11.29-6.94,6.8.04-1.5-10.35-8.24,3.72-9.01-5.45-7.47,5.26-9.72-.09-6.76-10.35-4.12,5.17-7.21,5.17-5.15-15.52-12.24,8.62-14.93-12.93-6.26h-7.85s.09-10.21,3.54-10.21,9.48.79,7.76-3.93c-1.72-4.71.55-13.35-4.04-12.56-4.59.79-11.89,0-11.89,0,0,0-3.85-5.5,0-6.28l3.85-.79s9.7-3.14.11-10.21c-1.7-1.25-3.18-2.38-4.45-3.37-.82-.64-1.54-1.21-2.18-1.73,2.45.73,5.07-.22,5.31-3.18.35-4.28-.51-8.2-5.69-8.99-5.17-.79-3.45,1.57-5.17-.79-1.72-2.36-3.18-6.96,0-7.48,6.03-.37,12.99-.92,8.22-3.79l-4.77-2.86s10.35.79,6.03-6.28c-14.85-5.31-3.04-13.48-4.77-15.05-1.72-1.57-8.16-.65-2.13-3.79s7.76-5.5,4.31-7.07c-3.45-1.57-4.49-15.77-10-8.67-5.51,7.1-1.29,3.94-2.93,10.24-1.77,6.81-4.17,6.74.14,7.19-.55,6.03-10.34,10.39-11.2,13.53s3.3,5.12,3.3,5.12c-6.03,7.13-12.01,5.01-9.02,7.64,2.99,2.63,2.13.28,6.44,4.99,4.31,4.71,6.9,0,4.31,4.71-2.59,4.71-3.17,3.93-5.47,5.5-2.29,1.57-9.19.79-3.16,3.93,6.03,3.14,11.21,2.36,10.35,5.5s.84.79-3.89,4.71c-4.73,3.93-7.99,3.85-9.38,6.25-1.39,2.39-10.52-2.32-2.51,4.75,8.02,7.07,14.05,10.21,10.6,11.78-3.45,1.57-7.76,3.14-8.62,4.71-.86,1.57-3.45,1.57,1.72,4.71s9.48.79,5.17,3.14c-4.31,2.36-6.34,2.72-8.88,4.69-4.05,3.15,7.78.96,9.24,0,3.78-2.49-2.09,7.08-4.68,7.87-2.59.79-3.58,2.37-7.82,3.54-4.25,1.17,4.08,7.45,8.54,9.81,4.46,2.36,14.8-6.28,7.91,4.71-6.9,10.99-6.03,11.78-12.07,13.35-6.03,1.57-12.07,1.57-12.07,1.57,0,0-8.62,5.45,0,6.65,8.62,1.2,20.69,5.91,20.69,5.91l-14.66,3.93h-19.52s7-1.63,6.14-5.56c-.86-3.93-9.04-6.05-9.04-8.49s-.86-1.65,3.45-3.22c4.31-1.57,8.62-.79,6.9-5.5-1.72-4.71,8.62-3.93-5.17-7.07-13.79-3.14-7.2-8.95-1.75-9.62,13.71-1.69,9.51-1.37,9.51-5.3s0-8.64-1.72-8.64-10.29-3.94-10.29-3.94l-3.5-4.69s-1.94-2.27,3.23-3.06c5.17-.79,7.15-2.5,8.9-3.48,4.96-2.78,2.3-5.9,2.3-5.9,0,0-3.81-6.4-6.97-5.62-3.15.79-4.48.79-7.26,0-2.79-.79-4.09-1.05-4.09-1.05,0,0-.08-4.44,2.77-5.23,2.84-.79,6.29-7.07,2.84-7.85s-9.62-3.14-9.62-3.14c0,0-1-3.17,0-6.3,1-3.12.05-5.48-3.79-7.83-3.83-2.36-6.27-3.93-4.62,0,1.65,3.93-.98,7.97-.52,11.44l.45,3.47s-1.87,1.25-.5,4.94c1.37,3.69,4.83.75,3.88,5.44-2.15,10.65-13.04-.17-11.23,6.11s4.65,3.24,7.54,7.51c2.89,4.27,3.76,5.05,1.17,8.19-2.59,3.14-7.76-1.57-5.17,4.71,2.59,6.28,3.45,3.14,2.59,6.28-.86,3.14-8.65,3.52-6.48,6.87,2.17,3.34,3.03,3.34,4.76,5.7,1.72,2.36,4.81.79,1.54,4.71-3.27,3.93-12.68,2.71-6.68,7.63,6,4.93,12.9,5.71,7.72,8.07-5.17,2.36-4.31-3.14-5.17,2.36-.86,5.5,2.59,4.71.86,8.64-1.72,3.93-7.29,2.19-5.37,6.2,1.92,4.01,1.92.08,1.92,4.01s3.27,2.36.77,6.28c-2.36,3.71-13.24,10.93-14.42,11.7.47-.29,2.53-1.29,6.49.07,4.57,1.57,6.29-3.14,7.15,3.14.86,6.28,5.17,1.57.86,6.28q-4.31,4.71-8.62,4.71c-4.31,0-10.44-6.28-9.96,0,.48,6.28,1.34,8.64,6.51,10.99,5.17,2.36,15.52-3.93,8.62,7.07-6.9,10.99-7.04,14.15-15.16,16.1-8.12,1.95-12.43,2.74-13.29.38-.86-2.36-3.45-.79-5.17-7.07-1.72-6.28-9.48-13.03,0-14.37,9.48-1.34,10.35,4.16,9.48-1.34-.86-5.5-4.31-7.85-7.76-9.42-3.45-1.57-6.35-3.07-6.35-3.07,0,0-6.58.72,5.49-1.64,12.07-2.36,25-2.36,16.38-6.28-8.62-3.93-12.07-4.71-17.24-5.5s-3.45,3.93-5.17-.79c-1.72-4.71-4.77-11.78,4.51-10.99,9.28.79,13.59-7.07,13.59-7.07,0,0,1.72-3.14-6.03-3.93-7.76-.79-13.96-2.31-13.96-2.31,0,0-16.21-4.91-9.32-6.01,6.9-1.1,12.93.47,13.79-1.89.86-2.36-3.45-8.64-3.45-8.64l-6.9-3.93,11.21-2.36s-.05-12.3-6.49-10.86c-6.44,1.44-9.87-8.42-9.87-8.42,0,0-1.74-4.61,1.71-6.01,3.45-1.4,11.21-2.97,6.03-8.47l-5.17-5.5s-10.35-7.85-6.9-7.85,13.79-.79,6.03-3.93c-7.76-3.14-10.35-18.06-11.21-3.93-.86,14.13-1.72,7.85-.86,14.13.86,6.28,4.46,6.85-.36,8.92-4.82,2.07-10.56,6.23-5.53,9.25,5.03,3.03,10.2.67,7.61,6.95-2.59,6.28-.17-1.2-4.39,4.51-4.23,5.7-12.14,4.75-5.17,8.76,6.97,4.01,9.56.87,9.56,5.58s-4.31,7.07-6.03,9.42c-1.72,2.36-12.58,1.89-6.29,6.05,6.29,4.16,4.56-.55,6.29,4.16,1.72,4.71-5.17,4.71-4.31,6.28.86,1.57,3.91,6.28,6.7,7.07,2.79.79.2,4.71-7.56,6.28-7.76,1.57-28.45-5.5-15.52,2.36,12.93,7.85,12.07,8.64,17.24,9.42,5.17.79,13.79-2.36,6.9,3.14-6.9,5.5-9.48,7.07-12.93,9.42-3.45,2.36-13.79.79-9.48,4.71,4.31,3.93,5.17,3.14,10.35,6.28,5.17,3.14-2.18,8.22-1.52,8.82.66.6-21.44-3.24-14.7,1.82,6.74,5.06-.16,1.92,6.74,5.06,6.9,3.14,13.81-.23,9.92,4.59-3.89,4.83-4.75,2.47-8.2,6.4-1.42,1.61-4.66,1.13-7.44.62.17-.44-.37-1.11-2.04-2.2-6.03-3.93-8.94-5.46-12.66-6.26-3.72-.8-6.31-.02-7.17-3.16-.86-3.14-4.31-5.09,0-6.87,4.31-1.77,10.35-1.77,9.48-4.13-.86-2.36-2.59-7.85-8.62-9.42-6.03-1.57-13.79-3.14-12.93-4.71.86-1.57,2.59-7.85,7.76-7.85s16.97,1.32,8.05-2.87c-8.91-4.19-10.64-5.76-10.64-5.76,0,0-4.31-2.36,0-3.93,4.31-1.57,7.76-4.71,7.76-7.85s6.03-10.21,0-12.56c-6.03-2.36-8.62-3.93-8.62-3.93,0,0,5.17-3.14,7.76-3.14s14.66,0,1.72-3.93c-12.93-3.93-16.38-6.28-16.38-6.28,0,0,12.07-7.07,13.79-7.07h1.72c-3.45,0,4.31-5.5,2.59-7.07-1.72-1.57.86-6.28-6.03-6.28s-6.9,1.07-12.07-.25c-5.17-1.32,3.45-8.39,3.45-8.39l3.45-4.71s3.45-1.57,1.72-3.93c-1.72-2.36-2.59-4.71-6.9-5.5-4.31-.79-7.76-2.36-7.76-2.36,0,0,.75-4.06,3.39-3.99,2.64.07,6.09-3.86,6.09-3.86,0,0-5.28-3.62-6.09-4.56-.81-.94-5.98,0-3.39-3.61,2.59-3.61,3.45-4.39,5.17-7.53,1.72-3.14,8.2-6.28,1.08-9.42-7.12-3.14-9.7-5.5-9.7-5.5,6.03-5.5,10.35-10.99,10.35-10.99l-3.5-2.24-2.53-2.47s4.2-7.42,2.53-11.56c-1.67-4.14-3.39-14.35-3.39-14.35l-3.45-7.3v-7.22l-5.17,15.3v4.74s3.45-.03,1.72,3.11c-1.72,3.14-1.72.79-3.45,3.14-1.72,2.36-5.5.79-1.89,4.71,3.61,3.93,3.61-2.36,3.61,3.93s3.45,5.5,0,6.28c-3.45.79.1-.55-5.12,1.69-5.22,2.24-6.76,3.02-6.85,4.59-.09,1.57,4.22,3.14,5.94,3.93s2.59.79,2.59,2.36,2.59-1.57,0,1.57c-2.59,3.14-7.58,2.46-8.53,3.19s-5.17-2.41-2.2,3.09c2.97,5.5,5.56,5.5,8.14,7.85s10.09-2.36,4.18,3.14c-5.91,5.5-21.42,9.42-22.29,10.99-.86,1.57-7.76,2.96,0,5.8,7.76,2.84,6.03,1.27,11.21,3.62,5.17,2.36,8.62.79,6.9,3.93-1.72,3.14-.86,3.14-7.76,3.93-6.9.79-14.66-1.57-9.48,1.57,5.17,3.14,4.31,2.36,7.76,5.5s6.03,2.36,4.31,5.5c-1.72,3.14-6.03,2.61-9.05,5.23-3.02,2.62-10.78,2.62-3.02,6.55,7.76,3.93,18.97-5.5,12.07,4.71-4.44,6.57-8.69,8.09-12.02,9.03,4.18-6.08-4.39-4.05-12.12-6.1-7.76-2.06-5.17-2.06-5.17-5.15s3.45-2.06,6.81-7.32.08-4.01-2.91-8.13c-2.99-4.12-6.49-4.12-6.49-10.3s1.72-4.12,6.9-8.92c5.17-4.8.86-6.53,0-10.65s-6.9-1.03-12.07-10.3c-5.17-9.27.86-3.09,2.59-13.39,1.72-10.3-4.41,2.78-4.41,2.78,0,0-3.35,6.49-7.66,10.61s2.59,12.36,6.38,16.74-2.07,9.01-2.07,9.01c0,0-4.31,2.06-11.21,8.24-6.9,6.18,2.59,2.06,2.59,2.06,0,0,4.31,9.27,6.03,11.33,1.72,2.06-4.31,4.12-6.03,6.18s-4.31,7.21-5.17,8.24c-.86,1.03,4.31,6.18,9.48,7.21,5.17,1.03,4.31,3.09,6.03,6.18,1.72,3.09-3.45,2.06-5.97,2.04-2.52-.02-2.65,2.08-7.82,5.17-5.17,3.09-3.45,7.21-6.03,13.39-2.59,6.18,2.59,4.12,5.17,5.15,2.59,1.03,2.59,0,6.61,3.11,4.02,3.11,1.15,5.13,0,10.52-1.15,5.39-4.02,1.82-5.75,1.82s-9.48,8.24-10.35,13.39c-.86,5.15,2.59,4.12,2.59,4.12,0,0,6.9-1.03,11.47,6.44,4.58,7.47,0,13.88,0,13.88,0,0-27.85,15.73-33.03,15.73s-7.76,0-12.07-3.09c-4.31-3.09-.86-8.24,1.17-13.39,2.04-5.15,4,0,9.17,0s3.45-5.15,3.03-8.47c-.42-3.32-4.75-2.86-11.65-3.89-6.9-1.03-7.76,0-13.79-5.15-6.03-5.15,0-6.18,2.16-14.03,2.16-7.85,9.05-.39,15.95-2.45,6.9-2.06,2.59-1.03,6.03-5.15,3.45-4.12-.86-3.09-2.27-8.17s-15.84,1.99-15.84,1.99c0,0-12.07-1.03-12.07-9.27s3.45-1.03,13.79-4.12c10.35-3.09,10.35-6.18,7.76-13.39-2.59-7.21-6.03-1.03-13.36-4.14-7.33-3.11-2.16-4.1,0-8.94s1.29-1.34,3.88-1.34,2.59-2.06,6.03-8.24c3.45-6.18-1.72-6.18-3.45-7.21-1.72-1.03-5.17,1.03-11.21,3.09-6.03,2.06-4.31-2.06-10.35-10.3-6.03-8.24,12.93-2.06,19.13-4.12,6.2-2.06,2.42-2.06,11.77-7.65,9.35-5.59-.73-4.71-3.32-8.83-2.59-4.12-4.31,2.06-8.62,1.03-4.31-1.03-8.62-3.09-10.35-6.18-1.72-3.09,4.31-6.18,6.47-10.21,2.16-4.03,6.47-3.18,13.36-11.42,6.9-8.24-2.59-2.06-5.84-5.41-3.25-3.35-9.68-.77-16.58-14.16-6.9-13.39,4.31-1.03,12.07-6.18,7.76-5.15,0-5.15-3.02-8.59-3.02-3.44-7.33-2.74-9.05-6.86-1.72-4.12.86-3.09,4.31-7.21,3.45-4.12,2.59-3.09,7.76-7.21s-2.59-1.03-9.48-2.06c-6.9-1.03-6.03-1.03-7.76-5.15s1.72-2.06,6.9-5.15c5.17-3.09,3.45-1.03,11.21-4.76,7.76-3.73.86-5.54,0-7.6s-16.38-7.21-22.29-14.42c-5.91-7.21,1.6-1.03,4.18-4.12,2.59-3.09,5.17-3.09,8.14-10.3,2.97-7.21-1.25-3.09-2.2-4.05-.95-.96-5.94-.07-8.53-4.19-2.59-4.12,0,0,0-2.06s.86-2.06,2.59-3.09c1.72-1.03,6.03-3.09,5.94-5.15s-1.63-3.09-6.85-6.03c-5.22-2.94-1.68-1.18-5.12-2.21-3.45-1.03,0,0,0-8.24s0,0,3.61-5.15c3.61-5.15-.17-3.09-1.89-6.18-1.72-3.09-1.72,0-3.45-4.12-1.72-4.12,1.72-4.08,1.72-4.08v-6.22l-5.17-20.07v9.47l-3.45,9.58s-1.72,13.39-3.39,18.82c-1.67,5.43,2.53,15.16,2.53,15.16l-2.53,3.24-3.5,2.94s4.31,7.21,10.35,14.42c0,0-2.59,3.09-9.7,7.21-7.12,4.12-.64,8.24,1.08,12.36,1.72,4.12,2.59,5.15,5.17,9.88,2.59,4.73-2.59,3.51-3.39,4.73s-6.09,5.98-6.09,5.98c0,0,3.45,5.15,6.09,5.06s3.39,5.24,3.39,5.24c0,0-3.45,2.06-7.76,3.09s-5.17,4.12-6.9,7.21c-1.72,3.09,1.72,5.15,1.72,5.15l3.45,6.18s8.62,9.27,3.45,11c-5.17,1.73-5.17.33-12.07.33s-4.31,6.18-6.03,8.24,6.03,9.27,2.59,9.27h1.72c1.72,0,13.79,9.27,13.79,9.27,0,0-3.45,3.09-16.38,8.24-12.93,5.15-.86,5.15,1.72,5.15s7.76,4.12,7.76,4.12c0,0-2.59,2.06-8.62,5.15-6.03,3.09,0,12.36,0,16.48s3.45,8.24,7.76,10.3c4.31,2.06,0,5.15,0,5.15,0,0-1.72,2.06-10.64,7.56-8.91,5.5,2.88,3.77,8.05,3.77s6.9,8.24,7.76,10.3c.86,2.06-6.9,4.12-12.93,6.18-6.03,2.06-7.76,9.27-8.62,12.36-.86,3.09,5.17,3.09,9.48,5.41,4.31,2.32.86,4.89,0,9.01s-3.45,3.09-7.17,4.14c-3.72,1.05-6.62,3.07-12.66,8.22-1.67,1.43-2.21,2.3-2.04,2.88-2.78.66-6.03,1.29-7.44-.82-3.45-5.15-4.31-2.06-8.2-8.39-3.89-6.33,3.03-1.91,9.92-6.03,6.9-4.12,0,0,6.74-6.64,6.74-6.64-15.36-1.6-14.7-2.39.66-.79-6.7-7.45-1.52-11.57,5.17-4.12,6.03-3.09,10.35-8.24,4.31-5.15-6.03-3.09-9.48-6.18-3.45-3.09-6.03-5.15-12.93-12.36-6.9-7.21,1.72-3.09,6.9-4.12,5.17-1.03,4.31-2.06,17.24-12.36,12.93-10.3-7.76-1.03-15.52-3.09-7.76-2.06-10.35-7.21-7.56-8.24,2.79-1.03,5.83-7.21,6.7-9.27.86-2.06-6.03-2.06-4.31-8.24,1.72-6.18,0,0,6.29-5.46,6.29-5.46-4.56-4.84-6.29-7.93-1.72-3.09-6.03-6.18-6.03-12.36s2.59-2.06,9.56-7.32c6.97-5.26-.94-4.01-5.17-11.49-4.23-7.48-1.81,2.33-4.39-5.91s2.59-5.15,7.61-9.12c5.03-3.97-.72-9.42-5.53-12.14s-1.22-3.46-.36-11.7c.86-8.24,0,0-.86-18.54s-3.45,1.03-11.21,5.15c-7.76,4.12,2.59,5.15,6.03,5.15s-6.9,10.3-6.9,10.3l-5.17,7.21c-5.17,7.21,2.59,9.27,6.03,11.11,3.45,1.84,1.71,7.89,1.71,7.89,0,0-3.43,12.93-9.87,11.04-6.44-1.89-6.49,14.25-6.49,14.25l11.21,3.09-6.9,5.15s-4.31,8.24-3.45,11.33c.86,3.09,6.9,1.03,13.79,2.48,6.9,1.45-9.32,7.89-9.32,7.89,0,0-6.2,1.99-13.96,3.02-7.76,1.03-6.03,5.15-6.03,5.15,0,0,4.31,10.3,13.59,9.27,9.28-1.03,6.24,8.24,4.51,14.42-1.72,6.18,0,0-5.17,1.03-5.17,1.03-8.62,2.06-17.24,7.21-8.62,5.15,4.31,5.15,16.38,8.24,12.07,3.09,5.49,2.15,5.49,2.15,0,0-2.9,1.97-6.35,4.03-3.45,2.06-6.9,5.15-7.76,12.36-.86,7.21,0,0,9.48,1.75,9.48,1.75,1.72,10.61,0,18.85-1.72,8.24-4.31,6.18-5.17,9.27-.86,3.09-5.17,2.06-13.29-.5-8.12-2.56-8.26-6.71-15.16-21.13-6.9-14.42,3.45-6.18,8.62-9.27,5.17-3.09,6.03-6.18,6.51-14.42.48-8.24-5.65,0-9.96,0s-4.31,0-8.62-6.18,0,0,.86-8.24c.86-8.24,2.59-2.06,7.15-4.12,3.96-1.79,6.02-.47,6.49-.1-1.18-1.02-12.06-10.49-14.42-15.35-2.49-5.15.77-3.09.77-8.24s0,0,1.92-5.26c1.92-5.26-3.65-2.98-5.37-8.13-1.72-5.15,6.08-4.16,5.22-11.37-.86-7.21-4.36.04-9.53-3.05-5.17-3.09,1.72-4.12,7.72-10.58,6-6.46-3.41-4.86-6.68-10.01-3.26-5.15-.18-3.09,1.54-6.18,1.72-3.09,2.59-3.09,4.76-7.47,2.17-4.38-5.62-4.89-6.48-9.01s0,0,2.59-8.24c2.59-8.24-2.59-2.06-5.17-6.18-2.59-4.12-1.72-5.15,1.17-10.75s5.73-1.61,7.54-9.85c1.82-8.24-3.54,2.06-11.23-8.01-7.69-10.07,2.51-2.29,3.88-7.13s-.5-6.49-.5-6.49l.45-4.56c.45-4.56-2.18-9.86-.52-15.01,1.65-5.15-.79-3.09-4.62,0-3.83,3.09-4.79,6.18-3.79,10.28,1,4.1,0,8.26,0,8.26,0,0-6.17,3.09-9.62,4.12-3.45,1.03,0,9.27,2.84,10.3,2.84,1.03.87,5.56.87,5.56,0,0,.6,1.65-2.19,2.68-2.79,1.03-4.11,1.03-7.26,0-3.15-1.03-6.33,8.24-6.33,8.24,0,0,.41,3.64,5.95,6.02,1.15.49.08,3.25,5.26,4.28,5.17,1.03,2.59,5.15,2.59,5.15l-3.5,6.16s-9.83,3.51-10.29,5.17c-1.65,5.96,8.82,2.09,8.82,7.24s-19.87,10.43-6.13,8.84c5.81-.67,17.13,10.7,3.34,14.82-13.79,4.12-3.45,3.09-5.17,9.27-1.72,6.18,2.59,5.15,6.9,7.21s3.45,1.03,3.45,4.23-13.84,7.8-14.7,12.95c-.86,5.15,11.81,5.48,11.81,5.48h-19.52l-14.66-5.15s12.07-6.18,20.69-7.76c8.62-1.58,0-8.72,0-8.72,0,0-6.03,0-12.07-2.06-6.03-2.06-5.17-3.09-12.07-17.51-6.9-14.42,3.45-3.09,7.91-6.18,4.46-3.09,12.78-11.33,8.54-12.86-4.25-1.53-5.24-3.62-7.82-4.65-2.59-1.03-9.22-.59-7-5.76,2.22-5.17,9.77-3.7,11.56-4.56,4.96-2.37-4.57-3.07-8.88-6.16s0,0,5.17-4.12c5.17-4.12,2.59-4.12,1.72-6.18s-5.17-4.12-8.62-6.18,2.59-6.18,10.6-15.45c8.02-9.27-1.12-3.09-2.51-6.23-1.39-3.14-4.65-3.04-9.38-8.19-4.73-5.15-3.03-2.06-3.89-6.18s4.31-3.09,10.35-7.21c6.03-4.12-.86-3.09-3.15-5.15s-2.88-1.03-5.47-7.21c-2.59-6.18,0,0,4.31-6.18,4.31-6.18,3.45-3.09,6.44-6.55s-6.5-6.42-12.54-15.78c0,0,9.48-.41,8.62-4.53s-6.43-3.81-11.17-8.43c-5.04-4.91-5.01-9.6,3.38-8.94s-6.83-11.55-8-19.68c-1.54-10.71-6.56,9.31-10,11.37s-1.72,5.15,4.31,9.27c6.03,4.12-5.26,9.17-6.99,11.23-1.72,2.06,17.51-.23.09,13.49-8.03,6.32,6.03,8.24,6.03,8.24l-4.77,3.75c-4.77,3.75,2.18,4.49,8.22,4.97,6.03.48-9.29,9.82-5.76,10.08,11.49.85,3.94,7.85,2.38,7.66-5.23-.65-9.97,2.73-9.62,8.34.24,3.88,5,1.68,7.45.72-.65.68-1.37,1.44-2.18,2.27-1.27,1.3-2.75,2.78-4.45,4.43-9.59,9.27.11,13.39.11,13.39l3.85,1.03c3.85,1.03,0,8.24,0,8.24,0,0-7.3,1.03-11.89,0-4.59-1.03-2.31,10.3-4.04,16.48-1.72,6.18,4.31,5.15,7.76,5.15s3.54,13.39,3.54,13.39h-7.85l-12.93,8.22,8.62,19.59L0,493.93v590.01l1937.32,1.62v-556.65l-17.24-29.32ZM238.96,631.39c-2.59,6.18-2.59,3.09-8.25,7.21s-4.68,0-6.4,0-7.76-6.18-8.62-8.24,6.9-3.09,14.92-14.84c.99-1.46,1.64-2.56,2.01-3.39,1.58.34,3.3.8,4.62,1.74,4.31,3.09.86,3.09,4.31,7.21s0,4.12-2.59,10.3ZM381.21,571.65c1.71-.51,3.04-.96,4.15-1.43,5.5,4.15,9.04,3.99,10.93,6.68,2.16,3.07,8.19,5.43,6.47,7.78-1.72,2.36-6.03,3.93-10.35,4.71-3.22.59-5-1.9-6.77-1.88.25-.46.49-.93.74-1.45,3.45-7.21-6.9-3.09-14.66-8.24-7.76-5.15,2.59-4.12,9.48-6.18ZM411.38,604.31c-6.03,6.28-4.31,9.42-10.35,7.85-6.03-1.57-9.48-3.14-11.21-2.36-1.63.74-6.36.79-3.91,4.8-.63-.08-1.19-.11-1.68-.1-2.98-3.27-8.18-5.42-12.51-8.87-5.17-4.12.86-5.15,4.31-8.24,1.1-.99,2.21-1.77,3.31-2.6.34.17.71.35,1.13.54,9.35,4.26,5.57,4.26,11.77,5.83,6.2,1.57,25.17-3.14,19.13,3.14ZM480.35,673.4c-.86,1.57-6.9,6.28-8.62,6.28s-.73,3.14-6.4,0c-5.67-3.14-5.67-.79-8.25-5.5-2.59-4.71-6.03-4.71-2.59-7.85,3.45-3.14,0-3.14,4.31-5.5,1.32-.72,3.04-1.07,4.62-1.33.37.63,1.02,1.47,2.01,2.58,8.02,8.95,15.78,9.74,14.92,11.31ZM905.37,708.52c-2.59,3.56-2.59,1.78-8.25,4.15-5.67,2.37-4.68,0-6.4,0s-7.76-3.56-8.62-4.75c-.86-1.19,6.9-1.78,14.92-8.55.99-.84,1.64-1.47,2.01-1.95,1.58.19,3.3.46,4.62,1,4.31,1.78.86,1.78,4.31,4.15,3.45,2.37,0,2.37-2.59,5.93ZM966.15,634.99c2.16-2.32,6.47-1.83,13.36-6.58.51-.35.93-.66,1.27-.92,4.71,2.15,4,1.66,7.35,3.97,3.45,2.37,6.03,1.78,4.31,4.15-1.72,2.37-6.03,1.97-9.05,3.95-2.47,1.62-8.11,1.92-5.82,3.6-2.06-.74-3.85,1.78-7.54,1.27-4.31-.59-8.62-1.78-10.35-3.56-1.72-1.78,4.31-3.56,6.47-5.88ZM951.06,655.71c-6.03-4.75,12.93-1.19,19.13-2.37,6.2-1.19,2.42-1.19,11.77-4.41,9.35-3.22-.73-2.71-3.32-5.09-.07-.06-.13-.1-.19-.15.49.25,1.12.52,1.92.83,7.76,2.97,18.97-4.15,12.07,3.56-6.9,7.71-13.33,6.22-16.58,8.16-3.25,1.93-12.73-1.63-5.84,3.12.21.15.41.27.62.41-1.99.21-4.96,1.04-9.24,1.89-6.03,1.19-4.31-1.19-10.35-5.93ZM989.86,671.81c-1.72,1.78-6.03,2.97-10.35,3.56-.63.09-1.2.08-1.73.02-.55-.28-1.15-.4-1.81-.43-2-.7-3.35-1.78-5.08-.19-.18.16-.39.31-.62.44-1.22-.03-2.58-.16-4.12-.54-7.33-1.79-2.16-2.36,0-5.15,2.16-2.79,1.29-.77,3.88-.77s2.59-1.19,6.03-4.75c.38-.39.65-.74.83-1.05,3.04,1.16,5.17,1.53,6.49,2.96,2.16,2.32,8.19,4.1,6.47,5.88ZM970.03,708c-.58.94-1.03,1.76-1.27,2.48-1.29-.37-2.73-.96-4.77-1.96-6.03-2.97,0-3.56,2.16-8.08,1.66-3.48,6.13-1.74,11.25-1.29.56.39,1.16.55,2.12.55,1.11,0,1.59-.37,1.94-.58.19-.02.38-.05.57-.08.29.12.67.51,1.38,1.43,2.16,2.79,7.33,3.36,0,5.15-7.33,1.79-10.78-1.77-13.36,2.39ZM979.51,723.43s-2.16-.61-4.89-1.19c.67-1.15,1.77-2.39,2.62-3.64,2.04-2.97,4,0,9.17,0,3.54,0,3.85-1.39,3.56-2.88,1.14.06,1.61.6,1.61,2.37,0,4.75-12.07,5.34-12.07,5.34ZM998.48,686.64c-6.03,4.75-4.31,7.12-10.35,5.93-.58-.11-1.14-.23-1.67-.34-.23-.26-.43-.54-.59-.89-.64-1.33-3.95-1.21-7.39-.69-.62-.04-1.14,0-1.55.14-.75.26-2.14.4-3.2.77-2.14.49-3.7.93-3.7.93,0,0-12.07-.59-12.07-5.34s3.45-.59,13.79-2.37c2.06-.36,3.71-.71,5.01-1.08.61.17,1.42.35,2.58.57,6.2,1.19,25.17-2.37,19.13,2.37ZM1067.45,738.85c-.86,1.19-6.9,4.75-8.62,4.75s-.73,2.37-6.4,0c-5.67-2.37-5.67-.59-8.25-4.15-2.59-3.56-6.03-3.56-2.59-5.93,3.45-2.37,0-2.37,4.31-4.15,1.32-.54,3.04-.81,4.62-1,.37.48,1.02,1.11,2.01,1.95,8.02,6.77,15.78,7.36,14.92,8.55ZM1492.47,705.12c-2.59,4.71-2.59,2.36-8.25,5.5-5.67,3.14-4.68,0-6.4,0s-7.76-4.71-8.62-6.28c-.86-1.57,6.9-2.36,14.92-11.31.99-1.11,1.64-1.95,2.01-2.58,1.58.26,3.3.61,4.62,1.33,4.31,2.36.86,2.36,4.31,5.5,3.45,3.14,0,3.14-2.59,7.85ZM1577.82,636.57c-4.33,3.45-9.52,5.6-12.51,8.87-.49,0-1.05.02-1.68.1,2.45-4.02-2.28-4.06-3.91-4.8-1.72-.79-5.17.79-11.21,2.36-6.03,1.57-4.31-1.57-10.35-7.85-6.03-6.28,12.93-1.57,19.13-3.14,6.2-1.57,2.42-1.57,11.77-5.83.42-.19.79-.37,1.13-.54,1.1.84,2.21,1.61,3.31,2.6,3.45,3.09,9.48,4.12,4.31,8.24ZM1577.82,608.76c-7.76,5.15-18.1,1.03-14.66,8.24.25.52.49.99.74,1.45-1.77-.02-3.55,2.46-6.77,1.88-4.31-.79-8.62-2.36-10.35-4.71-1.72-2.36,4.31-4.71,6.47-7.78,1.89-2.7,5.44-2.53,10.93-6.68,1.11.48,2.45.92,4.15,1.43,6.9,2.06,17.24,1.03,9.48,6.18ZM1733.86,661.29c-.86,2.06-6.9,8.24-8.62,8.24s-.73,4.12-6.4,0c-5.67-4.12-5.67-1.03-8.25-7.21-2.59-6.18-6.03-6.18-2.59-10.3,3.45-4.12,0-4.12,4.31-7.21,1.32-.95,3.04-1.41,4.62-1.74.37.83,1.02,1.93,2.01,3.39,8.02,11.75,15.78,12.78,14.92,14.84Z"/>
      </g>
      <line class="cls-1" x1="12.23" y1="497.98" x2="13.3"/>
    </g>
  </g>
</svg>