<?xml version="1.0" encoding="UTF-8"?>
<svg id="Layer_2" xmlns="http://www.w3.org/2000/svg" viewBox="0 0 1951.27 1079.49">
  <defs>
    <style>
      .cls-1 {
        fill: none;
        stroke: #04223d;
        stroke-miterlimit: 10;
        stroke-width: .25px;
      }

      .cls-2 {
        fill: #04223d;
      }
    </style>
  </defs>
  <g id="Layer_5">
    <g>
      <g>
        <path class="cls-2" d="M1894.88,769.09c.28-5.91-.59-2.06,0,0h0Z"/>
        <path class="cls-2" d="M1950.16,787.34l-15.72-13.02,10.22-2.89s3.14,5.06.79-2.17c-2.36-7.23,3.93-6.05-3.14-9.89-7.07-3.85-9.43-3.12-12.58-4.57-3.14-1.45-3.14.14-4.72-3.18-1.57-3.32-7.86-7.91,0-9.23,7.86-1.32,7.14-.95,10.64-2.58,3.51-1.63,8.22,1.26,5.87-3.8-2.36-5.06,0-6.51-3.93-8.68-3.93-2.17-6.29-4.34-9.43-3.62s-9.97.44-10.49-.14c-.52-.58-4.45-2.03-2.09-4.92s5.5-7.4,11.01-9.12c5.5-1.72,7.9.85,5.92-3.69-1.98-4.54-1.98-6.77-5.92-8.91-3.93-2.14-5.3-3.58-5.3-3.58,13.95-4.34,43.03-9.4,23.38-10.85-19.65-1.45-15.72-.72-23.58-2.89s-11.79-1.45-7.86-2.17c3.93-.72,11.79-1.41,11.79-4.32s5.5-5.55,0-9.29-10.04-2.52-8.95-5.3c1.09-2.78,10.52-4.95,4.23-10.74-6.29-5.79-12.52-6.16-8.62-9.95s9.4-11.74,5.47-14.64c-3.93-2.89-8.65-6.51-9.43-6.51s-4.97-9.4-2.09,0c2.88,9.4,9.95,10.12,2.09,15.19s-7.86,5.06-9.43,10.12c-1.57,5.06,1.14,8.91,2.93,12.05,1.79,3.14,7.29,3.86,1.79,8.2s-11.71-.9-8.21,4.61c3.5,5.51,12.54,6.1,7.63,8.34-4.92,2.24-14.35,5.13-18.28,7.3s-3.93,6.51,1.57,8.68,6.37,5,9.08,5.75c2.71.76-11.37,4.82-6.69,10.02,4.68,5.2,21.43-1.07,10.3,6.04s-10.1,3.8-18.87,9.08c-8.76,5.27-15.1,2.03-6.82,9.08,8.28,7.04,14.05,7.5,15.49,10.89,1.44,3.38-11.93,12.79-7.21,14.23,4.72,1.45,17.56-4.57,7.21,3.86-10.35,8.43-15.76,7.89-19.35,9.97-.88.51-1.36-.03-1.59-.86-.07,1.37-.19,3.26-.42,5.83-1.57,18.08-12.58,12.65,0,16.45,12.58,3.8,24.37-1.26,16.51,4.52-7.86,5.79-8.65,8.68-20.44,11.57-11.79,2.89-10.22,5.06-17.29,2.17s-11.79-2.89-8.65-5.79c3.14-2.89,2.36-2.17,6.29-5.06,3.93-2.89,10.22-5.06,0-9.4-10.22-4.34-14.15-6.51-14.15-7.95s-3.93-3.62,4.72-5.79c8.65-2.17,16.51,0,13.36-5.06-3.14-5.06-.79-7.23-10.22-9.4-9.43-2.17-2.36-10.85-2.36-10.85,0,0,14.94-1.45,7.86-5.06s-6.17-6.99-14.88-8.55c-8.71-1.57,9.37-11.69,9.37-11.69,0-4.34.65-11.34-4-12.18-4.65-.84-2.29,2.05-4.65-.84s-3.02-9.14-.73-9.63c2.3-.49,6.23-1.22,6.23-2.66s2.17-5.06-2.06-6.51-9.64,2.42-6.54-2.05c3.1-4.46,7.03-3.02,5.46-9.52-1.57-6.51-3.31-9.97-6.37-16.56-3.06-6.59-12.46-.05-6.19-8.38,6.27-8.33,6.42-10.9,6.42-10.9,0,0-6.92-10.45-9.43-11.9-2.51-1.45-13.02-9.99-12.48-3.91.54,6.08-1.77,15.8-1.77,15.8l4.82,8.11-4.82,4.47s-7.13-2.09-4.77.46c2.36,2.55.08,6.7,4.37,7.88,4.28,1.18,9.42,1.21,8.03,6.26-1.39,5.04-1.39,5.69-4.53,7.53-3.14,1.85-6.29,3.29-10.22,4.74-3.93,1.45-7.07.72-4.72,3.62,2.36,2.89,4.68,0,8.63,4.34,3.95,4.34,4.45,3.05,4.98,6.59.54,3.54-8.19,4.26-8.19,4.26,0,0-7.78-.72-9.35,1.45-1.57,2.17-7.07,2.25,0,6.19,7.07,3.94,7.07,1.04,10.22,4.66,3.14,3.62,9.43,3.92,3.14,5.58-6.29,1.65-10.22.21-11.79,1.65-1.57,1.45-7.07-2.17-1.57,1.45s10.92,3.99,11.36,5.97,2.79,3.43-1.14,4.87-10.98,2.54-13.74,3.8c-2.77,1.26-9.05-2.35-5.91,3.43,3.14,5.79,8.65,7.95,12.58,10.12,3.93,2.17,12.58,0,4.72,4.34-7.86,4.34-12.58,7.23-20.44,7.23s-17.29-2.89-13.36,2.17c3.93,5.06,2.36,10.12,14.94,11.57s25.16-8.68,20.44,1.45c-4.72,10.12-1.57,9.4-9.43,12.29-7.86,2.89-6.29,0-11.79,2.89s-11.79,6.51-3.14,8.68c8.65,2.17,31.44-9.4,18.87,3.62-12.58,13.02-15.72,11.57-22.8,12.29s-5.79,3.62-12.33,0c-6.54-3.62-4.97-10.12-3.4-10.12s20.44,1.45,8.65-8.68c-11.79-10.12-18.87-10.12-18.87-10.12,0,0-8.65-1.29,0-4.26,8.65-2.97,25.16-2.97,24.37-7.31s-7.86-8.68-14.94-9.4c-7.07-.72-9.43-1.45-9.43-1.45,0,0-1.57-.43,3.93-7.95,5.5-7.52-3.14-5.79-3.14-8.68s13.36-4.34,11.79-5.79c-1.57-1.45-14.35-5.97-6.29-10.12,8.06-4.15.79-6.51.79-8.68s8.65-2.89-1.57-7.95c-10.22-5.06-11.01-18.08-11.01-18.08l-2.45-22.79s.34-10.66-3.32-11.65-3.66-13.29-6.81,3.34-1.57,15.91,0,23.14c1.57,7.23,4.72,6.51,0,13.02-4.72,6.51-7.59,6.75-7.73,9.52-.13,2.77-5.12.18,2.09,6.18s6.1,7.63,1.71,10.33c-4.4,2.7,5.5,0-1.57,2.89-7.07,2.89-11.01-3.62-7.07,2.89s5.5,7.23,7.86,10.12c2.36,2.89,7.86,7.95,5.5,10.12-2.36,2.17-5.5-5.79-8.65,1.45-3.14,7.23-22.01,2.89-17.29,7.95,4.72,5.06,22.01,2.89,23.58,7.95,1.57,5.06,3.14,9.4-3.93,11.57-7.07,2.17-12.58,0-14.15,2.89-1.57,2.89-22.8-1.45-2.36,5.79,20.44,7.23,22.8,0,20.44,7.23-2.36,7.23-18.87,2.89-18.87,2.89l-14.67.49s-15.2,3.12-6.55,6.02c8.65,2.89,11.01,2.17,14.15,5.06s-6.92,6.28-6.92,6.28l-18.24-1.22s-7.07-7.95-3.93-9.4,7.74-1.85,6.62-5.26c-1.12-3.42-1.92-9.26-4.67-9.23-2.74.03-7.46.63-4.71-1.48,2.75-2.11,8.14-3.37,9.37-9.97,1.24-6.6-10.21-6.28-10.21-6.28,0,0-8.99-1.05-3.49-5.39,5.5-4.34,7.06-5.59,9.03-5.32,1.97.26,2.64.45,4.67-.37,2.02-.82,11.46-2.26,4.38-5.88q-7.07-3.62-11.01-5.06c-3.93-1.45-8.65-2.89-6.29-4.34,2.36-1.45.79-2.17,6.29-3.62s7.07,2.89,5.5-1.45c-1.57-4.34-1.57-5.79-5.5-7.23s-7.07-7.23-7.07-7.23c0,0-1.05-4.68,1.44-4.15s7.59-3.51,7.59-3.51c0,0,7.46-2.16,0-5.56-7.46-3.41-10.81-5.51-10.81-5.51l-2-3.56s2.21-5.18,4.57-5.18,3.54.25,3.54.25c0,0,8.12-2.42,6.62-3.86-1.51-1.45.85-3.62-4.65-5.06-5.5-1.45-6.31-1.51-11.41-2.2-5.1-.69-6.45-.32-5.38-3.4,1.07-3.08-.51-5.25,3.43-5.25s12.58,2.17,7.86-4.34c-4.72-6.51-6.06-8.64-11.29-10.83-5.22-2.19-8.37-.02-9.15-4.36s3.93-14.46,4.72-18.8c.79-4.34,1.57-5.06,0-8.68-1.57-3.62-1.75-4.17-4.8-4.62s-5.13-3.34-3.31-2.62,8.9-3.62,8.9-5.79.79-2.17-.79-2.89c-1.57-.72-3.93-1.45-6.29-3.62-2.36-2.17-2.51-9.24-2.51-9.24,0,0,5.5-3.78,2.82-5.22s-3.46-2.17-5.03-2.17-2.56,0-2.46,2.17c.1,2.17,5.6,7.23,2.46,9.4-3.14,2.17-3.14.72-8.65,5.06-5.5,4.34-7.07,2.89-4.72,5.79s3.93,1.45,4.72,4.34c.79,2.89.79,5.79-1.57,8.68-2.36,2.89-9.97,3.85-7.34,7.35,2.63,3.5,6.56,6.39,9.7,8.56,3.14,2.17,7.07,1.45,2.36,4.34s-10.49,6.33-11.14,6.06,7.84,4.11,9.1,6.26,6.76-.02,3.61,4.32-7.86,2.89-8.65,5.79c-.79,2.89-1.57,2.89,3.14,5.06,4.72,2.17,9.43,0,7.07,3.62-2.36,3.62,1.42,2.1-5.18,5.03-6.61,2.93-6.4,1.74-6.9,4.14-.49,2.4,5.01,4.57,5.79,8.19.79,3.62,6.1,3.38.3,5.31-5.8,1.92-5.86,1.37-9.76,3.09-3.9,1.72-10.23,1.31-5.49,4.41s8.66,2.38,12.59,5.27c3.93,2.89,3.93,6.51,1.57,8.68-2.36,2.17.79.72-4.72,2.17-5.5,1.45-7.57-.35-7.32,1.63.25,1.98-1.32,4.88,4.18,7.05s14.15,1.45,13.36,4.34,2.36,3.62-6.29,5.79c-8.65,2.17-12.58-.72-13.36,2.17-.79,2.89,1.57,9.4,7.86,10.85,6.29,1.45,9.43-4.34,11.01,0,1.57,4.34-.79,9.4-7.86,9.4s-7.86-1.45-13.36.72c-5.5,2.17-9.43-.72-5.5,4.34,3.93,5.06-.79,3.62,7.07,7.23,7.86,3.62,13.36-2.89,11.79,5.79-1.57,8.68-2.36,8.68-7.07,10.85-4.72,2.17-6.29,3.62-14.94,0-8.65-3.62-9.55-5.09-11.85-8.69-2.3-3.6.06-6.49,3.2-9.39,3.14-2.89,6.29-5.06,0-7.95-6.29-2.89-7.54-3.02-9.27-4.04s-9.6-2.47-3.31-3.91c6.29-1.45,11.79-3.62,11.79-3.62,0,0,3.14-5.79-3.93-6.51-7.07-.72-11.79-2.17-11.79-2.17v-5.99c0-1.25-3.93-1.97.79-1.97s15.6-.35,12.52-2.71c-3.08-2.35-.73-3.8-5.44-5.25s-5.5-.72-6.29-2.89c-.79-2.17-.79-5.79.79-6.51s5.5-1.45,3.93-4.34-6.22-10.54-7.82-10.33-2.32-1.18,0-1.21,3.89-7.03.75-7.87-7.07-5.9-7.86-2.29c-.79,3.62-1.57,8.02,0,10.15,1.57,2.14,3.14,2.14,0,4.31-3.14,2.17-6.29.72-3.93,4.34,2.36,3.62,5.5,3.62,6.29,7.23.79,3.62,3.14,2.89-3.14,5.06-6.29,2.17-13.36,2.17-14.15,5.06-.79,2.89-1.57,5.06,4.72,7.23,6.29,2.17,7.07,3.62,7.07,5.79s-1.57,4.34-5.5,5.79c-3.93,1.45-12.63.65-10.24,3.94,2.38,3.29,1.6,3.29,7.1,6.91,5.5,3.62,5.5,4.34,4.72,5.79-.79,1.45-5.5,0-7.86,1.45-2.36,1.45-11.06,1.42-3.96,4.32,7.1,2.91,17.32-2.15,11.82,5.8-5.5,7.95-8.7,8.54-11.82,8.97s-12.55-1.02-6.26,1.88c6.29,2.89,15.72-4.34,12.58,5.06-3.14,9.4-15.72,11.57-16.51,10.85s-7.86-6.51-8.65-9.4c-.79-2.89-5.5-2.89-7.86-2.89s-3.93,0-4.72-1.45-3.93-3.14,0-3.74c3.93-.6,7.86-2.77,7.86-2.77,0,0,4.72-1.45-1.57-3.62-6.29-2.17-7.86-2.17-9.43-2.89-1.57-.72-3.93-1.45-4.72-2.17s-2.36-4.34,2.36-4.34,8.65-2.17,8.65-2.17c0,0,.79-5.06-3.93-6.51s-6.29-2.89-8.65-2.89-4.72-.72-2.36-1.45c2.36-.72,7.86-4.34,10.22-4.34s3.93.72,2.36-1.45c-1.57-2.17,0-4.34-7.86-5.79-7.86-1.45-9.43-2.17-9.43-2.17,0,0,1.57.72,3.14-1.45,1.57-2.17,7.07-3.62,7.07-3.62,0,0,.79-2.17-.79-3.62s-3.93-3.62-6.29-4.34-1.57-.08-3.14-1.12c-1.57-1.05-6.29-3.94-6.29-3.94,0,0,0-2.17,3.14-2.17s6.29.72,6.29-1.45,7.86-2.17-.79-5.79q-8.65-3.62-10.22-3.62c-1.57,0-7.07.72-3.14-2.17,3.93-2.89,2.98-6.2,6.21-5.27,3.23.93,8.5,2.68,7.83,0-.67-2.68,3.26-3.41-3.03-6.3-6.29-2.89-5.85-1.21-9.22-2.78s-3.36.61-3.36-1.56,3.14-4.34,5.5-4.34,5.5-2.17,2.36-4.34c-3.14-2.17-5.5-3.52-7.86-4.29-2.36-.77-3.14-1.49-3.14-1.49,0,0,6.29-7.23,7.07-7.23s-1.57-.72-4.72-2.89-5.5.72-6.29-3.62c-.79-4.34.79-7.95,1.57-8.68s5.5.72.79-5.06c-4.72-5.79-11.01-10.85-9.43-7.23,1.57,3.62,2.36,6.51,3.14,7.95.79,1.45,2.36,0,0,3.62-2.36,3.62-6.78-.31-3.39,6.35,3.39,6.66,5.75,6.66,4.96,9.55s-.79,3.62-4.72,5.06-10.22.72-9.43,3.62c.79,2.89,1.57,5.06,6.29,7.95s7.07,3.62,5.5,5.06c-1.57,1.45-.79,1.45-5.5,2.89s-11.14-.94-6.36,2.78c4.78,3.72,7.93,4.45,8.71,6.62.79,2.17,5.5,2.17-.79,5.79-2.13,1.23-4.26,2.12-6.21,2.82-.25-.98-.79-1.76-2.44-2.67-3.93-2.17-6.29-4.34-9.43-3.62-3.14.72-9.97.44-10.49-.14-.52-.58-4.45-2.03-2.09-4.92s5.5-7.4,11.01-9.12c5.5-1.72,7.9.85,5.92-3.69-1.98-4.54-1.98-6.77-5.92-8.91-3.93-2.14-5.3-3.58-5.3-3.58,13.95-4.34,43.03-9.4,23.38-10.85s-15.72-.72-23.58-2.89-11.79-1.45-7.86-2.17,11.79-1.41,11.79-4.32,5.5-5.55,0-9.29c-5.5-3.74-10.04-2.52-8.95-5.3,1.09-2.78,10.52-4.95,4.23-10.74-6.29-5.79-12.52-6.16-8.62-9.95,3.9-3.79,9.4-11.74,5.47-14.64-3.93-2.89-8.65-6.51-9.43-6.51s-4.97-9.4-2.09,0c2.88,9.4,9.95,10.12,2.09,15.19q-7.86,5.06-9.43,10.12c-1.57,5.06,1.14,8.91,2.93,12.05,1.79,3.14,7.29,3.86,1.79,8.2-5.5,4.34-11.71-.9-8.21,4.61,3.5,5.51,12.54,6.1,7.63,8.34-4.92,2.24-14.35,5.13-18.28,7.3s-3.93,6.51,1.57,8.68c5.5,2.17,6.37,5,9.08,5.75,2.71.76-11.37,4.82-6.69,10.02,4.68,5.2,21.43-1.07,10.3,6.04-11.12,7.11-10.1,3.8-18.87,9.08s-15.1,2.03-6.82,9.08c8.28,7.04,14.05,7.5,15.49,10.89,1.44,3.38-11.93,12.79-7.21,14.23s17.56-4.57,7.21,3.86c-10.35,8.43-15.76,7.89-19.35,9.97-.88.51-1.36-.03-1.6-.86-.07,1.37-.19,3.26-.42,5.83-1.57,18.08-12.58,12.65,0,16.45,12.58,3.8,24.37-1.26,16.51,4.52-7.86,5.79-8.65,8.68-20.44,11.57-11.79,2.89-10.22,5.06-17.29,2.17-7.07-2.89-11.79-2.89-8.65-5.79,3.14-2.89,2.36-2.17,6.29-5.06s10.22-5.06,0-9.4c-10.22-4.34-14.15-6.51-14.15-7.95s-3.93-3.62,4.72-5.79,16.51,0,13.36-5.06c-3.14-5.06-.79-7.23-10.22-9.4-9.43-2.17-2.36-10.85-2.36-10.85,0,0,14.94-1.45,7.86-5.06-7.07-3.62-6.17-6.99-14.88-8.55-8.71-1.57,9.37-11.69,9.37-11.69,0-4.34.65-11.34-4-12.18-4.65-.84-2.29,2.05-4.65-.84s-3.02-9.14-.73-9.63,6.23-1.22,6.23-2.66,2.17-5.06-2.06-6.51c-4.23-1.45-9.64,2.42-6.54-2.05,3.1-4.46,7.03-3.02,5.46-9.52-1.57-6.51-3.31-9.97-6.37-16.56-3.06-6.59-12.46-.05-6.19-8.38,6.27-8.33,6.42-10.9,6.42-10.9,0,0-6.92-10.45-9.43-11.9s-13.02-9.99-12.48-3.91c.54,6.08-1.77,15.8-1.77,15.8l4.82,8.11-4.82,4.47s-7.13-2.09-4.77.46.08,6.7,4.37,7.88c4.28,1.18,9.42,1.21,8.03,6.26-1.39,5.04-1.39,5.69-4.53,7.53s-6.29,3.29-10.22,4.74c-3.93,1.45-7.07.72-4.72,3.62,2.36,2.89,4.68,0,8.63,4.34s4.45,3.05,4.98,6.59-8.19,4.26-8.19,4.26c0,0-7.78-.72-9.35,1.45-1.57,2.17-7.07,2.25,0,6.19s7.07,1.04,10.22,4.66c3.14,3.62,9.43,3.92,3.14,5.58-6.29,1.65-10.22.21-11.79,1.65-1.57,1.45-7.07-2.17-1.57,1.45,5.5,3.62,10.92,3.99,11.36,5.97.43,1.98,2.79,3.43-1.14,4.87-3.93,1.45-10.98,2.54-13.74,3.8-2.77,1.26-9.05-2.35-5.91,3.43,3.14,5.79,8.65,7.95,12.58,10.12s12.58,0,4.72,4.34c-7.86,4.34-12.58,7.23-20.44,7.23s-17.29-2.89-13.36,2.17,2.36,10.12,14.94,11.57,25.16-8.68,20.44,1.45c-4.72,10.12-1.57,9.4-9.43,12.29-7.86,2.89-6.29,0-11.79,2.89s-11.79,6.51-3.14,8.68,31.44-9.4,18.87,3.62c-12.58,13.02-15.72,11.57-22.8,12.29-7.07.72-5.79,3.62-12.33,0-6.54-3.62-4.97-10.12-3.4-10.12s20.44,1.45,8.65-8.68c-11.79-10.12-18.87-10.12-18.87-10.12,0,0-8.65-1.29,0-4.26,8.65-2.97,25.16-2.97,24.37-7.31-.79-4.34-7.86-8.68-14.94-9.4s-9.43-1.45-9.43-1.45c0,0-1.57-.43,3.93-7.95,5.5-7.52-3.14-5.79-3.14-8.68s13.36-4.34,11.79-5.79c-1.57-1.45-14.35-5.97-6.29-10.12,8.06-4.15.79-6.51.79-8.68s8.65-2.89-1.57-7.95c-10.22-5.06-11.01-18.08-11.01-18.08l-2.45-22.79s.34-10.66-3.32-11.65c-3.66-.99-3.66-13.29-6.81,3.34s-1.57,15.91,0,23.14c1.57,7.23,4.72,6.51,0,13.02-4.72,6.51-7.59,6.75-7.73,9.52-.13,2.77-5.12.18,2.09,6.18,7.21,5.99,6.1,7.63,1.71,10.33-4.4,2.7,5.5,0-1.57,2.89s-11.01-3.62-7.07,2.89c3.93,6.51,5.5,7.23,7.86,10.12,2.36,2.89,7.86,7.95,5.5,10.12s-5.5-5.79-8.65,1.45-22.01,2.89-17.29,7.95c4.72,5.06,22.01,2.89,23.58,7.95,1.57,5.06,3.14,9.4-3.93,11.57s-12.58,0-14.15,2.89c-1.57,2.89-22.8-1.45-2.36,5.79,20.44,7.23,22.8,0,20.44,7.23-2.36,7.23-18.87,2.89-18.87,2.89l-14.67.49s-15.2,3.12-6.55,6.02c8.65,2.89,11.01,2.17,14.15,5.06s-6.92,6.28-6.92,6.28l-18.24-1.22s-7.07-7.95-3.93-9.4,7.74-1.85,6.62-5.26c-1.12-3.42-1.92-9.26-4.67-9.23-2.74.03-7.46.63-4.71-1.48,2.75-2.11,8.14-3.37,9.37-9.97,1.24-6.6-10.21-6.28-10.21-6.28,0,0-8.99-1.05-3.49-5.39,5.5-4.34,7.06-5.59,9.03-5.32,1.97.26,2.64.45,4.67-.37,2.02-.82,11.46-2.26,4.38-5.88q-7.07-3.62-11.01-5.06c-3.93-1.45-8.65-2.89-6.29-4.34s.79-2.17,6.29-3.62c5.5-1.45,7.07,2.89,5.5-1.45-1.57-4.34-1.57-5.79-5.5-7.23-3.93-1.45-7.07-7.23-7.07-7.23,0,0-1.05-4.68,1.44-4.15s7.59-3.51,7.59-3.51c0,0,7.46-2.16,0-5.56-7.46-3.41-10.81-5.51-10.81-5.51l-2-3.56s2.21-5.18,4.57-5.18,3.54.25,3.54.25c0,0,8.12-2.42,6.62-3.86-1.51-1.45.85-3.62-4.65-5.06s-6.31-1.51-11.41-2.2c-5.1-.69-6.45-.32-5.38-3.4,1.07-3.08-.51-5.25,3.43-5.25s12.58,2.17,7.86-4.34c-4.72-6.51-6.06-8.64-11.29-10.83-5.22-2.19-8.37-.02-9.15-4.36-.79-4.34,3.93-14.46,4.72-18.8s1.57-5.06,0-8.68-1.75-4.17-4.8-4.62-5.13-3.34-3.31-2.62,8.9-3.62,8.9-5.79.79-2.17-.79-2.89-3.93-1.45-6.29-3.62-2.51-9.24-2.51-9.24c0,0,5.5-3.78,2.82-5.22s-3.46-2.17-5.03-2.17-2.56,0-2.46,2.17c.1,2.17,5.6,7.23,2.46,9.4-3.14,2.17-3.14.72-8.65,5.06-5.5,4.34-7.07,2.89-4.72,5.79,2.36,2.89,3.93,1.45,4.72,4.34.79,2.89.79,5.79-1.57,8.68-2.36,2.89-9.97,3.85-7.34,7.35,2.63,3.5,6.56,6.39,9.7,8.56,3.14,2.17,7.07,1.45,2.36,4.34s-10.49,6.33-11.14,6.06,7.84,4.11,9.1,6.26,6.76-.02,3.61,4.32-7.86,2.89-8.65,5.79c-.79,2.89-1.57,2.89,3.14,5.06,4.72,2.17,9.43,0,7.07,3.62-2.36,3.62,1.42,2.1-5.18,5.03-6.61,2.93-6.4,1.74-6.9,4.14-.49,2.4,5.01,4.57,5.79,8.19.79,3.62,6.1,3.38.3,5.31-5.8,1.92-5.86,1.37-9.76,3.09-3.9,1.72-10.23,1.31-5.49,4.41,4.73,3.1,8.66,2.38,12.59,5.27,3.93,2.89,3.93,6.51,1.57,8.68-2.36,2.17.79.72-4.72,2.17-5.5,1.45-7.57-.35-7.32,1.63.25,1.98-1.32,4.88,4.18,7.05,5.5,2.17,14.15,1.45,13.36,4.34-.79,2.89,2.36,3.62-6.29,5.79-8.65,2.17-12.58-.72-13.36,2.17s1.57,9.4,7.86,10.85c6.29,1.45,9.43-4.34,11.01,0s-.79,9.4-7.86,9.4-7.86-1.45-13.36.72-9.43-.72-5.5,4.34c3.93,5.06-.79,3.62,7.07,7.23,7.86,3.62,13.36-2.89,11.79,5.79-1.57,8.68-2.36,8.68-7.07,10.85-4.72,2.17-6.29,3.62-14.94,0-8.65-3.62-9.55-5.09-11.85-8.69-2.3-3.6.06-6.49,3.2-9.39s6.29-5.06,0-7.95c-6.29-2.89-7.54-3.02-9.27-4.04s-9.6-2.47-3.31-3.91,11.79-3.62,11.79-3.62c0,0,3.14-5.79-3.93-6.51-7.07-.72-11.79-2.17-11.79-2.17v-5.99c0-1.25-3.93-1.97.79-1.97s15.6-.35,12.52-2.71c-3.08-2.35-.73-3.8-5.44-5.25-4.72-1.45-5.5-.72-6.29-2.89s-.79-5.79.79-6.51,5.5-1.45,3.93-4.34c-1.57-2.89-6.22-10.54-7.82-10.33s-2.32-1.18,0-1.21,3.89-7.03.75-7.87c-3.14-.84-7.07-5.9-7.86-2.29-.79,3.62-1.57,8.02,0,10.15,1.57,2.14,3.14,2.14,0,4.31s-6.29.72-3.93,4.34,5.5,3.62,6.29,7.23,3.14,2.89-3.14,5.06-13.36,2.17-14.15,5.06c-.79,2.89-1.57,5.06,4.72,7.23s7.07,3.62,7.07,5.79-1.57,4.34-5.5,5.79-12.63.65-10.24,3.94c2.38,3.29,1.6,3.29,7.1,6.91,5.5,3.62,5.5,4.34,4.72,5.79s-5.5,0-7.86,1.45c-2.36,1.45-11.06,1.42-3.96,4.32,7.1,2.91,17.32-2.15,11.82,5.8-5.5,7.95-8.7,8.54-11.82,8.97-3.12.43-12.55-1.02-6.26,1.88,6.29,2.89,15.72-4.34,12.58,5.06-3.14,9.4-15.72,11.57-16.51,10.85s-7.86-6.51-8.65-9.4c-.79-2.89-5.5-2.89-7.86-2.89s-3.93,0-4.72-1.45-3.93-3.14,0-3.74,7.86-2.77,7.86-2.77c0,0,4.72-1.45-1.57-3.62-6.29-2.17-7.86-2.17-9.43-2.89-1.57-.72-3.93-1.45-4.72-2.17s-2.36-4.34,2.36-4.34,17.67-3.21,17.67-3.21c0,0-8.24-4.03-12.96-5.47s-6.29-2.89-8.65-2.89-4.72-.72-2.36-1.45,7.86-4.34,10.22-4.34,3.93.72,2.36-1.45c-1.57-2.17-4.82-.51-12.68-1.96-7.86-1.45-4.61-6-4.61-6,0,0,3.11,3.38,4.68,1.21,1.57-2.17,7.98-.64,7.98-.64,0,0-2.58-3.53-4.15-4.98s-8.94-3.26-10.21-4.4c-1.83-1.65,8.21-4.06,6.64-5.11-1.57-1.05-11.22-4.16-11.22-4.16,0,0,0-2.17,3.14-2.17s6.29.72,6.29-1.45,7.86-2.17-.79-5.79q-8.65-3.62-10.22-3.62c-1.57,0-7.07.72-3.14-2.17,3.93-2.89,2.98-6.2,6.21-5.27,3.23.93,8.5,2.68,7.83,0-.67-2.68,3.26-3.41-3.03-6.3s-5.85-1.21-9.22-2.78-3.36.61-3.36-1.56,3.14-4.34,5.5-4.34,5.5-2.17,2.36-4.34c-3.14-2.17-7.14.21-9.5-.55-2.36-.77-3.45-2.3-3.45-2.3,0,0-3.56-13.06-4.35-10.16s1.51,10.57-2.42,12.02c-3.93,1.45-11.64.04-10.85,2.94.79,2.89.69-1.21,5.41,1.68s7.07,3.62,5.5,5.06-.79,1.45-5.5,2.89c-4.72,1.45-11.14-.94-6.36,2.78,4.78,3.72,7.93,4.45,8.71,6.62s5.5,2.17-.79,5.79c-6.29,3.62-12.58,4.34-14.15,5.79-.53.48-1.14,1.13-1.43,1.86-2.74-.98-7.41-2.07-12.08-4.75-6.29-3.62-1.57-3.62-.79-5.79s3.93-2.89,8.71-6.62c4.78-3.72-1.64-1.34-6.36-2.78s-3.93-1.45-5.5-2.89.79-2.17,5.5-5.06,5.5-5.06,6.29-7.95-5.5-2.17-9.43-3.62-3.93-2.17-4.72-5.06,1.57-2.89,4.96-9.55c3.39-6.66-1.03-2.74-3.39-6.35-2.36-3.62-.79-2.17,0-3.62s1.57-4.34,3.14-7.95-4.72,1.45-9.43,7.23,0,4.34.79,5.06,2.36,4.34,1.57,8.68-3.14,1.45-6.29,3.62-5.5,2.89-4.72,2.89,7.07,7.23,7.07,7.23c0,0-.79.72-3.14,1.49-2.36.77-4.72,2.12-7.86,4.29s0,4.34,2.36,4.34,5.5,2.17,5.5,4.34,0,0-3.36,1.56-2.93-.12-9.22,2.78c-6.29,2.89-2.36,3.62-3.03,6.3s4.6.93,7.83,0c3.23-.93,2.27,2.38,6.21,5.27s-1.57,2.17-3.14,2.17-1.57,0-10.22,3.62c-8.65,3.62-.79,3.62-.79,5.79s3.14,1.45,6.29,1.45,3.14,2.17,3.14,2.17c0,0-4.72,2.89-6.29,3.94-1.57,1.05-.79.4-3.14,1.12s-4.72,2.89-6.29,4.34-.79,3.62-.79,3.62c0,0,5.5,1.45,7.07,3.62s3.14,1.45,3.14,1.45c0,0-1.57.72-9.43,2.17-7.86,1.45-6.29,3.62-7.86,5.79s0,1.45,2.36,1.45,7.86,3.62,10.22,4.34,0,1.45-2.36,1.45-3.93,1.45-8.65,2.89c-4.72,1.45-3.93,6.51-3.93,6.51,0,0,3.93,2.17,8.65,2.17s3.14,3.62,2.36,4.34-3.14,1.45-4.72,2.17-3.14.72-9.43,2.89c-6.29,2.17-1.57,3.62-1.57,3.62,0,0,3.93,2.17,7.86,2.77s.79,2.29,0,3.74-2.36,1.45-4.72,1.45-7.07,0-7.86,2.89-7.86,8.68-8.65,9.4-13.36-1.45-16.51-10.85c-3.14-9.4,6.29-2.17,12.58-5.06s-3.14-1.45-6.26-1.88c-3.12-.43-6.31-1.02-11.82-8.97-5.5-7.95,4.72-2.89,11.82-5.8,7.1-2.91-1.6-2.88-3.96-4.32-2.36-1.45-7.07,0-7.86-1.45s-.79-2.17,4.72-5.79c5.5-3.62,4.72-3.62,7.1-6.91,2.38-3.29-6.31-2.49-10.24-3.94s-5.5-3.62-5.5-5.79.79-3.62,7.07-5.79c6.29-2.17,5.5-4.34,4.72-7.23s-7.86-2.89-14.15-5.06c-6.29-2.17-3.93-1.45-3.14-5.06s3.93-3.62,6.29-7.23c2.36-3.62-.79-2.17-3.93-4.34-3.14-2.17-1.57-2.17,0-4.31s.79-6.54,0-10.15-4.72,1.45-7.86,2.29-1.57,7.84.75,7.87,1.61,1.42,0,1.21-6.25,7.44-7.82,10.33,2.36,3.62,3.93,4.34,1.57,4.34.79,6.51-1.57,1.45-6.29,2.89-2.36,2.89-5.44,5.25c-3.08,2.35,7.8,2.71,12.52,2.71s.79.72.79,1.97v5.99s-4.72,1.45-11.79,2.17c-7.07.72-3.93,6.51-3.93,6.51,0,0,5.5,2.17,11.79,3.62,6.29,1.45-1.57,2.89-3.31,3.91-1.74,1.02-2.98,1.15-9.27,4.04s-3.14,5.06,0,7.95c3.14,2.89,5.5,5.79,3.2,9.39-2.3,3.6-3.2,5.08-11.85,8.69-8.65,3.62-10.22,2.17-14.94,0s-5.5-2.17-7.07-10.85c-1.57-8.68,3.93-2.17,11.79-5.79,7.86-3.62,3.14-2.17,7.07-7.23,3.93-5.06,0-2.17-5.5-4.34s-6.29-.72-13.36-.72-9.43-5.06-7.86-9.4c1.57-4.34,4.72,1.45,11.01,0s8.65-7.95,7.86-10.85c-.79-2.89-4.72,0-13.36-2.17-8.65-2.17-5.5-2.89-6.29-5.79s7.86-2.17,13.36-4.34c5.5-2.17,3.93-5.06,4.18-7.05.25-1.98-1.82-.18-7.32-1.63-5.5-1.45-2.36,0-4.72-2.17s-2.36-5.79,1.57-8.68,7.86-2.17,12.59-5.27c4.73-3.1-1.59-2.68-5.49-4.41s-3.96-1.17-9.76-3.09c-5.8-1.92-.49-1.69.3-5.31s6.29-5.79,5.79-8.19-.29-1.22-6.9-4.14c-6.61-2.93-2.83-1.41-5.18-5.03s2.36-1.45,7.07-3.62c4.72-2.17,3.93-2.17,3.14-5.06s-5.5-1.45-8.65-5.79,2.36-2.17,3.61-4.32c1.25-2.15,9.75-6.53,9.1-6.26s-6.42-3.16-11.14-6.06-.79-2.17,2.36-4.34c3.14-2.17,7.07-5.06,9.7-8.56s-4.98-4.46-7.34-7.35c-2.36-2.89-2.36-5.79-1.57-8.68s2.36-1.45,4.72-4.34c2.36-2.89.79-1.45-4.72-5.79-5.5-4.34-5.5-2.89-8.65-5.06s2.36-7.23,2.46-9.4c.1-2.17-.89-2.17-2.46-2.17s-2.36.72-5.03,2.17c-2.68,1.45,2.82,5.22,2.82,5.22,0,0-.15,7.07-2.51,9.24s-4.72,2.89-6.29,3.62-.79.72-.79,2.89,7.07,6.51,8.9,5.79-.25,2.17-3.31,2.62c-3.06.45-3.23,1-4.8,4.62s-.79,4.34,0,8.68,5.5,14.46,4.72,18.8-3.93,2.17-9.15,4.36c-5.22,2.19-6.57,4.32-11.29,10.83-4.72,6.51,3.93,4.34,7.86,4.34s2.36,2.17,3.43,5.25-.28,2.71-5.38,3.4c-5.1.69-5.9.76-11.41,2.2s-3.14,3.62-4.65,5.06c-1.51,1.45,6.62,3.86,6.62,3.86,0,0,1.18-.25,3.54-.25s4.57,5.18,4.57,5.18l-2,3.56s-3.35,2.11-10.81,5.51c-7.46,3.41,0,5.56,0,5.56,0,0,5.1,4.05,7.59,3.51s1.44,4.15,1.44,4.15c0,0-3.14,5.79-7.07,7.23s-3.93,2.89-5.5,7.23,0,0,5.5,1.45c5.5,1.45,3.93,2.17,6.29,3.62s-2.36,2.89-6.29,4.34-3.93,1.45-11.01,5.06,2.36,5.06,4.38,5.88c2.02.82,2.69.63,4.67.37,1.97-.26,3.53.98,9.03,5.32,5.5,4.34-3.49,5.39-3.49,5.39,0,0-11.45-.32-10.21,6.28,1.24,6.6,6.62,7.86,9.37,9.97,2.75,2.11-1.97,1.51-4.71,1.48-2.74-.03-3.55,5.82-4.67,9.23s3.48,3.82,6.62,5.26c3.14,1.45-3.93,9.4-3.93,9.4l-18.24,1.22s-10.06-3.38-6.92-6.28,5.5-2.17,14.15-5.06c8.65-2.89-6.55-6.02-6.55-6.02l-14.67-.49s-16.51,4.34-18.87-2.89,0,0,20.44-7.23c20.44-7.23-.79-2.89-2.36-5.79s-7.07-.72-14.15-2.89c-7.07-2.17-5.5-6.51-3.93-11.57s18.87-2.89,23.58-7.95c4.72-5.06-14.15-.72-17.29-7.95s-6.29.72-8.65-1.45,3.14-7.23,5.5-10.12,3.93-3.62,7.86-10.12,0,0-7.07-2.89,2.83-.19-1.57-2.89-5.5-4.34,1.71-10.33c7.21-5.99,2.22-3.41,2.09-6.18-.13-2.77-3.01-3.02-7.73-9.52-4.72-6.51-1.57-5.79,0-13.02s3.14-6.51,0-23.14-3.14-4.34-6.81-3.34c-3.66.99-3.32,11.65-3.32,11.65l-2.45,22.79s-.79,13.02-11.01,18.08c-10.22,5.06-1.57,5.79-1.57,7.95s-7.28,4.52.79,8.68-4.72,8.68-6.29,10.12,11.79,2.89,11.79,5.79-8.65,1.15-3.14,8.68c5.5,7.52,3.93,7.95,3.93,7.95,0,0-2.36.72-9.43,1.45-7.07.72-14.15,5.06-14.94,9.4s15.72,4.34,24.37,7.31c8.65,2.97,0,4.26,0,4.26,0,0-7.07,0-18.87,10.12-11.79,10.12,7.07,8.68,8.65,8.68s3.14,6.51-3.4,10.12c-6.54,3.62-5.25.72-12.33,0-7.07-.72-10.22.72-22.8-12.29-12.58-13.02,10.22-1.45,18.87-3.62,8.65-2.17,2.36-5.79-3.14-8.68s-3.93,0-11.79-2.89-4.72-2.17-9.43-12.29,7.86,0,20.44-1.45c12.58-1.45,11.01-6.51,14.94-11.57,3.93-5.06-5.5-2.17-13.36-2.17s-12.58-2.89-20.44-7.23c-7.86-4.34.79-2.17,4.72-4.34,3.93-2.17,9.43-4.34,12.58-10.12s-3.14-2.17-5.91-3.43c-2.76-1.26-9.81-2.35-13.74-3.8-3.93-1.45-1.57-2.89-1.14-4.87.43-1.98,5.85-2.36,11.36-5.97,5.5-3.62,0,0-1.57-1.45s-5.5,0-11.79-1.65,0-1.96,3.14-5.58,3.14-.72,10.22-4.66,1.57-4.02,0-6.19-9.35-1.45-9.35-1.45c0,0-8.73-.72-8.19-4.26.54-3.54,1.04-2.25,4.98-6.59,3.95-4.34,6.27-1.45,8.63-4.34s-.79-2.17-4.72-3.62-7.07-2.89-10.22-4.74-3.14-2.49-4.53-7.53c-1.39-5.04,3.75-5.08,8.03-6.26,4.28-1.18,2.01-5.33,4.37-7.88s-4.77-.46-4.77-.46l-4.82-4.47,4.82-8.11s-2.31-9.73-1.77-15.8c.54-6.08-9.97,2.46-12.48,3.91-2.51,1.45-9.43,11.9-9.43,11.9,0,0,.15,2.57,6.42,10.9,6.27,8.33-3.13,1.8-6.19,8.38-3.06,6.59-4.8,10.05-6.37,16.56s2.36,5.06,5.46,9.52-2.31.6-6.54,2.05c-4.23,1.45-2.06,5.06-2.06,6.51s3.93,2.17,6.23,2.66c2.3.49,1.63,6.74-.73,9.63s0,0-4.65.84c-4.65.84-4,7.84-4,12.18,0,0,18.08,10.12,9.37,11.69-8.71,1.57-7.8,4.94-14.88,8.55-7.07,3.62,7.86,5.06,7.86,5.06,0,0,7.07,8.68-2.36,10.85s-7.07,4.34-10.22,9.4,4.72,2.89,13.36,5.06c8.65,2.17,4.72,4.34,4.72,5.79s-3.93,3.62-14.15,7.95c-10.22,4.34-3.93,6.51,0,9.4,3.93,2.89,3.14,2.17,6.29,5.06,3.14,2.89-1.57,2.89-8.65,5.79-7.07,2.89-5.5.72-17.29-2.17s-12.58-5.79-20.44-11.57c-7.86-5.79,3.93-.72,16.51-4.52,12.58-3.8,1.57,1.63,0-16.45-.22-2.56-.35-4.46-.42-5.83-.24.83-.71,1.37-1.6.86-3.58-2.08-8.99-1.54-19.35-9.97-10.35-8.43,2.49-2.42,7.21-3.86,4.72-1.45-8.65-10.85-7.21-14.23s7.21-3.85,15.49-10.89c8.28-7.04,1.94-3.8-6.82-9.08-8.76-5.27-7.74-1.96-18.87-9.08-11.12-7.11,5.62-.84,10.3-6.04,4.68-5.2-9.4-9.26-6.69-10.02,2.71-.76,3.58-3.58,9.08-5.75,5.5-2.17,5.5-6.51,1.57-8.68s-13.36-5.06-18.28-7.3c-4.92-2.24,4.13-2.82,7.63-8.34,3.5-5.51-2.71-.27-8.21-4.61-5.5-4.34,0-5.06,1.79-8.2,1.79-3.14,4.5-6.99,2.93-12.05s-1.57-5.06-9.43-10.12c-7.86-5.06-.79-5.79,2.09-15.19,2.88-9.4-1.3,0-2.09,0s-5.5,3.62-9.43,6.51,1.57,10.85,5.47,14.64c3.9,3.79-2.33,4.17-8.62,9.95-6.29,5.79,3.14,7.95,4.23,10.74,1.09,2.78-3.45,1.56-8.95,5.3s0,6.38,0,9.29,7.86,3.6,11.79,4.32c3.93.72,0,0-7.86,2.17-7.86,2.17-3.93,1.45-23.58,2.89-19.65,1.45,9.43,6.51,23.38,10.85,0,0-1.37,1.45-5.3,3.58-3.93,2.14-3.93,4.37-5.92,8.91-1.98,4.54.41,1.97,5.92,3.69,5.5,1.72,8.65,6.23,11.01,9.12,2.36,2.89-1.57,4.34-2.09,4.92-.52.58-7.34.87-10.49.14-3.14-.72-5.5,1.45-9.43,3.62-1.65.91-2.19,1.7-2.44,2.67-1.95-.7-4.08-1.59-6.21-2.82-6.29-3.62-1.57-3.62-.79-5.79s3.93-2.89,8.71-6.62c4.78-3.72-1.64-1.34-6.36-2.78s-3.93-1.45-5.5-2.89.79-2.17,5.5-5.06,5.5-5.06,6.29-7.95-5.5-2.17-9.43-3.62-3.93-2.17-4.72-5.06,1.57-2.89,4.96-9.55c3.39-6.66-1.03-2.74-3.39-6.35s-.79-2.17,0-3.62,1.57-4.34,3.14-7.95-4.72,1.45-9.43,7.23,0,4.34.79,5.06,2.36,4.34,1.57,8.68c-.79,4.34-3.14,1.45-6.29,3.62s-5.5,2.89-4.72,2.89,7.07,7.23,7.07,7.23c0,0-.79.72-3.14,1.49-2.36.77-4.72,2.12-7.86,4.29s0,4.34,2.36,4.34,5.5,2.17,5.5,4.34,0,0-3.36,1.56c-3.36,1.56-2.93-.12-9.22,2.78s-2.36,3.62-3.03,6.3,4.6.93,7.83,0c3.23-.93,2.27,2.38,6.21,5.27,3.93,2.89-1.57,2.17-3.14,2.17s-1.57,0-10.22,3.62c-8.65,3.62-.79,3.62-.79,5.79s3.14,1.45,6.29,1.45,3.14,2.17,3.14,2.17c0,0-4.72,2.89-6.29,3.94-1.57,1.05-.79.4-3.14,1.12s-4.72,2.89-6.29,4.34-.79,3.62-.79,3.62c0,0,5.5,1.45,7.07,3.62s3.14,1.45,3.14,1.45c0,0-1.57.72-9.43,2.17s-6.29,3.62-7.86,5.79,0,1.45,2.36,1.45,7.86,3.62,10.22,4.34,0,1.45-2.36,1.45-3.93,1.45-8.65,2.89-3.93,6.51-3.93,6.51c0,0,3.93,2.17,8.65,2.17s3.14,3.62,2.36,4.34-3.14,1.45-4.72,2.17-3.14.72-9.43,2.89c-6.29,2.17-1.57,3.62-1.57,3.62,0,0,3.93,2.17,7.86,2.77,3.93.6.79,2.29,0,3.74s-2.36,1.45-4.72,1.45-7.07,0-7.86,2.89c-.79,2.89-7.86,8.68-8.65,9.4s-13.36-1.45-16.51-10.85,6.29-2.17,12.58-5.06c6.29-2.89-3.14-1.45-6.26-1.88s-6.31-1.02-11.82-8.97c-5.5-7.95,4.72-2.89,11.82-5.8,7.1-2.91-1.6-2.88-3.96-4.32s-7.07,0-7.86-1.45-.79-2.17,4.72-5.79,4.72-3.62,7.1-6.91c2.38-3.29-6.31-2.49-10.24-3.94s-5.5-3.62-5.5-5.79.79-3.62,7.07-5.79c6.29-2.17,5.5-4.34,4.72-7.23s-7.86-2.89-14.15-5.06c-6.29-2.17-3.93-1.45-3.14-5.06s3.93-3.62,6.29-7.23c2.36-3.62-.79-2.17-3.93-4.34s-1.57-2.17,0-4.31.79-6.54,0-10.15-4.72,1.45-7.86,2.29c-3.14.84-1.57,7.84.75,7.87s1.61,1.42,0,1.21-6.25,7.44-7.82,10.33,2.36,3.62,3.93,4.34,1.57,4.34.79,6.51-1.57,1.45-6.29,2.89-2.36,2.89-5.44,5.25c-3.08,2.35,7.8,2.71,12.52,2.71s.79.72.79,1.97v5.99s-4.72,1.45-11.79,2.17c-7.07.72-3.93,6.51-3.93,6.51,0,0,5.5,2.17,11.79,3.62,6.29,1.45-1.57,2.89-3.31,3.91s-2.98,1.15-9.27,4.04-3.14,5.06,0,7.95,5.5,5.79,3.2,9.39c-2.3,3.6-3.2,5.08-11.85,8.69-8.65,3.62-10.22,2.17-14.94,0-4.72-2.17-5.5-2.17-7.07-10.85s3.93-2.17,11.79-5.79c7.86-3.62,3.14-2.17,7.07-7.23s0-2.17-5.5-4.34-6.29-.72-13.36-.72-9.43-5.06-7.86-9.4,4.72,1.45,11.01,0c6.29-1.45,8.65-7.95,7.86-10.85s-4.72,0-13.36-2.17c-8.65-2.17-5.5-2.89-6.29-5.79s7.86-2.17,13.36-4.34c5.5-2.17,3.93-5.06,4.18-7.05.25-1.98-1.82-.18-7.32-1.63-5.5-1.45-2.36,0-4.72-2.17-2.36-2.17-2.36-5.79,1.57-8.68,3.93-2.89,7.86-2.17,12.59-5.27,4.73-3.1-1.59-2.68-5.49-4.41-3.9-1.72-3.96-1.17-9.76-3.09-5.8-1.92-.49-1.69.3-5.31s6.29-5.79,5.79-8.19-.29-1.22-6.9-4.14c-6.61-2.93-2.83-1.41-5.18-5.03-2.36-3.62,2.36-1.45,7.07-3.62s3.93-2.17,3.14-5.06-5.5-1.45-8.65-5.79c-3.14-4.34,2.36-2.17,3.61-4.32,1.25-2.15,9.75-6.53,9.1-6.26s-6.42-3.16-11.14-6.06-.79-2.17,2.36-4.34,7.07-5.06,9.7-8.56-4.98-4.46-7.34-7.35c-2.36-2.89-2.36-5.79-1.57-8.68s2.36-1.45,4.72-4.34.79-1.45-4.72-5.79-5.5-2.89-8.65-5.06,2.36-7.23,2.46-9.4c.1-2.17-.89-2.17-2.46-2.17s-2.36.72-5.03,2.17c-2.68,1.45,2.82,5.22,2.82,5.22,0,0-.15,7.07-2.51,9.24s-4.72,2.89-6.29,3.62-.79.72-.79,2.89,7.07,6.51,8.9,5.79-.25,2.17-3.31,2.62c-3.06.45-3.23,1-4.8,4.62s-.79,4.34,0,8.68,5.5,14.46,4.72,18.8c-.79,4.34-3.93,2.17-9.15,4.36s-6.57,4.32-11.29,10.83,3.93,4.34,7.86,4.34,2.36,2.17,3.43,5.25-.28,2.71-5.38,3.4c-5.1.69-5.9.76-11.41,2.2s-3.14,3.62-4.65,5.06c-1.51,1.45,6.62,3.86,6.62,3.86,0,0,1.18-.25,3.54-.25s4.57,5.18,4.57,5.18l-2,3.56s-3.35,2.11-10.81,5.51c-7.46,3.41,0,5.56,0,5.56,0,0,5.1,4.05,7.59,3.51s1.44,4.15,1.44,4.15c0,0-3.14,5.79-7.07,7.23s-3.93,2.89-5.5,7.23,0,0,5.5,1.45c5.5,1.45,3.93,2.17,6.29,3.62,2.36,1.45-2.36,2.89-6.29,4.34s-3.93,1.45-11.01,5.06c-7.07,3.62,2.36,5.06,4.38,5.88,2.02.82,2.69.63,4.67.37,1.97-.26,3.53.98,9.03,5.32s-3.49,5.39-3.49,5.39c0,0-11.45-.32-10.21,6.28,1.24,6.6,6.62,7.86,9.37,9.97,2.75,2.11-1.97,1.51-4.71,1.48-2.74-.03-3.55,5.82-4.67,9.23s3.48,3.82,6.62,5.26c3.14,1.45-3.93,9.4-3.93,9.4l-18.24,1.22s-10.06-3.38-6.92-6.28,5.5-2.17,14.15-5.06c8.65-2.89-6.55-6.02-6.55-6.02l-14.67-.49s-16.51,4.34-18.87-2.89c-2.36-7.23,0,0,20.44-7.23,20.44-7.23-.79-2.89-2.36-5.79s-7.07-.72-14.15-2.89c-7.07-2.17-5.5-6.51-3.93-11.57s18.87-2.89,23.58-7.95-14.15-.72-17.29-7.95c-3.14-7.23-6.29.72-8.65-1.45s3.14-7.23,5.5-10.12,3.93-3.62,7.86-10.12c3.93-6.51,0,0-7.07-2.89s2.83-.19-1.57-2.89-5.5-4.34,1.71-10.33c7.21-5.99,2.22-3.41,2.09-6.18-.13-2.77-3.01-3.02-7.73-9.52-4.72-6.51-1.57-5.79,0-13.02,1.57-7.23,3.14-6.51,0-23.14-3.14-16.63-3.14-4.34-6.81-3.34-3.66.99-3.32,11.65-3.32,11.65l-2.45,22.79s-.79,13.02-11.01,18.08c-10.22,5.06-1.57,5.79-1.57,7.95s-7.28,4.52.79,8.68c8.06,4.15-4.72,8.68-6.29,10.12s11.79,2.89,11.79,5.79-8.65,1.15-3.14,8.68c5.5,7.52,3.93,7.95,3.93,7.95,0,0-2.36.72-9.43,1.45-7.07.72-14.15,5.06-14.94,9.4s15.72,4.34,24.37,7.31,0,4.26,0,4.26c0,0-7.07,0-18.87,10.12s7.07,8.68,8.65,8.68,3.14,6.51-3.4,10.12c-6.54,3.62-5.25.72-12.33,0-7.07-.72-10.22.72-22.8-12.29-12.58-13.02,10.22-1.45,18.87-3.62s2.36-5.79-3.14-8.68c-5.5-2.89-3.93,0-11.79-2.89s-4.72-2.17-9.43-12.29,7.86,0,20.44-1.45c12.58-1.45,11.01-6.51,14.94-11.57s-5.5-2.17-13.36-2.17-12.58-2.89-20.44-7.23c-7.86-4.34.79-2.17,4.72-4.34s9.43-4.34,12.58-10.12c3.14-5.79-3.14-2.17-5.91-3.43-2.76-1.26-9.81-2.35-13.74-3.8s-1.57-2.89-1.14-4.87c.43-1.98,5.85-2.36,11.36-5.97,5.5-3.62,0,0-1.57-1.45s-5.5,0-11.79-1.65,0-1.96,3.14-5.58,3.14-.72,10.22-4.66,1.57-4.02,0-6.19-9.35-1.45-9.35-1.45c0,0-8.73-.72-8.19-4.26.54-3.54,1.04-2.25,4.98-6.59,3.95-4.34,6.27-1.45,8.63-4.34s-.79-2.17-4.72-3.62-7.07-2.89-10.22-4.74-3.14-2.49-4.53-7.53c-1.39-5.04,3.75-5.08,8.03-6.26,4.28-1.18,2.01-5.33,4.37-7.88s-4.77-.46-4.77-.46l-4.82-4.47,4.82-8.11s-2.31-9.73-1.77-15.8c.54-6.08-9.97,2.46-12.48,3.91-2.51,1.45-9.43,11.9-9.43,11.9,0,0,.15,2.57,6.42,10.9,6.27,8.33-3.13,1.8-6.19,8.38-3.06,6.59-4.8,10.05-6.37,16.56s2.36,5.06,5.46,9.52c3.1,4.46-2.31.6-6.54,2.05-4.23,1.45-2.06,5.06-2.06,6.51s3.93,2.17,6.23,2.66c2.3.49,1.63,6.74-.73,9.63s0,0-4.65.84c-4.65.84-4,7.84-4,12.18,0,0,18.08,10.12,9.37,11.69-8.71,1.57-7.8,4.94-14.88,8.55s7.86,5.06,7.86,5.06c0,0,7.07,8.68-2.36,10.85-9.43,2.17-7.07,4.34-10.22,9.4s4.72,2.89,13.36,5.06,4.72,4.34,4.72,5.79-3.93,3.62-14.15,7.95c-10.22,4.34-3.93,6.51,0,9.4s3.14,2.17,6.29,5.06-1.57,2.89-8.65,5.79-5.5.72-17.29-2.17-12.58-5.79-20.44-11.57c-7.86-5.79,3.93-.72,16.51-4.52,12.58-3.8,1.57,1.63,0-16.45-.22-2.56-.35-4.46-.42-5.83-.24.83-.71,1.37-1.6.86-3.58-2.08-8.99-1.54-19.35-9.97-10.35-8.43,2.49-2.42,7.21-3.86,4.72-1.45-8.65-10.85-7.21-14.23s7.21-3.85,15.49-10.89c8.28-7.04,1.94-3.8-6.82-9.08-8.76-5.27-7.74-1.96-18.87-9.08s5.62-.84,10.3-6.04c4.68-5.2-9.4-9.26-6.69-10.02,2.71-.76,3.58-3.58,9.08-5.75,5.5-2.17,5.5-6.51,1.57-8.68-3.93-2.17-13.36-5.06-18.28-7.3s4.13-2.82,7.63-8.34c3.5-5.51-2.71-.27-8.21-4.61-5.5-4.34,0-5.06,1.79-8.2,1.79-3.14,4.5-6.99,2.93-12.05s-1.57-5.06-9.43-10.12c-7.86-5.06-.79-5.79,2.09-15.19,2.88-9.4-1.3,0-2.09,0s-5.5,3.62-9.43,6.51,1.57,10.85,5.47,14.64c3.9,3.79-2.33,4.17-8.62,9.95-6.29,5.79,3.14,7.95,4.23,10.74,1.09,2.78-3.45,1.56-8.95,5.3s0,6.38,0,9.29,7.86,3.6,11.79,4.32,0,0-7.86,2.17c-7.86,2.17-3.93,1.45-23.58,2.89-19.65,1.45,9.43,6.51,23.38,10.85,0,0-1.37,1.45-5.3,3.58-3.93,2.14-3.93,4.37-5.92,8.91-1.98,4.54.41,1.97,5.92,3.69,5.5,1.72,8.65,6.23,11.01,9.12s-1.57,4.34-2.09,4.92c-.52.58-7.34.87-10.49.14-3.14-.72-5.5,1.45-9.43,3.62s-1.57,3.62-3.93,8.68,2.36,2.17,5.87,3.8c3.51,1.63,2.78,1.26,10.64,2.58s1.57,5.91,0,9.23c-1.57,3.32-1.57,1.74-4.72,3.18-3.14,1.45-5.5.72-12.58,4.57-7.07,3.85-.79,2.66-3.14,9.89-2.36,7.23.79,2.17.79,2.17l10.22,2.89-21.7,12.74v56.51l2.32,233.02h1935.9v-235.89h13.04l-1.11-56.26ZM975.31,831.45c-2.15-.08-4.31-.22-5.97-.18-1.82-1.69-2.52-3.91-3.53-7.63-1.57-5.79,4.72-.72,14.15-1.45,5.91-.45,8.43-2.04,7.35-4.06,2.6-.47,3.8-.31,3.01,2.61-1.57,5.79-2.36,7.95-7.86,10.12-.87.34-2.03.51-3.32.58h-3.83ZM487.56,767.88c.07.33.23.68.4,1.11-.54-.2-.8-.35-.4-1.11ZM491,781.55c0-1.89,2.36-1.93,5.32-2.75l2.54.72-6.3,5.22c-1.06-.86-1.56-1.87-1.56-3.19ZM1457.27,776.64l2.54-.72c2.95.81,5.32.85,5.32,2.75,0,1.32-.5,2.34-1.56,3.19l-6.3-5.22ZM1468.18,766.1c.17-.43.33-.78.4-1.11.39.75.14.91-.4,1.11ZM1473.21,800.55l-.07-3.53c4.06-.1,6.37.14.07,3.53ZM1447.84,744.69c7.86-1.32,7.14-.95,10.64-2.58.22-.1.44-.18.66-.25,7.66,2.03,11.49-.02,11.49,4.26s-12.58,10.12-13.36,10.12-12.58-2.89-4.72,0,9.43,0,13.36,5.06c.46.59.85,1.1,1.19,1.54-.5-.34-1.14-.72-1.97-1.17-7.07-3.85-9.43-3.12-12.58-4.57s-3.14.14-4.72-3.18c-1.57-3.32-7.86-7.91,0-9.23ZM974.46,746.99c3.84-1.06,5.24-2.29,5.48-3.44.52.19,1.09.37,1.74.55,7.86,2.17,5.22.48,5.22,4.82s-6.32,5.62-7.11,5.62-12.26,1.13-4.4,4.02c3.46,1.27,5.7,1.43,7.46,1.63-1.66.16-6.33,1.26-6.82,1.26-.79,0-13.36-5.79-13.36-10.12s3.93-2.17,11.79-4.34ZM980.11,770.13c-1.48.91-3.9,1.53-4.31,2.77-2.51-1.28-8.46-.62-9.98-1.33s-2.36,0,1.57-5.06,5.5-2.17,13.36-5.06c1.85-.68-.4,5.52-.33,5.37,1.93.27,6.33-5.79,8.33-3.2,3.93,5.06,3.14,4.34,1.57,5.06s-7.86,0-10.22,1.45ZM987.97,780.97c0,2.89-2.36,4.34-7.86,5.79-3.31.87-7.47.43-9.24,1.05-1.85-1-2.7-2.21-2.7-3.94,0-2.89,5.5-1.45,10.22-5.06.76-.59,1.28-1.1,1.6-1.55,4.06,1.91,7.98,1.27,7.98,3.71ZM968.96,801.95c4.11-1.08,3.31,2.31,7.09-.28,2.05.75,9.04-3.17,11.14-2.62,5.5,1.45,10.83-2.39-1.75,4.12-12.58,6.51-2.18,4.56-10.83,8.18-.25.1-.49.21-.72.31-2.73-.75-5.54-1.62-12.79-5.37-12.58-6.51,2.36-2.89,7.86-4.34ZM496.99,744.75c.22.07.45.15.66.25,3.51,1.63,2.78,1.26,10.64,2.58s1.57,5.91,0,9.23c-1.57,3.32-1.57,1.74-4.72,3.18s-5.5.72-12.58,4.57c-.83.45-1.47.83-1.97,1.17.34-.45.73-.95,1.19-1.54,3.93-5.06,5.5-2.17,13.36-5.06,7.86-2.89-3.93,0-4.72,0s-13.36-5.79-13.36-10.12,3.84-2.23,11.49-4.26ZM483,799.91l-.07,3.53c-6.3-3.39-3.99-3.63.07-3.53Z"/>
      </g>
      <line class="cls-1" x1="15.34" y1="783.32" x2="15.34"/>
    </g>
  </g>
</svg>