<?xml version="1.0" encoding="UTF-8"?>
<svg id="Layer_2" xmlns="http://www.w3.org/2000/svg" viewBox="0 0 1367.13 658.44">
  <defs>
    <style>
      .cls-1, .cls-2 {
        stroke-miterlimit: 10;
        stroke-width: 1.04px;
      }

      .cls-1, .cls-2, .cls-3 {
        fill: #fff;
      }

      .cls-1, .cls-2, .cls-3, .cls-4 {
        stroke: #000;
      }

      .cls-1, .cls-3, .cls-4, .cls-5 {
        stroke-linecap: round;
      }

      .cls-3 {
        stroke-width: 1.01px;
      }

      .cls-3, .cls-4, .cls-5 {
        stroke-linejoin: round;
      }

      .cls-4 {
        stroke-width: 1.13px;
      }

      .cls-4, .cls-5 {
        fill: none;
      }

      .cls-5 {
        stroke: #fff;
        stroke-width: .91px;
      }
    </style>
  </defs>
  <g id="Layer_1-2" data-name="Layer_1">
    <g>
      <g>
        <line class="cls-4" x1=".57" y1="571.05" x2="1366.57" y2="571.05"/>
        <path d="M647.78,499.6h64.71v32.35c0,17.86-14.5,32.35-32.35,32.35h0c-17.86,0-32.35-14.5-32.35-32.35v-32.35h0Z"/>
        <path d="M695.84,560.51l19.56,52.2c.72,1.92-.25,4.06-2.18,4.78h0c-1.92.72-4.06-.25-4.78-2.18l-19.56-52.2"/>
        <path d="M663.7,559.9l-19.82,52.81c-.72,1.92.25,4.06,2.18,4.78h0c1.92.72,4.06-.25,4.78-2.18l19.8-52.84"/>
        <path d="M676.42,563.47v63.31c0,2.3,1.66,4.16,3.72,4.16h0c2.05,0,3.72-1.86,3.72-4.16v-62.47"/>
        <path class="cls-2" d="M742.98,430.64s2.38-5.05,1.3-8.68c-2.08-5.94-19.79-3.02-20.03-7.96-.24-4.93,17.77,2.55,18.66,2.85.89.3,2.55-1.72-1.13-8.5-3.69-6.77-18,3.51-19.01.3s14.73-5.29,15.45-5.05-4.28-8.26-14.26-9.8c-9.6-1.48-14.09,14.96-14.25,17.58-1.57-2.51-12.73-14.79-20.55-9.24-8.24,5.85-8.9,15.68-8.37,15.15s15.54-5.71,16.08-2.39c.53,3.32-16.87.53-17.14,8.24s2.13,8.77,2.79,8.1,13.42-15.41,15.41-10.89c1.99,4.52-15.15,9.83-14.35,16.08.66,3.72,5.05,7.17,5.05,7.17,0,0,6.91-19.4,11.96-15.54,2.52,1.73-9.43,9.17-8.9,16.34,0,2.79,4.25,5.31,4.25,5.31,0,0,.53-5.45,2.39-8.37,1.86-2.92,2.92-6.24,4.78-4.92,1.86,1.33-6.38,11.29-3.32,15.54,3.06,4.25,20.06,6.24,22.72,12.49-.42-6.77,13.41-16.17,14.24-21.33.83-5.17-11-10.39-9.93-12.42,1.07-2.02,3.51.47,6.48,2.26,2.97,1.78,5.88,6.42,5.88,6.42,0,0,2.67-4.16,1.42-6.66-2.74-6.65-16.76-7.96-15.27-10.63,2.79-5.7,17.65,8.55,17.65,8.55Z"/>
        <g>
          <path class="cls-1" d="M670.28,421.81s8.24-11.69-2.66-16.08c-10.89-4.38-18.6,2.26-18.6,2.26,0,0,10.76,6.64,8.64,8.37s-4.25-4.92-8.64-5.71c-4.38-.8-13.29,7.04-13.29,7.04,0,0,14.27-.66,12.52,4.12-1.75,4.78-10.52-2.66-14.11-2.39s-7.57,12.36-7.57,12.36c0,0,13.42-8.9,14.75-4.25s-10.5-4.25-22.72,19.66c.4,0,14.34-6.78,22.98-5.05,0,.13-2.13-6.24.4-6.38s2.21,6.91,2.21,6.91c0,0,14.49,2.44,15.37.31s-.5-12.88.97-13.37c4.25-1.42,2.85,10.23.71,13.29.25.27,35.01-11.34,9.03-21.08Z"/>
          <path class="cls-1" d="M670.28,421.81s-11.45-.62-24.18,7.28"/>
        </g>
        <g>
          <path class="cls-1" d="M689.54,472.64s-8.24-11.69,2.66-16.08c10.89-4.38,18.6,2.26,18.6,2.26,0,0-12.49,5.42-10.36,7.14,2.13,1.73,5.98-3.69,10.36-4.49,4.38-.8,13.29,7.04,13.29,7.04,0,0-14.4-1.63-12.65,3.15,1.75,4.78,10.65-1.69,14.24-1.43,3.59.27,7.57,12.36,7.57,12.36,0,0-11.2-8.09-12.53-3.44-1.33,4.65,8.28-5.06,20.5,18.85-.4,0-14.34-6.78-22.98-5.05,0,.13-3.14-7.47-5.67-7.6s3.05,8.13,3.05,8.13c0,0-14.49,2.44-15.37.31s-1.29-12.49-2.76-12.98c-4.25-1.42-1.06,9.83,1.08,12.89-.25.27-35.01-11.34-9.03-21.08Z"/>
          <path class="cls-1" d="M689.54,472.64s11.45-.62,24.18,7.28"/>
        </g>
        <path class="cls-2" d="M669.73,489.13s5.38-1.47,7.45-4.64c3.17-5.44-10.55-17.01-6.95-20.4,3.6-3.38,9.59,15.17,9.95,16.04.35.87,2.97.82,5.73-6.38,2.76-7.2-14.36-11.41-12.57-14.26s13.59,7.77,13.87,8.47,3.5-8.62-1.81-17.21c-5.11-8.27-20.31-1.84-22.41-.27.89-2.83,2.77-18.45-6.52-20.79-9.79-2.47-17.7,3.41-16.95,3.47s14.44,8.11,12.26,10.67c-2.18,2.56-11.36-12.49-17.39-7.69-6.03,4.8-5.29,7.31-4.35,7.38s20.43.2,18.29,4.65c-2.14,4.45-17.31-5.14-21.54-.48-2.4,2.92-2.18,8.5-2.18,8.5,0,0,19.24-7.34,19.59-1,.33,3.04-13.1-1.22-18.21,3.84-2.12,1.81-1.28,6.68-1.28,6.68,0,0,4.49-3.13,7.92-3.62,3.43-.48,6.65-1.83,6.84.45.2,2.28-12.73,2.48-13.98,7.57-1.25,5.08,8.27,19.31,5.25,25.39,4.88-4.72,21-.29,25.48-3.02,4.47-2.72.77-15.11,3-15.61,2.23-.5,1.92,2.97,2.49,6.39.57,3.42-1.06,8.64-1.06,8.64,0,0,4.9-.67,5.99-3.24,3.29-6.4-4.83-17.91-1.83-18.52,6.15-1.58,4.95,18.98,4.95,18.98Z"/>
        <path class="cls-1" d="M662.99,450.49s-13.83,10.16-18.8,23.1"/>
        <path class="cls-1" d="M676.55,435.34s2.02,5.98,3.15,11.59"/>
        <line class="cls-1" x1="674.64" y1="436.78" x2="677.18" y2="445.83"/>
        <path class="cls-1" d="M671.11,488.67s2.86,9.91,2.86,10.93-2.86,0-2.86,0l-3.75-15.72"/>
        <path class="cls-1" d="M694.16,432.64c-4.19,5.14-8.2,19.09-8.2,19.09"/>
        <path class="cls-1" d="M676.55,485.9c-1.56,4.23-1.91,13.7-1.91,13.7h6.29l1.49-14.19"/>
        <line class="cls-1" x1="688.43" y1="458.5" x2="691.61" y2="445.83"/>
        <polyline class="cls-1" points="684.71 487.29 682.42 499.6 684.71 499.6 685.96 488.12"/>
        <path class="cls-3" d="M712.08,500.01l.41,33.15s-.28,31.15-32.35,31.15c0,0,26.08-6.89,26.08-30.5s-.41-33.8-.41-33.8h6.28Z"/>
      </g>
      <rect class="cls-5" x="106.73" y=".46" width="1169.58" height="657.53"/>
    </g>
  </g>
</svg>