<?xml version="1.0" encoding="UTF-8"?>
<svg id="Layer_2" xmlns="http://www.w3.org/2000/svg" viewBox="0 0 1399.32 2413.79">
  <defs>
    <style>
      .cls-1 {
        stroke-width: .91px;
      }

      .cls-1, .cls-2, .cls-3, .cls-4, .cls-5, .cls-6, .cls-7, .cls-8, .cls-9 {
        stroke-linecap: round;
        stroke-linejoin: round;
      }

      .cls-1, .cls-2, .cls-3, .cls-4, .cls-7, .cls-8, .cls-9 {
        fill: none;
      }

      .cls-1, .cls-2, .cls-4, .cls-9 {
        stroke: #fff;
      }

      .cls-2, .cls-3, .cls-6, .cls-7 {
        stroke-width: .86px;
      }

      .cls-3, .cls-5, .cls-6, .cls-7, .cls-8 {
        stroke: #000;
      }

      .cls-4 {
        stroke-width: 1.07px;
      }

      .cls-5, .cls-6 {
        fill: #fff;
      }

      .cls-5, .cls-8 {
        stroke-width: 1.01px;
      }

      .cls-7 {
        stroke-dasharray: 11.57 11.57;
      }

      .cls-9 {
        stroke-width: .91px;
      }
    </style>
  </defs>
  <g id="Layer_2-2" data-name="Layer_2">
    <g>
      <g>
        <path class="cls-6" d="M544.29,314.86s4-5.05,3.55-6.31-.94-10.15,2.64-15.6,7.17-13.59,8.37-10.29-4.61,11.45-2.31,16.1c.7,1.42,17.61-18.53,17.61-18.53,2.06-2.31,4.83-2.4,2.79,1.77l-8.09,13.11,13.26-12.41c2.07-2.02,4.34-.01,2.27,2l-12.11,13.66,12.51-11.82c2.71-2.39,4.51.25,2.21,2.54l-12.47,13.6,9.92-6.15c2.91-2.43,4.42-.16,2.02,2.72,0,0-14.5,14.37-25.43,18.36-6.34,2.32-9.83,6.56-9.83,6.56l-6.91-9.31Z"/>
        <path class="cls-6" d="M524.06,300.3s9.83-12.5,5.06-24.53c-5.48-13.81,4.03-21.5-1.17-48.12-3.63-18.62-13.98-28.32-22.15-28.83-2.06-.13-4-.92-5.72-2.07-10.29-6.89-35.93-1.91-46.1,12.66-20,28.66-5.2,32.58-15.92,55.51-8.78,18.77,6.34,27.04-3.62,39.35l89.61-3.96Z"/>
        <path class="cls-3" d="M479.57,267.2c24.71,21.38,36.56-12.18,39.35-28.61"/>
        <path class="cls-3" d="M467.87,245.95s-.77,4.65,3.39,15.39"/>
        <path class="cls-3" d="M502.65,244.73c-1.14,3.18-1.74,6.14-1.35,8.69l-2.84-.63"/>
        <path class="cls-3" d="M518.92,238.59c-4.78-1.95-11.56-10.32-13.43-19.62-.23-1.17-1.77-1.41-2.34-.37-5.19,9.37-18.24,19.94-30.87,17.15,0,0-2.45-6.3-6.94-3.06-5.27,3.79-2.49,15.37,2.53,13.27"/>
        <path d="M540.31,312.94c1.4-3.19,5.34-4.34,8.25-2.42l9.61,6.36c2.19,1.45,3.29,2.02,2.68,3.38l-18.29,46.81c-12.84,35.1-29.38,20.16-41.66,20.55l3.96-12.52c.05-.14,35.46-62.16,35.46-62.16Z"/>
        <path class="cls-3" d="M469.61,256.92c2.5,4.48,4.81,29.48-2.09,35.21,0,0,18.75,12.27,34.14-.45-3.1-2.97-5.41-14.11-4.3-16.98"/>
        <path class="cls-3" d="M478.24,215.29c-3.78,6.29-5.9,9.9-13.62,13.53-4.97,2.55-5.46,10.93-8.47,14.56"/>
        <path class="cls-3" d="M448.49,249.76c3.16,9.47-4.16,11.01-1.31,18.03,2.73,6.73-2.07,8.81-1.33,13.81"/>
        <path d="M519,276.54c.86-4.56-3.35-8.96-1.34-13.66,2.02-4.7,3.03-5.09,3.55-12.34s-2.01-12.08-2.01-12.08c-.16-.03-3.85,30.15-22.84,35.6-.71,2.89,2.43,9.37,4.93,19.44,0,.67,3.46,3.08,11.65,2.79,0,0,5.2-15.19,6.06-19.75Z"/>
        <path class="cls-3" d="M463.05,214.72c-4.12,4.05-11.28,14.23-11.14,23.77"/>
        <path class="cls-3" d="M523.2,234.34c1.79,5.66,2.03,13.51,1.41,18.1"/>
        <path class="cls-3" d="M487.45,238.59s1.47-4,5.04-3.22,2.9,4.97,2.9,4.97"/>
        <path d="M520.2,429.11l-.59-11.79-2.76-36.38s14.46-59.28,11.59-73.36c-3.69-18.12-25.28-16.93-25.28-16.93,0,0-2.77-11-2.84-15.59-8.82,6.34-33.62-1.83-33.62-1.83l-4.25,15.53s-44.67,1.13-37.98,44.63c6.39,41.53,16.08,143.18,14.07,143.58,1.5-12.28,5.13-35.13,8.96-46.74l72.7-1.12Z"/>
        <path class="cls-3" d="M507.37,243.63s1.29-3.51,4.42-2.82,2.55,4.36,2.55,4.36"/>
        <path class="cls-3" d="M489.39,257.87c1.98,4.81,10.14,6.76,12.98,2.08"/>
        <path class="cls-2" d="M447.54,329.24c5.94,51.96.97,83.85.74,101.51"/>
        <path class="cls-2" d="M520.36,429.11c-1.38-21.53-6.55-56.05-.41-71.03,4.26-9.3,9.49-12.13,5.9-24.02-3.89-12.91-7.15-18.75-7.15-18.75"/>
        <path d="M469.51,288.86l2.01-8.92.6-1.57s1.89-12.25-1.17-19.02-3.08-13.4-3.08-13.4c0,0-.76-.59-4.82,3.45s-.73,11.79.4,14.43,2.57,7.56.13,10.71-2.2,10.6-.29,13.39,6.23.93,6.23.93Z"/>
        <path class="cls-2" d="M455.19,289c4.23-1.53,5.86-1.06,8.66-.42l2.39-10.9c.24-1.24,1.47-2.04,2.7-1.73,5.77,1.43,21.25,4.75,29.86,1.69,1.51-.54,3.13.47,3.3,2.07.39,3.75,1.17,9.42,2.53,11.98,0,0,9.55-2.87,18.33,4.63"/>
        <path class="cls-3" d="M520.91,297.72s-4.4-7.54.39-12.75c3.2-3.48,3.71-7.34,2.04-11.42-1.36-3.34-3.79-7.11-2.1-11.38"/>
        <line class="cls-2" x1="469.9" y1="276.18" x2="467.1" y2="291.18"/>
        <line class="cls-2" x1="473.04" y1="277" x2="470.88" y2="292"/>
        <line class="cls-2" x1="476.18" y1="277.83" x2="474.53" y2="292.83"/>
        <line class="cls-2" x1="479.32" y1="278.65" x2="478.24" y2="293.44"/>
        <line class="cls-2" x1="498.76" y1="277.98" x2="500.92" y2="292.98"/>
        <line class="cls-2" x1="495.38" y1="278.92" x2="497.54" y2="293.92"/>
        <line class="cls-2" x1="492.24" y1="279.16" x2="493.91" y2="294.16"/>
        <line class="cls-2" x1="489.25" y1="279.2" x2="490.02" y2="294.65"/>
        <line class="cls-2" x1="486.12" y1="279.14" x2="486.12" y2="294.5"/>
        <line class="cls-2" x1="482.95" y1="278.95" x2="482.1" y2="293.92"/>
        <path class="cls-3" d="M454.05,276.3c.59,2.27,2.02,5.22,1.26,8.26s-2.44,4.63-2.44,7.16"/>
        <line class="cls-2" x1="545.5" y1="308.92" x2="537.78" y2="325.56"/>
        <line class="cls-2" x1="549.42" y1="311.16" x2="541.7" y2="327.8"/>
        <line class="cls-2" x1="553.08" y1="313.34" x2="545.36" y2="329.99"/>
        <line class="cls-2" x1="556.86" y1="315.63" x2="549.14" y2="332.27"/>
        <line class="cls-2" x1="560.09" y1="317.53" x2="552.84" y2="334.1"/>
        <path class="cls-5" d="M520.36,429.11l39.37,293.19h-49.83l-23.33-224.89c-.06-.55-.86-.53-.9.02l-14.03,224.88h-51.34s11.93-200.47,15.05-222.42c4.33-30.46,7.78-53.38,12.3-68.62"/>
        <line class="cls-1" x1="459.18" y1="416.92" x2="459.18" y2="431.2"/>
        <line class="cls-1" x1="463.46" y1="416.92" x2="463.46" y2="431.2"/>
        <line class="cls-1" x1="467.75" y1="416.92" x2="467.75" y2="431.2"/>
        <line class="cls-1" x1="472.03" y1="416.92" x2="472.03" y2="431.2"/>
        <line class="cls-1" x1="476.31" y1="416.92" x2="476.31" y2="431.2"/>
        <line class="cls-1" x1="480.59" y1="416.92" x2="480.59" y2="431.2"/>
        <line class="cls-1" x1="484.87" y1="416.92" x2="484.87" y2="431.2"/>
        <line class="cls-1" x1="489.15" y1="416.92" x2="489.15" y2="431.2"/>
        <line class="cls-1" x1="493.43" y1="416.92" x2="493.43" y2="431.2"/>
        <line class="cls-1" x1="497.71" y1="416.92" x2="497.71" y2="431.2"/>
        <line class="cls-1" x1="501.99" y1="416.92" x2="501.99" y2="431.2"/>
        <line class="cls-1" x1="506.27" y1="416.92" x2="506.27" y2="431.2"/>
        <line class="cls-1" x1="510.56" y1="416.92" x2="510.56" y2="431.2"/>
        <line class="cls-1" x1="514.45" y1="416.93" x2="514.84" y2="431.2"/>
        <line class="cls-9" x1="517.88" y1="416.9" x2="518.54" y2="431.22"/>
        <line class="cls-8" x1="486.02" y1="431.64" x2="486.02" y2="460.01"/>
        <g>
          <path class="cls-3" d="M424.64,722.3s.11-2.13.32-5.98"/>
          <path class="cls-7" d="M425.57,704.77c2.58-48.05,9.8-179.45,12.42-197.02,2.12-14.28,6.53-36.8,9.27-50.39"/>
          <path class="cls-3" d="M448.41,451.69c.75-3.66,1.21-5.87,1.21-5.87,2-.57,3.81-1.4,5.41-2.52"/>
          <path class="cls-3" d="M460.38,436.93c.82-1.66,1.46-3.54,1.92-5.67"/>
        </g>
        <line class="cls-1" x1="454.9" y1="417.03" x2="454.9" y2="431.31"/>
        <line class="cls-1" x1="450.78" y1="417.03" x2="450.78" y2="431.31"/>
        <path class="cls-5" d="M470.06,740.44l-50.98.19c-1.89,0-3.37-1.62-3.19-3.5l1.41-14.6,56.42-.22-.22,14.72c-.03,1.88-1.56,3.39-3.44,3.4Z"/>
        <path class="cls-5" d="M562.07,740.41h-51.62c-1.47,0-2.65-1.2-2.63-2.67l.25-15.4,54.02-.03,3.34,13.83c.53,2.18-1.12,4.27-3.36,4.27Z"/>
        <path class="cls-3" d="M444.72,442.89s7.58-.68,10.71-5.85c3.13-5.17,3.42-6.6,3.42-6.6l-11.75.32-2.38,12.13Z"/>
        <path class="cls-3" d="M468.79,241.43s1.68-6.16-1.91-7.22"/>
        <path d="M436.88,740.41l-1.02,10.29s-5.39,5.98-10.93,9.04c-5.54,3.06-6.27,11.95-6.27,11.95h39.64s1.46-9.04-3.64-17.93v-13.35h-17.78Z"/>
        <path d="M523.67,740.41l3.06,30.19h62.96s-7.21-15.52-42.63-19.02c.22.87-2.19-11.17-2.19-11.17h-21.2Z"/>
        <polygon points="486.61 497.76 520.26 721.84 509.91 722.3 486.61 497.76"/>
        <path d="M523.67,722.3l3.15,18.11h-16.81c-1.22,0-2.21-1-2.19-2.23l.26-15.84,15.59-.03Z"/>
        <rect class="cls-4" x="31.49" y=".53" width="1366" height="771.15"/>
      </g>
      <rect x="0" y="767.07" width="1399.32" height="1646.1"/>
    </g>
  </g>
</svg>