<?xml version="1.0" encoding="UTF-8"?>
<svg id="Layer_2" xmlns="http://www.w3.org/2000/svg" viewBox="0 0 1932.79 1480.83">
  <g id="Layer_6">
    <path d="M1.28,898.04l-1.28,582.79h1932.79v-697.08l-26.32,2.34-48.6,73.01-52.41,14.25v-236.07s.6-2.41,1.41-2.9c.8-.48,6.83,4.02,7.03,5.31.2,1.29-2.21,9.01-2.41,13.36-.2,4.35,7.83,5.63,9.84,5.31,2.01-.32,6.23-3.86,8.24-6.92,2.01-3.06,7.03-4.18,11.45-5.47,4.42-1.29,6.23,3.38,7.43,6.6,1.2,3.22,7.43,4.18,14.66,3.54,7.23-.64,4.42-6.12,11.45-7.56,7.03-1.45,4.82,8.53,9.04,10.14,4.22,1.61,5.42-2.9,11.05-3.38,5.62-.48,7.63,4.02,13.66,5.15,6.03,1.13,8.44-.97,12.85-4.67,4.42-3.7-1.41-10.94-5.62-14.16-4.22-3.22-28.12-28.33-30.33-31.06-2.21-2.74-25.91-3.7-35.95-2.41-10.04,1.29-43.45-7.24-43.45-7.24v-70.6c0-.64,8.57-1.29,13.66,3.22,5.09,4.51,5.09,7.51,9.11,5.15,4.02-2.36,7.77,6.87,11.52,9.01,3.75,2.15,10.18-5.36,14.19-10.52,4.02-5.15,11.52.64,16.34-.64s6.16,6.22,12.32,7.3c6.16,1.07,8.3-.21,12.59-4.29,4.29-4.08,4.55-9.23,10.98-4.29,6.43,4.94,18.48,7.94,21.69,6.87,3.21-1.07-.54-17.17,3.48-21.89.29-.34.67-.52,1.12-.59v-41.72c-3.53.06-6.61.11-8.89.03-11.78-.43-23.57-15.45-30-18.88-6.43-3.43-13.66-9.44-19.82-17.81-6.16-8.37-26.78-10.52-36.69-15.67-9.91-5.15-28.12-15.67-28.12-15.67v-9.44s5.09-2.15,6.43,1.5c1.34,3.65,10.71,9.23,13.12,8.15,2.41-1.07,6.16,3.65,10.44,9.23,4.29,5.58,20.89,5.58,30,4.94,9.11-.64-6.96-7.3,2.68-9.87,9.64-2.58,16.34,17.6,23.03,16.31,6.7-1.29-1.61-9.44,3.21-11.16,4.82-1.72,12.59,12.23,19.28,11.59s-1.61-19.31-.27-24.89c1.34-5.58,11.52-3,11.78-7.73.27-4.72-72.04-33.91-76.59-41.85-4.55-7.94-17.14-10.94-21.96-8.37-4.82,2.58-21.16-13.73-21.16-13.73v-28.48c.26.1,1.01.14,2.95-.06,4.02-.43,6.7,14.38,6.7,20.17s6.7,8.58,10.18,10.94c3.48,2.36,8.57-1.72,10.71-4.08,2.14-2.36,15.27,3,17.68-.21,2.41-3.22-15.53-11.59-9.91-16.74,5.62-5.15,29.73,22.53,31.6,21.46,1.87-1.07-1.87-9.44.54-12.88,2.41-3.43,17.14,12.66,23.03,10.3,5.89-2.36-8.84-36.48-3.48-43.56,4.83-6.39,24.93,16.39,33.53,12.87v-8.88c-10.43-9.3-45.88-18.66-52.54-19.87-8.3-1.5-17.14-15.02-19.01-19.1-1.87-4.08-45.26-19.74-45.26-19.74,0,0,0-2.15.54-6.01.54-3.86,12.05,6.01,16.34,7.51,4.28,1.5-1.07-9.01,3.48-13.09,4.55-4.08,16.87,8.15,18.48,4.72,1.61-3.43-20.09-15.88-21.96-19.1-1.87-3.22-19.01-14.38-19.82-14.38s1.87-3.43,6.16-4.94c4.29-1.5,24.91,25.54,29.19,24.89,4.29-.64-5.62-19.74-1.34-22.1,4.29-2.36,26.25,10.09,38.83,10.09s13.93-8.37,14.73-13.73c.8-5.36-16.6-10.73-16.6-14.59s15.53,7.3,20.89,6.22c5.36-1.07,0-7.08-.27-18.03-.27-10.94-23.3-17.17-24.91-20.82-1.61-3.65,6.7-1.5,10.18-4.72,3.48-3.22-8.57-5.15-20.09-12.23-11.52-7.08-32.94-5.79-41.24-6.01-8.3-.21-17.14-20.39-17.14-27.04s15,3.43,19.28,4.51c4.29,1.07,6.96,1.93-.54-12.88-7.5-14.81-23.03-7.08-23.03-7.08,0,0,.27-6.22.27-9.01s21.69,1.5,24.1-2.15c2.41-3.65-26.25-17.38-26.25-17.38,0,0-.27-4.51-.54-7.08-.27-2.58,11.78,1.07,11.25-1.5-.54-2.58-8.57-7.94-8.57-7.94v-14.16s2.68.86,6.7-1.5c4.02-2.36,10.71,7.51,15.53,6.44,4.82-1.07,6.7-7.3,9.64-9.44,2.95-2.15,4.29,9.01,8.3,9.87,4.02.86,16.6-1.93,12.59-14.81-.85-2.73-3.29-5.91-6.58-9.27h-112.32c-12.57,12.11-52.05,27.62-54.11,34.06-2.21,6.92,13.46,3.38,19.68,3.54,6.23.16,1,8.05,5.22,11.11,4.22,3.06,11.85,3.54,16.87-1.13,5.02-4.67,13.26-6.76,12.65-3.38-.6,3.38-15.06,15.45-10.04,17.06,5.02,1.61,19.08-7.89,19.08-9.01v43.13s-10.44,2.58-16.67,2.41c-6.23-.16-7.83,7.08-4.22,12.39,3.62,5.31,6.43,5.47,2.21,11.75-4.22,6.28-24.3,12.39-32.54,18.67-8.24,6.28-9.04,13.04-14.06,17.54-5.02,4.51-42.18,19.15-62.07,21.89-19.89,2.74-15.27,9.82-13.86,18.83,1.41,9.01,13.26.48,8.03,6.76-5.22,6.28-3.01,15.29,2.01,15.77,5.02.48,7.63-6.44,16.07-11.11,8.44-4.67,10.24,6.6,17.07,6.6s14.06-9.17,19.48-12.39c5.42-3.22,22.3-3.06,32.14-4.35,9.84-1.29,4.22-3.54,8.64-7.89,4.42-4.35,4.82,1.45,9.44,2.25,4.62.8,14.26-7.08,18.48-11.27,4.22-4.18,11.85-.64,7.83,3.54-4.02,4.18-38.77,13.68-46,18.19-7.23,4.51-21.29,20.76-21.29,26.07s4.82,3.54,7.23,3.54-2.21,11.75,1.81,17.22c4.02,5.47,24.71-16.9,30.93-25.27,6.23-8.37,26.31-10.62,27.32-11.43,1-.8,0,41.04,0,41.04-7.63,12.07-64.07,27.2-74.72,33.96-10.65,6.76-7.63,32.19-10.44,36.7-2.81,4.51-9.84,7.89-17.47,13.36-7.63,5.47-5.22,8.69-4.42,14.49.8,5.79,8.24-.97,13.66-1.77,5.42-.8-3.01,14.32,2.81,16.9,5.83,2.58,21.69-6.6,25.91-8.37,4.22-1.77-1.21,4.99-2.61,11.11-1.41,6.12,3.21,2.25,10.65,1.29,7.43-.97,10.65-7.4,11.25-14.97.6-7.56,8.84-8.05,18.48-11.43,9.64-3.38,5.82,0,5.22,4.35-.6,4.35-6.83,6.12-10.85,10.94-4.02,4.83-19.89,21.57-28.52,26.23-8.64,4.67-22.7-5.96-29.93-5.79-7.23.16-7.63,7.08-32.14,16.26-24.51,9.17-37.56,32.83-35.95,37.82,1.61,4.99,14.46-7.4,21.29-9.33,6.83-1.93,1.81,11.43-4.62,20.28-6.43,8.85,2.41,12.07,9.84,10.46,7.43-1.61,21.69-15.93,25.71-13.68,4.02,2.25-6.63,21.41,1.41,23.98,8.03,2.58,33.34-26.07,38.36-28,5.02-1.93,5.83,7.89,12.65,7.73,6.83-.16,17.68-17.06,24.1-21.08,6.43-4.02,12.05-1.93,22.3-7.73,10.24-5.79,12.25,3.86,10.04,10.62-2.21,6.76-14.86,8.37-17.88,12.23-3.01,3.86,7.83,3.54,6.83,6.92-1,3.38-21.49,3.86-30.93,6.28-9.44,2.41-14.26,11.75-15.27,16.26-1,4.51,16.87-1.45,28.32-6.12,11.45-4.67,10.65,9.98,10.65,11.75s-16.07,10.3-21.29,14.81c-5.22,4.51-18.28,4.67-28.92,3.22-10.65-1.45-19.68,1.45-26.51,5.79s-16.27,6.76-23.7,5.15c-7.43-1.61-22.09,9.82-30.33,17.06-.45.39-.85.78-1.22,1.16-.84-.53-1.64-1.12-2.35-1.81-5.19-5.05-7.54-17.6-9.2-21.02-1.67-3.42,14.95,8.76,11.98,4.31-2.97-4.46-11.24-13.52-13.1-18.57-1.85-5.05,2.9-4.9.86-11.29-2.04-6.39.25-4.46-2.53-12.78-2.68-8.02-2.09-20.28-2.38-21.56,0-.03,0-.13,0-.13,0,0,0,.04-.01.05,0-.01,0-.05-.01-.05,0,0,0,.1,0,.13-.29,1.28.3,13.54-2.38,21.56-2.78,8.32-5.56,6.54-7.6,12.92-2.04,6.39,7.79,6.09,5.93,11.14-1.85,5.05-13.35,6.39-16.31,10.84-2.97,4.46,16.87,0,15.2,3.42-1.67,3.42-16.13,14.56-21.32,19.61-5.19,5.05-3.34,6.68,3.15,9.21s13.9-6.09,13.9-6.09c0,0,.37,6.98-1.11,9.8-1.48,2.82-11.31,6.68-15.39,9.51-4.08,2.82.19,5.79,4.08,9.21,3.89,3.42,8.16,1.78,5.38,7.28-2.78,5.5-15.02,9.66-25.77,12.48-10.75,2.82-2.6,7.28,1.3,9.51,3.89,2.23,13.16,4.75,17.8,10.1,4.64,5.35-.93,9.51-6.3,12.03-5.38,2.53-23.92-1.49-24.1,3.71-.19,5.2,13.16,6.39,10.57,11.14-2.6,4.75-9.08,4.46-8.9,9.21.19,4.75,17.61,5.94,22.8,8.32,5.19,2.38.93,8.17-7.23,12.03-8.16,3.86-11.49,10.1-10.01,15.45,1.48,5.35,30.78,10.1,28.92,13.96-1.85,3.86-19.28,3.57-26.7-1.19-7.42-4.75-24.84,0-18.91,1.78,5.93,1.78,1.85,11.59-12.98,14.86-14.83,3.27-14.46-6.83-27.81-2.67-13.35,4.16-1.85,8.91,8.9,16.04,10.75,7.13,27.81,5.05,44.87,7.72,17.06,2.67,18.17,17.23-5.19,18.42-23.36,1.19-29.29-7.43-39.68-6.24-10.38,1.19-4.45,9.8.37,15.45,4.82,5.65,12.24,9.21,22.99,10.1s42.27,16.94,39.67,19.61c-2.6,2.67-30.03,5.05-38.93,8.02-8.9,2.97-7.79,9.51-7.42,14.26.37,4.75,30.78,13.07,30.78,16.94s-21.88-.59-33.37-.3c-11.49.3-37.82,17.53-37.82,17.53,0,0,21.51,5.94,35.6,8.32,14.09,2.38,24.47.89,21.14,7.13-.58,1.08-2.04,2.13-4.05,3.13-.77.34-1.53.7-2.32,1.04-1,.41-2.08.81-3.22,1.2-2.66.76-5.87,1.06-10.45.05-14.83-3.27-16.12,2.6-21.66.15-7.04-3.12-20.58-12.48-27.99-7.72-7.42,4.75-8.16-19.09-10.01-22.95-1.85-3.86,28.52,6.46,30.01,1.11,1.48-5.35-1.85-11.59-10.01-15.45-8.16-3.86-19.35-5.35-14.16-7.72,5.19-2.38,29.54-7.87,29.73-12.63s-21.57-8.24-24.17-13c-2.6-4.75,15.76-2.38,15.57-7.58-.19-5.2-8.46-.97-13.84-3.49-5.38-2.53-10.94-6.68-6.3-12.03,4.63-5.35,10.13-1.63,14.02-3.86,3.89-2.23,1.3-6.54-9.46-9.36-10.75-2.82-11.12-8.54-13.91-14.04s6.95-3.05,10.85-6.46c3.89-3.42,1.58-7.65-2.5-10.47-4.08-2.82-10.13-11.07-11.61-13.89-1.48-2.82-.34-3.94-.34-3.94,0,0,6.65,2.75,13.14.22,6.49-2.53-3.77-2.75-8.97-7.8-5.19-5.05-7.54-17.6-9.2-21.02-1.67-3.42,14.95,8.76,11.98,4.31-2.97-4.46-11.24-13.52-13.1-18.57-1.85-5.05,2.9-4.9.86-11.29-2.04-6.39.25-4.46-2.53-12.78-2.68-8.02-2.09-20.28-2.38-21.56,0-.03,0-.13,0-.13,0,0,0,.04-.01.05,0-.01,0-.05-.01-.05,0,0,0,.1,0,.13-.29,1.28.3,13.54-2.38,21.56-2.78,8.32-5.56,6.54-7.6,12.92-2.04,6.39,7.79,6.09,5.93,11.14-1.85,5.05-13.35,6.39-16.31,10.84-2.97,4.46,16.87,0,15.2,3.42-1.67,3.42-16.13,14.56-21.32,19.61-5.19,5.05-3.34,6.69,3.15,9.21,6.49,2.53,13.9-6.09,13.9-6.09,0,0,.37,6.98-1.11,9.8-1.48,2.82-11.31,6.68-15.39,9.51s.19,5.79,4.08,9.21c3.89,3.42,8.16,1.78,5.38,7.28-2.78,5.5-15.02,9.66-25.77,12.48-10.75,2.82-2.6,7.28,1.3,9.51,3.89,2.23,13.16,4.75,17.8,10.1,4.63,5.35-.93,9.51-6.3,12.03-5.38,2.53-23.92-1.49-24.1,3.71-.19,5.2,13.16,6.39,10.57,11.14-2.6,4.75-9.08,4.46-8.9,9.21.19,4.75,17.61,5.94,22.8,8.32,5.19,2.38.93,8.17-7.23,12.03-8.16,3.86-11.49,10.1-10.01,15.45,1.48,5.35,30.78,10.1,28.92,13.96-1.85,3.86-19.28,3.57-26.7-1.19-7.42-4.75-24.84,0-18.91,1.78,5.93,1.78,1.85,11.59-12.98,14.86-14.83,3.27-14.46-6.83-27.81-2.67-4.65,1.45-6.28,2.97-5.98,4.63-33.11-6.98-59.41-12.16-59.41-12.16l-45.56,36.51-106.3-19.47s-30.37-51.11-39.48-51.11-109.34,7.3-109.34,7.3l-33.41,34.07-118.45,34.07-452.55,38.94-44.5-2.89-1.68-73.62c-.05-2.11,3.15-3.19,4.99-1.68,13.08,10.69,47.1,37.65,53.54,34.22,6.93-3.7-28.14-18.62-48.06-37.81-1.96-1.89.58-4.64,3.38-3.66,25.5,8.98,68.35,8.22,82.01,13.69,16,6.41,10.67-2.14,2.67-4.27-8-2.14-21.33-19.23-16-23.5,5.33-4.27,29.33,17.09,40,17.09s24,6.41,26.67,2.14c2.67-4.27-17.3-16.09-15.32-19.8,1.99-3.71,4.65.57,7.32-3.71,2.67-4.27-5.33-32.05-69.33-29.91-18.67,0-16-12.82-29.33-12.82s-16,4.27-18.67,4.27-8-6.41-13.33-6.41h-5.08c-1.61,0-2.92-1.05-2.92-2.34v-61.31c0-2.22,3.49-3.19,5.21-1.45,4.92,5.01,11.79,11.68,13.46,11.68,2.67,0-2.67-10.68,0-10.68s10.67,10.68,13.33,10.68,5.33-6.41,5.33-8.55,10.67-6.41,8,12.82c0,6.41,10.67,2.14,16,4.27,5.33,2.14,21.33,4.27,29.33,4.27s34.67,6.41,37.33,2.14-8-14.96-29.33-14.96c-8,0,0-4.27,10.67-2.14,10.67,2.14-2.67-12.82-16-14.96-8.58-1.37-10.53-4.52-10.84-6.59-.22-1.5,1.4-2.81,3.26-2.58,2.87.35,8.28,2.33,18.24,9.17,18.67,12.82,34.67,10.68,34.67,8.55s-18.67-23.5-32-25.64c-13.33-2.14-80-10.68-82.67-17.09-2.67-6.41,5.33-14.96,13.33-10.68,4,2.14,6.21,1.85,7.43,1.03,1.18-.8,2.98-.64,4.03.27,2.57,2.21,6.57,5.11,9.88,5.11,5.33,0,2.67-6.41,5.33-8.55,2.67-2.14,32,17.09,37.33,14.96,5.33-2.14-18.67-17.09-16-21.37,2.67-4.27,24,0,29.33,10.68,2.67,6.41,13.33-2.14,13.33-8.55s-5.33-23.5-26.67-23.5c-13.33,0-16-6.41-16-6.41,0,0-2.67-4.27-5.33-6.41s-10.67-2.14-16-6.41c-5.33-4.27-13.33-14.96-16-14.96s-2.67,2.14-8,2.14c-4.7,0-34.22-13.26-41.19-16.42-.91-.41-1.47-1.19-1.47-2.03v-14.73c0-1.67,2.12-2.8,4.05-2.16,3.6,1.19,8.4,3.68,9.17,8.61.45,3.91,4.31,3.77,3.29-7.36-.4-4.73,12.48,14.14,14.75,15.55,2.27,1.41,1.99-5.32,3.46-5.36,1.48-.05,3.52,10.09,6.75,10.18,3.23.09,3.23-5.59,4.88-5.73,1.65-.14,11.57,13,14.35,12.09,2.78-.91-1.3-9.59,1.19-9.64,2.5-.05,6.47,6.96,7.94,6.36s1.65-8.32,3.06-8.68c1.42-.36,18.1,11.96,21.45,9.09,3.35-2.86,2.27-11.23-4.31-13.91s-12.77-10.32-11.52-11.59c1.25-1.27,16.17,10.41,19.46,9.64s12.48,1.14,5.5-7.5c-6.98-8.64-20.99-25.32-18.1-27.55,2.89-2.23,14.47,11.73,17.08,10.91,2.61-.82-5.79-15-18.44-23.41-12.65-8.41-20.48-.32-24.4-.5-3.91-.18-34.04-15.82-38.81-14.91s-15.77-2-17.02-7.46c-1.25-5.46.11-11.55,3.06-11.09,2.95.45,5.67,13.73,8.51,12.91,2.84-.82-2.16-6.64,0-7.64,2.16-1,8.4-.27,8.51-1.73.11-1.45-18.04-5.46-18.16-8.37-.11-2.91-7.04-10.91-4.43-11.27,2.61-.36,19.4,14.73,24.4,14.18,4.99-.55,15.55,6.46,20.65,6.64,5.11.18,10.33-1.36,12.26.45,1.93,1.82,8.28,7.27,9.53,5.91,1.25-1.36-3.74-6.82-1.25-8.27s10.44,2,13.05,6.82c2.61,4.82,5.79,1.18,5.22-1.73-.57-2.91,6.01,8.27,9.08,8.09,3.06-.18-2.95-8.27-.79-9,.81-.27,2.46,1.09,4.18,2.89,1.8,1.88,5.55.7,5.23-1.66-.78-5.84-2.45-12.84-6.01-15.14-6.47-4.18-20.43-11.55-24.4-15.18-3.97-3.64-10.33-10.46-17.93-11.91-7.6-1.45-22.13-15.46-25.99-15.18-3.86.27-9.53,5.27-13.84,4.82-4.31-.45-11.91-9.46-12.71-17-.79-7.55.11-11.27,3.97-10.37,3.86.91,13.84,13.91,14.75,18.64.91,4.73,7.26,2.82,6.92-.64-.34-3.46-9.08-23.82-21.11-28.91-12.03-5.09-6.24-9.37,0-5.36,6.24,4,45.84,20.55,50.5,25,4.65,4.46,3.74-2.91,0-4.73-3.74-1.82-9.19-6.27-7.6-7.46,1.59-1.18,11.91,7.55,13.28,4.82,1.36-2.73-10.78-8.91-8.62-10.18,2.16-1.27,4.88,2.27,7.04,1.55,2.16-.73-5.45-5.09-2.84-6,2.61-.91,6.01,5.18,8.85,3.64,2.84-1.55-7.72-6.18-5.11-7.73,2.61-1.55,36.88,15.18,41.42,12.46s2.72-15-10.21-19.73c-12.94-4.73-40.4-13.73-42.21-17.91-1.82-4.18-9.42-10.82-16-11.55-6.32-.7-29.98-16.39-33.28-21.51-.21-.32-.29-.69-.28-1.05.04-1.77.02-8.23,0-12.61-.01-2.09,3.16-3.16,4.98-1.66,2.45,2.02,5.23,5.59,6.91,11.91.91,3.55,2.61-2.64,3.63-6.27s10.44,13,17.93,13.09c7.49.09,8.28-6.36,5.9-8.37-2.38-2,16.79,1.27,18.16-1.36,1.36-2.63-5.66-19.6-31.79-23.35-.06,0-.12-.02-.18-.03-12.59-2.38-22.56-11.94-25.06-14.52-.4-.41-.61-.91-.61-1.43v-19.86s-.74-3.77,5.9-.02c5.24,2.96,11.71,5.03,13.98,2.58.98-1.06,2.8-1.33,4.12-.55,8.37,4.96,28.69,12.98,28.62,9.16-.09-4.57-8.17-10.02-6.04-11.39s16.94-1.02,17.87-4.09c.94-3.07-14.89-2.59-17.19-7.5-2.3-4.91-6.98-8.52-4.68-9.34,2.3-.82,4.09,1.57,5.96-.95,1.87-2.52.6-13.09-13.11-14.53-11.96-1.25-32.27-13.51-37.26-16.61-.71-.44-1.13-1.12-1.13-1.85v-35.94c0-2.35,3.84-3.23,5.39-1.24,4.3,5.53,10.22,12.14,14.02,12.34,6.55.34,18.55-8.39,16.6-11.8-1.96-3.41,6.55,4.64,11.74,3.27,5.19-1.36,8.68-.95,7.06-5.05-1.62-4.09-20.77-18.07-25.11-20.53-4.34-2.45,4.6-15,1.45-18.21-2.7-2.75-23.8-11.72-29.76-14.21-.96-.4-1.56-1.2-1.56-2.07v-27.13c0-1.56,1.89-2.72,3.75-2.24.78.2,1.7.56,2.78,1.15,4.99,2.73-.57-6.18,5.11-3.82s10.78,10.18,13.39,5.55c2.61-4.64-11.35-27-22.24-31.55-10.89-4.55,5.22-5,4.77-10s-18.27-6.91-17.13-11.46c1.13-4.55-7.04-29.91-6.13-40.46.2-2.37.69-3.92,1.31-4.94h-8.37c-.5,1.48-.38,2.57,1.04,2.31,2.95-.55,4.65-2.82,4.09-.64-.57,2.18-2.61,41.46-4.54,42.19-1.93.73-13.84-.09-13.73,4,.11,4.09,5.11,5,4.43,7.46-.68,2.45-15.43,10.27-13.73,13.73,1.7,3.46,4.2,1.36,4.54,3.36.34,2-20.88,13.55-14.52,20.64,6.35,7.09,9.19,2.18,12.37,1.82,2.09-.24,5.86.59,8.19,1.18,1.21.31,2.02,1.21,2.02,2.23v25.87c0,1.09-.94,2.04-2.26,2.28-5.52.99-19.17,4.12-18.22,10.55,1.19,8.05,8.34-.95,11.74.41,3.4,1.36-34.38,22.78-33.36,24.82,1.02,2.05,1.36,3.82-1.53,5.18s-20.94,6-16,9.96c4.94,3.96,10.89.41,11.74,2.86.85,2.45-9.02,6.68-5.96,8.18,3.06,1.5,17.02,2.05,17.87-1.91s6.13-4.23,8.51-3.68c2.38.55,0,13.09,4.26,14.87,4.26,1.77,12.94,2.32,16.17-3.82,1.62-3.07,3.32-3.65,4.62-3.46,1.31.19,2.19,1.2,2.19,2.26v5.54c0,.55-.24,1.07-.67,1.49-2.21,2.12-9.24,8.77-12.09,10.26-2.64,1.37,6.46,3.81,10.7,4.84,1.23.3,2.06,1.21,2.06,2.24v6.96c0,.7-.38,1.36-1.06,1.8-5.08,3.36-26.88,17.9-29.58,22.35-3.06,5.05-22.3,8.73-26.89,14.05-4.6,5.32-15.49,19.5-9.19,21.41,6.3,1.91,9.19-3.96,11.4-4.36s3.74,17.46,6.98,18.28c3.23.82,2.21,5.46,5.96,4.64,3.74-.82,11.57-11.73,14.81-11.18,3.23.55-4.43,11.32.51,14.87,4.94,3.55,20.77-10.23,22.3-6.14,1.53,4.09-4.43,9-6.98,10.91-2.55,1.91-21.11,12.27-25.53,18.69-4.43,6.41-38.98,10.37-46.3,16.23-5.88,4.71-16.6,13.74-18.29,21.78-.44,2.11,2.65,3.48,4.74,2.15,4.24-2.7,7.8-2.47,7.93-.19.17,3-4.6,13.09-.34,12.82,4.26-.27,16.85-17.32,19.23-15.28,2.38,2.05-16.51,16.78-13.62,19.91,2.89,3.14,27.23,3.55,31.66,1.64,4.43-1.91,7.49,3.41,12.26,2.45s12.09-19.09,22.13-19.23c9.16-.12,10.25,5.31,10.37,6.27.01.08.01.15.01.23v7.47c0,.8-.51,1.54-1.36,1.97-3.01,1.54-10.22,5.59-13.28,10.38-3.91,6.14-8.85,13.64-14.81,13.37-5.96-.27-38.64-1.23-46.81,6.14-8.17,7.36-44.6,31.78-34.89,39.55,4.43,3.96,9.19-6.68,12.77-5.86,3.57.82-.85,14.18,5.79,13.78,6.64-.41,8.17-9.41,11.91-9.41s5.28,9.82,9.36,8.05c4.09-1.77,20.43-29.46,25.53-28.37,5.11,1.09-10.04,14.32-10.55,16.23-.51,1.91,13.62-3.27,17.02-.68,3.4,2.59,8,11.59,12.6,9.68s3.4-8.05,8.51-9c5.11-.95,10.21-.41,12.26-2.32,2.04-1.91,8.57-8.37,10.84-4.82,2.27,3.55-16.34,13-19.63,14.55-3.29,1.55-10.44,8.73-14.07,10-3.63,1.27-13.05-.09-21.9,5.91-8.85,6-21.79,9.64-25.08,15.09-3.29,5.46-5.45,10.64-8.96,13.28-3.52,2.64-31.09,18.19-28.82,22.73,2.27,4.55,6.47,1.55,7.26,3.91.79,2.36,1.02,12.64,4.31,10.37,3.29-2.27,5.22-14.82,16.57-13.18,7.48,1.08,14.23,6.23,17.95,9.62,1.43,1.3,4.06.94,4.88-.66,3.92-7.7,12.94-24.51,15.41-21.41,3.18,4,.23,20.73,4.77,25.1,4.54,4.36,9.19-7.64,13.28-8.73,4.09-1.09,11.01-2.55,12.6-4.64,1.59-2.09,8.74-10.73,11.69-5.82,2.72,4.53-13.4,23-15.9,25.82-.21.24-.48.44-.79.6-3.87,2-30.56,15.83-32.67,17.85-2.27,2.18-11.69-4.09-15.66-4.91-3.97-.82-14.41-1.18-23.26,3-8.85,4.18-31.09,22.46-27.01,25.19,4.09,2.73,23.94-17.37,26.89-14.18,2.95,3.18-33.59,33.37-28.26,39.83,5.33,6.46,24.62-13.09,27.57-11.37,2.95,1.73-13.28,19.19-9.76,22.19s21.33-9.37,24.74-9.73c3.4-.36,14.41,2.36,17.02-.09,2.61-2.45,10.67-14.82,13.28-12,2.61,2.82,2.04,14.82-7.15,18.55-9.19,3.73-42.78,4.46-47.89,19.46-5.11,15-8.74,24-2.72,23.1,6.01-.91,21.67-19.91,25.99-19.28,4.31.64,1.7,4.55,6.58,4.64,4.88.09,6.92-5.27,9.3-6.27,2.38-1,8.62,2.18,10.89.36,2.27-1.82,12.37-14.09,17.82-8.91,5.45,5.18,1.25,14.18-5.56,17.09s-40.06,5.64-50.95,16.91c-3.4,3.09,3.52-.82,10.89-1.36,7.38-.55-20.54,10.55-22.92,15.82s-5.11,18.46,0,17.28c5.11-1.18,11.46-11.46,14.3-7.64,2.84,3.82-.11,11.18-5.56,14.64-5.45,3.46-17.7,15.73-14.87,20.46,2.84,4.73,2.84,13.55,6.13,12.27,3.29-1.27,16.45-14.82,19.86-13.46,3.4,1.36,7.15,5.27,8.96,4.18,1.82-1.09,1.82-5.55,5.79-4.64,3.97.91,2.61,3.64,2.95,4.82.34,1.18,19.97-14.91,24.28-12.91,4.31,2,3.18,7.64,7.72,9.27,4.54,1.64,12.26,1.27,13.16-2.18.91-3.46-.91-9.82,5.45-10.37,3.97-.34,11.12-5.43,15.93-9.2,1.84-1.45,4.95-.39,4.95,1.68v16.92c0,1.24-1.21,2.25-2.75,2.32-5.11.23-16.09,1.15-22.21,4.83-8.17,4.91-14.3,8.91-17.48,7.64-3.18-1.27-18.16-8.73-24.51-5.09s-27.92,2.91-31.32,7.27c-3.4,4.36-1.59,13.82-8.4,18.19-6.81,4.36-31.32,22-24.74,26.73,6.58,4.73,13.16,1.27,18.38-1.82,5.22-3.09,18.16-7.64,16.79-4.36-1.36,3.27-19.74,14-21.56,16.37-1.82,2.36-13.39,1.45-12.26,4.73,1.13,3.27,7.04,6.91,14.07,5.64,7.04-1.27,29.73-9.82,34.72-9.82s-15.21,17.09-10.21,20.55c4.99,3.46,14.75-6.91,17.93-3.09,3.18,3.82,5.45,7.27-1.59,11.82-7.04,4.55-31.55,13.64-32.45,17.64-.91,4,8.4,4.36,15.21,1.09.75-.36,1.64-.75,2.63-1.16,2.78-1.15,5.47,1.52,3.59,3.52-.35.37-.54.68-.54.92,0,2.36,34.5-.73,36.31-3.82,1.82-3.09,7.72-11.82,10.89-13.82,1.89-1.19,14.32-7.43,24.12-12.31,2.69-1.34,5.75,1.24,3.93,3.32-14.3,16.39-41.81,48.79-38.26,51.37,3.7,2.68,30.15-26.31,41.77-39.37,1.66-1.87,5.34-.9,5.29,1.4l-1.59,79.82L1.28,898.04ZM1658.55,907.94c-3.61-1.01-5.86-1.84-5.94-2.32-.2-1.31,16.7-.72,32.93-.08l-26.99,2.4ZM1749.82,888.48l-36.34,9.88c-2.4-3.73-5.82-7.78-7.1-9.67-2.6-3.86-35.25-9.51-46.38-12.48-11.12-2.97,2.99-3.57,9.3-5.35,6.3-1.78,37.45-13.67,37.45-13.67,0,0-57.87-6.54-61.21-12.78-3.34-6.24-15.92-9.8-1.83-12.18,14.09-2.38,58.56-3.27,58.56-3.27,0,0-26.33-17.23-37.82-17.53-11.49-.3-33.37,4.16-33.37.3s30.41-12.18,30.78-16.94c.37-4.75-10.73-.59-19.63-3.57-8.9-2.97-24.13-16.04-26.72-18.72-2.6-2.67,26.35-10.1,37.11-10.99,10.75-.89,20.74-13.07,25.56-18.72,4.82-5.65-46.82,8.59-57.2,7.4-10.38-1.19,41.26-15.42,17.9-16.61-23.36-1.19-32.59-1.83-29.45-9.88,1.39-3.57,58.37-9.14,69.13-16.27,10.75-7.13,23.2-12.18,9.85-16.34-13.35-4.16-13.93,6.24-28.76,2.97-14.83-3.27-16.12,2.6-21.66.15-7.04-3.12-20.58-12.48-27.99-7.72-7.42,4.75-8.16-19.09-10.01-22.95-1.85-3.86,28.52,6.46,30.01,1.11,1.48-5.35-1.85-11.59-10.01-15.45-5.7-2.7-12.87-4.24-14.91-5.73.77-.81,1.55-1.69,2.33-2.62,4.82-1.73,15.42-4.49,22.15-7.42-.05,3.16,1.9,5.25,6.6,5.77,5.82.64,14.26-10.3,20.29-16.58,6.03-6.28,10.24-3.22,12.25-.8,2.01,2.41-1,27.68,3.82,27.36,4.82-.32,14.46-12.88,18.08-17.54,3.62-4.67,9.44-9.33,11.25-7.4,1.81,1.93-3.82,13.68-1.81,16.26,2.01,2.58,9.24-.8,12.65-4.99,3.41-4.18,14.46-7.4,13.06-.8-2.21,14.65,1,19.64,3.41,16.74,8.03-9.17,20.69-2.9,20.69-2.9v239.93ZM1606.8,592.76c3.47-4.01,7.43-2.93,10.83-3.07-1.81,2.94-5.17,7.59-8.91,12.57-3.33-2.45-5.25-5.67-1.92-9.5ZM1623.04,621.84c1.35-1.16,2.58-1.87,3.66-1.94,4.51-.29,5.17,2.2,4.73,5.21-2.33-1.11-5.37-2.19-8.39-3.27ZM1593.84,530.74s1.33.55,3.38.93c.37,2.68,3.07,4.33,5.57,4.7,4.42.64,20.29-13.04,22.7-8.85,2.41,4.18-4.22,9.33-7.63,14.16-3.41,4.83-4.82,14.97,4.82,15.29,9.64.32,38.16-26.23,41.98-20.92,3.82,5.31-5.22,22.05.2,24.14,5.42,2.09,15.06-11.59,20.89-19.31,5.83-7.73,28.52-17.38,30.13-20.76,1.61-3.38-9.04-5.15-8.24-8.05.8-2.9,42.58-20.92,42.58-20.92v22.05s1.61,2.9-2.01,5.47c-3.62,2.58-15.06-3.38-19.28-3.06-4.22.32-6.63,5.47-8.23,11.27-1.61,5.79-17.07,18.51-18.28,23.34-1.21,4.83,3.01,5.47,6.63,9.33,3.62,3.86,23.1-1.93,27.72,1.45,4.62,3.38-11.45,10.94-20.09,15.93-8.64,4.99-13.66,5.95-4.62,6.92,9.04.97,40.77-17.06,40.77-17.06v35.25s-7.03.48-12.85-.16c-5.83-.64-43.99-23.18-48.81-24.3-4.82-1.13-16.47,1.45-22.09,2.74-5.62,1.29-21.29-6.6-30.33-8.05-7.22-1.16-12.91,4.88-17.56,11.79-1.65-1.58-4.86-3.2-9.82-4.51-10.75-2.82-11.12-8.54-13.91-14.04-2.78-5.5,6.95-3.05,10.85-6.46,3.89-3.42,1.58-7.65-2.5-10.47-4.08-2.82-10.13-11.07-11.61-13.89-1.48-2.82-.34-3.94-.34-3.94ZM1509.51,867.27c4.3,2.55,6.37,6.64-2.25,8.94-6.57,1.75-23.86-.22-37.46-1.34,12.46-2.19,28.62-4.73,39.72-7.6Z"/>
  </g>
</svg>