<?xml version="1.0" encoding="UTF-8"?>
<svg id="Layer_2" xmlns="http://www.w3.org/2000/svg" viewBox="0 0 1399.32 461.24">
  <defs>
    <style>
      .cls-1, .cls-2 {
        fill: #fff;
      }

      .cls-3, .cls-2, .cls-4 {
        stroke-linecap: round;
        stroke-width: 2.02px;
      }

      .cls-3, .cls-2, .cls-4, .cls-5 {
        stroke: #000;
      }

      .cls-3, .cls-4, .cls-5 {
        fill: none;
      }

      .cls-3, .cls-5 {
        stroke-miterlimit: 10;
      }

      .cls-2, .cls-4 {
        stroke-linejoin: round;
      }

      .cls-5 {
        stroke-width: 5px;
      }
    </style>
  </defs>
  <g id="Layer_6">
    <g>
      <line class="cls-5" y1="458.74" x2="1399.32" y2="458.74"/>
      <path d="M127.55,346.57h160.33v74.3c0,21-17.05,38.04-38.04,38.04h-84.25c-21,0-38.04-17.05-38.04-38.04v-74.3h0Z"/>
      <g>
        <path class="cls-1" d="M254.11,458.17c19.47-6.83,24.59-26.45,19.24-111.1h14.03v73.8c0,19.26-14.57,35.17-33.27,37.3Z"/>
        <path d="M286.88,347.57v73.3c0,17.48-12.17,32.18-28.49,36.05,6.69-3.43,11.52-9.43,14.36-21.58,3.67-15.71,4.01-41.99,1.14-87.76h13M287.88,346.57h-15.06c5.83,91.79-.96,106.86-22.98,112.34,21.01,0,38.04-17.03,38.04-38.04v-74.3h0Z"/>
      </g>
      <g>
        <g>
          <path class="cls-2" d="M162.16,305.24s-105.84-113.84-106.36-125.72c-.52-11.87,15.23,8,15.23,8l-.52-8.52s27.36-3.36,29.17,22.98c0-9.81,1.55-12.56,1.55-12.56,0,0,119.01,67.55,60.92,115.82Z"/>
          <g>
            <path class="cls-1" d="M212.54,159.03c-4.69,0-8.39-1.76-11.31-5.39-13.67-16.97-3.83-68.03-2.44-74.86l18.33-.99c.48-.03.87-.39.95-.86s-.2-.93-.65-1.1l-14.84-5.44c.11-3.44,2.47-21.91,36.92-59.53,5.98-6.54,11.18-9.85,15.43-9.85,2.27,0,4.27.92,6.11,2.82,13.56,14,11.65,73.05,10.84,98.26l-.06,2.01c-.48,15.27-4.43,28.05-11.41,36.94-7.11,9.06-17.25,13.85-29.32,13.85-1.18,0-2.4-.05-3.62-.14-.02,0-.05,0-.07,0-.16,0-.31.04-.46.11-5.46,2.76-10.3,4.15-14.39,4.15h0Z"/>
            <path d="M254.93,2.02c1.98,0,3.74.82,5.38,2.52,13.26,13.69,11.29,74.6,10.56,97.53l-.06,2.01c-.48,15.05-4.35,27.62-11.19,36.35-6.91,8.81-16.77,13.46-28.53,13.46-1.16,0-2.35-.04-3.54-.13-.05,0-.1,0-.15,0-.32,0-.63.07-.91.22-5.32,2.68-10,4.04-13.94,4.04-4.37,0-7.81-1.64-10.52-5.01-12.97-16.09-4.2-64.12-2.39-73.26l17.54-.95c.96-.05,1.75-.77,1.89-1.72.14-.95-.4-1.87-1.3-2.2l-14.15-5.19c.35-4.55,3.98-22.48,36.63-58.15,5.79-6.32,10.73-9.52,14.69-9.52M254.93,0c-4.34,0-9.66,3.06-16.18,10.18-39.24,42.85-37.17,60.92-37.17,60.92l15.49,5.68-19.1,1.03s-17.9,82.22,14.58,82.22c4.1,0,9-1.31,14.85-4.26,1.25.09,2.49.14,3.69.14,25.65,0,40.76-20.7,41.74-51.77.86-27.12,3.87-104.14-17.9-104.14h0Z"/>
          </g>
          <path class="cls-4" d="M252.17,18.44s-27.18,94.38-24.81,136.92c.02.28.05.55.1.82.73,3.86,6.45,34.77,5.78,57.87-.85,29.38-20.43,180.58-20.43,180.58"/>
          <g>
            <path class="cls-1" d="M143.45,241.1c-5.44,0-12.56-.15-21.18-.46-5.57-.2-8.58-1.78-8.96-4.72-1.39-10.78,29.7-36.66,59.47-45.62,7.29-2.19,13.85-3.31,19.5-3.31,19.56,0,22.22,13.4,22.24,13.53.07.37.33.67.69.78,25.76,8.18,30.68,14.24,30.27,17.88-1.37,12.15-58.52,19.71-82.3,21.79.75-2.84,2.26-9.22,1.7-12.57-.08-.46-.46-.81-.93-.84-.02,0-.04,0-.07,0-.44,0-.84.29-.97.72-2.12,6.96-8.5,11.76-9.46,12.45-.32.06-2.32.37-10,.37Z"/>
            <path d="M192.28,188.01c18.57,0,21.15,12.2,21.25,12.7.13.74.66,1.34,1.38,1.57,27.42,8.7,29.81,14.65,29.57,16.8-.29,2.54-4.89,9.16-41.33,15.61-16.1,2.85-32.23,4.53-38.63,5.14.81-3.27,1.87-8.51,1.36-11.6-.15-.93-.93-1.62-1.86-1.69-.04,0-.09,0-.13,0-.88,0-1.67.58-1.93,1.43-1.9,6.25-7.51,10.75-8.88,11.78-.7.1-3.04.33-9.62.33-5.42,0-12.54-.15-21.14-.46-3.44-.12-7.61-.89-8-3.84-.61-4.73,6.23-13.53,17.42-22.43,12.24-9.73,27.7-17.99,41.34-22.1,7.2-2.17,13.66-3.26,19.2-3.26M192.28,185.98c-5.31,0-11.82.95-19.79,3.35-38.89,11.7-79.51,51.29-50.25,52.32,9.75.34,16.52.46,21.21.46,9.38,0,10.45-.46,10.45-.46,0,0,7.57-5.16,9.98-13.08.69,4.13-2.07,13.54-2.07,13.54,0,0,146.97-12.16,53.7-41.76,0,0-2.61-14.36-23.24-14.36h0Z"/>
          </g>
          <path class="cls-2" d="M242.53,274.52c.89,1.47,28.91-30.29,58.86-39.24,29.95-8.95,87.08-16.87,52.66-24.27s-46.47-5.69-46.47-5.69l-6.88,16.19,2.93-16.19s-7.41-2.4-23.59,5.69l-2.41,7.4-1.72-7.4s-58.86,21.51-33.39,63.5Z"/>
          <path class="cls-2" d="M239.69,207.13s22.8,18.86,46.55-23.13c23.75-41.99,31.67-44.75,31.67-44.75h-12.39l17.55-5.85s43.03-40.62,19.28-41.99c-23.75-1.38-73.31,15.83-104.98,59.95-19.4,27.03-17.79,46.99,2.32,55.77Z"/>
          <g>
            <path class="cls-1" d="M312.3,288.62c-7.46,0-9.56-.29-10.02-.38-1.02-.74-7.35-5.55-9.45-12.44-.13-.43-.52-.72-.97-.72-.02,0-.04,0-.07,0-.47.03-.85.38-.93.84-.56,3.36.95,9.73,1.7,12.57-23.78-2.08-80.93-9.64-82.3-21.79-.41-3.64,4.51-9.71,30.27-17.88.36-.11.62-.42.69-.78.1-.55,2.77-13.53,22.24-13.53,5.64,0,12.2,1.11,19.5,3.31,29.78,8.96,60.87,34.84,59.47,45.62-.38,2.93-3.39,4.52-8.96,4.72-8.62.3-15.74.46-21.18.46Z"/>
            <path d="M263.47,233.5v2.02c5.54,0,12,1.1,19.2,3.26,13.65,4.11,29.1,12.37,41.34,22.1,11.19,8.9,18.03,17.7,17.42,22.43-.38,2.95-4.56,3.72-8,3.84-8.6.3-15.72.46-21.14.46-6.58,0-8.92-.23-9.62-.33-1.38-1.02-6.97-5.49-8.88-11.77-.26-.86-1.05-1.43-1.93-1.43-.04,0-.09,0-.13,0-.94.06-1.71.76-1.86,1.69-.51,3.08.55,8.32,1.36,11.6-6.39-.61-22.51-2.29-38.61-5.14-36.46-6.46-41.06-13.07-41.35-15.62-.24-2.15,2.15-8.1,29.57-16.8.71-.23,1.24-.83,1.38-1.57.02-.13,2.53-12.7,21.25-12.7v-2.02M263.47,233.5c-20.63,0-23.24,14.36-23.24,14.36-93.28,29.6,53.7,41.76,53.7,41.76,0,0-2.75-9.41-2.07-13.54,2.41,7.92,9.98,13.08,9.98,13.08,0,0,1.07.46,10.45.46,4.69,0,11.46-.11,21.21-.46,29.26-1.03-11.36-40.62-50.25-52.32-7.97-2.4-14.47-3.35-19.79-3.35h0Z"/>
          </g>
          <path class="cls-2" d="M239.69,207.13s.09-33.8,40.36-69.6"/>
          <path class="cls-2" d="M209.23,267.64s-1.81-11.1-20.39-7.74-18.84,26.33-18.84,26.33l9.98,1.29s-9.98,3.1-8.69,8,3.61,14.46,18.33,25.04,27.88-4.65,27.88-4.65l-3.96-7.23,8.35,1.03s38.46-60.15-12.65-42.08Z"/>
          <path class="cls-2" d="M209.23,267.64s-14.46,11.44-13.94,38.81"/>
          <path class="cls-2" d="M196.85,186.26s10.51-9.57-17.47-44.68c-27.98-35.11-34.86-40.96-34.86-40.96l-5.85,11.36-2.07-16.52s-32.01-29.95-44.06-19.96c-12.05,9.98,5.51,67.81,5.51,67.81l14.2,9.64-12.13-1.59s2.41,44.58,34.08,55.78c0,0,35.57-22.86,62.65-20.87Z"/>
          <path class="cls-2" d="M166.55,189.42s-17.21-41.65-48.53-79.17"/>
          <path class="cls-2" d="M240.23,247.86s18.29-6.36,47.65,11.4"/>
        </g>
        <path class="cls-3" d="M158.43,212.53c28.09-16.35,57.08-12.18,57.08-12.18"/>
        <path class="cls-4" d="M209.23,322.12l3.58,72.5c.51-82.17,29.72-120.1,29.72-120.1"/>
        <path class="cls-3" d="M219.03,233.5s3.1,24.2,1.89,31.07"/>
        <path class="cls-3" d="M219.03,309.36l-9.79,83.95s-16.79-59.88-47.07-88.07"/>
        <path class="cls-3" d="M186.97,239.26s2.37,4.26,6.06,20"/>
        <path class="cls-3" d="M198.78,324.3s8.14,31.57,10.45,69.01"/>
      </g>
    </g>
  </g>
</svg>