<?xml version="1.0" encoding="UTF-8"?>
<svg id="Layer_2" data-name="Layer 2" xmlns="http://www.w3.org/2000/svg" viewBox="0 0 1367.67 770.31">
  <defs>
    <style>
      .cls-1, .cls-2, .cls-3 {
        stroke-linejoin: round;
      }

      .cls-1, .cls-2, .cls-3, .cls-4 {
        stroke: #000;
        stroke-linecap: round;
      }

      .cls-1, .cls-2, .cls-4 {
        stroke-width: .8px;
      }

      .cls-1, .cls-5 {
        fill: #fff;
      }

      .cls-2, .cls-6, .cls-3, .cls-4 {
        fill: none;
      }

      .cls-3 {
        stroke-width: .7px;
      }

      .cls-4 {
        stroke-miterlimit: 10;
      }
    </style>
  </defs>
  <g id="Layer_6" data-name="Layer 6">
    <g>
      <line class="cls-3" x1=".35" y1="769.96" x2="1367.32" y2="769.96"/>
      <path d="M102.98,660.97h155.75v72.18c0,20.4-16.56,36.96-36.96,36.96h-81.84c-20.4,0-36.96-16.56-36.96-36.96v-72.18h0Z"/>
      <g>
        <path class="cls-5" d="M225.17,769.55c19.47-6.4,24.63-24.88,19.36-108.18h13.81v71.78c0,19.01-14.59,34.69-33.17,36.4Z"/>
        <path d="M257.93,661.77v71.38c0,17.58-12.61,32.27-29.26,35.5,7.15-3.2,12.26-8.96,15.19-21.49,3.57-15.26,3.89-40.83,1.09-85.39h12.99M258.73,660.97h-14.63c5.67,89.17-.93,103.81-22.32,109.13,20.41,0,36.96-16.55,36.96-36.96v-72.18h0Z"/>
      </g>
      <g>
        <g>
          <path class="cls-1" d="M136.6,620.82s-102.82-110.59-103.32-122.13c-.5-11.54,14.8,7.77,14.8,7.77l-.5-8.28s26.58-3.26,28.34,22.32c0-9.53,1.5-12.2,1.5-12.2,0,0,115.61,65.62,59.18,112.52Z"/>
          <g>
            <path class="cls-5" d="M185.54,479.36c-4.68,0-8.53-1.83-11.44-5.45-13.8-17.13-3.32-69.21-2.39-73.65l18.25-.99c.19,0,.35-.15.37-.34.03-.19-.08-.37-.26-.43l-14.8-5.42c-.04-2.24.88-20.26,36.02-58.63,5.93-6.47,11.12-9.76,15.42-9.76,2.34,0,4.48.98,6.35,2.92,13.34,13.78,11.49,71.31,10.69,95.88l-.06,1.96c-.98,30.78-16.36,49.9-40.15,49.9-1.16,0-2.36-.04-3.56-.13,0,0-.02,0-.03,0-.06,0-.12.01-.18.04-5.38,2.72-10.18,4.1-14.24,4.1h0Z"/>
            <path d="M226.72,325.09c2.26,0,4.24.92,6.07,2.8,13.22,13.66,11.37,71.07,10.58,95.59l-.06,1.96c-.47,14.87-4.32,27.32-11.12,36-6.94,8.85-16.84,13.52-28.63,13.52-1.15,0-2.34-.04-3.53-.13-.02,0-.04,0-.06,0-.12,0-.25.03-.36.09-5.33,2.69-10.06,4.05-14.07,4.05-4.55,0-8.3-1.78-11.13-5.3-13.43-16.66-3.62-66.96-2.38-73.02l17.95-.97c.38-.02.69-.3.75-.68.06-.37-.16-.74-.51-.87l-14.54-5.33c.06-3.07,2-21.04,35.92-58.08,5.85-6.39,10.94-9.63,15.13-9.63M226.72,324.29c-4.22,0-9.38,2.97-15.72,9.89-38.12,41.63-36.11,59.18-36.11,59.18l15.05,5.52-18.56,1s-17.39,79.88,14.16,79.88c3.98,0,8.75-1.27,14.43-4.14,1.22.09,2.41.13,3.59.13,24.91,0,39.59-20.11,40.55-50.29.84-26.35,3.76-101.17-17.39-101.17h0Z"/>
          </g>
          <path class="cls-2" d="M224.04,342.21s-26.41,91.68-24.1,133.01c.02.27.05.53.1.8.71,3.75,6.27,33.77,5.62,56.22-.83,28.54-19.85,175.42-19.85,175.42"/>
          <g>
            <path class="cls-5" d="M118.42,559.1c-5.29,0-12.22-.15-20.59-.45-5.74-.2-8.85-1.92-9.26-5.09-1.41-10.91,28.44-36,58.18-44.95,7.14-2.15,13.57-3.24,19.11-3.24,19.45,0,22.08,13.07,22.18,13.63.03.14.13.26.27.31,20.4,6.47,30.43,12.53,29.81,17.99-1.62,14.32-74.07,21.11-81.31,21.75.57-2.07,2.45-9.25,1.86-12.77-.03-.18-.18-.32-.37-.33,0,0-.02,0-.03,0-.17,0-.33.11-.38.28-2.27,7.46-9.47,12.44-9.54,12.49,0,0,0,0,0,0-.06,0-1.54.38-9.93.38Z"/>
            <path d="M165.85,505.77c19.09,0,21.69,12.76,21.79,13.3.05.29.26.53.54.62,25.15,7.98,29.94,13.96,29.53,17.57-1.35,11.97-57.39,19.36-80.38,21.35.7-2.6,2.27-9.06,1.72-12.39-.06-.37-.37-.64-.74-.67-.02,0-.04,0-.05,0-.35,0-.66.23-.76.57-2.08,6.83-8.38,11.56-9.28,12.2-.4.08-2.36.38-9.81.38-5.28,0-12.21-.15-20.58-.45-5.51-.19-8.5-1.79-8.88-4.74-.65-5.06,5.99-13.82,17.35-22.85,12.18-9.68,26.96-17.58,40.55-21.67,7.1-2.14,13.49-3.22,18.99-3.22M165.85,504.97c-5.16,0-11.48.93-19.22,3.25-37.78,11.37-77.24,49.82-48.82,50.83,9.47.33,16.05.45,20.61.45,9.12,0,10.16-.45,10.16-.45,0,0,7.36-5.02,9.7-12.71.67,4.01-2.01,13.15-2.01,13.15,0,0,142.78-11.81,52.16-40.57,0,0-2.54-13.95-22.57-13.95h0Z"/>
          </g>
          <path class="cls-1" d="M214.68,590.98c.87,1.43,28.09-29.43,57.18-38.12,29.09-8.69,84.6-16.38,51.16-23.57s-45.14-5.53-45.14-5.53l-6.69,15.73,2.85-15.73s-7.2-2.33-22.91,5.53l-2.34,7.19-1.67-7.19s-57.18,20.9-32.43,61.69Z"/>
          <path class="cls-1" d="M211.92,525.51s22.15,18.33,45.22-22.47c23.07-40.79,30.76-43.47,30.76-43.47h-12.04l17.05-5.68s41.8-39.46,18.73-40.79c-23.07-1.34-71.22,15.38-101.98,58.24-18.85,26.26-17.28,45.65,2.26,54.17Z"/>
          <g>
            <path class="cls-5" d="M282.45,605.26c-8.67,0-9.96-.4-10.02-.42.01,0-7.18-4.99-9.46-12.45-.05-.17-.21-.28-.38-.28,0,0-.02,0-.03,0-.19.01-.34.15-.37.33-.59,3.52,1.28,10.7,1.86,12.77-7.24-.64-79.69-7.44-81.31-21.75-.62-5.47,9.41-11.52,29.81-17.99.14-.04.25-.16.27-.31.1-.56,2.73-13.63,22.18-13.63,5.54,0,11.97,1.09,19.11,3.24,29.74,8.95,59.59,34.04,58.18,44.95-.41,3.17-3.53,4.89-9.26,5.09-8.38.29-15.31.45-20.59.45Z"/>
            <path d="M235.01,551.93h0c5.5,0,11.89,1.08,18.99,3.22,13.59,4.09,28.37,11.99,40.55,21.67,11.36,9.03,18.01,17.78,17.35,22.85-.38,2.95-3.37,4.55-8.88,4.74-8.37.3-15.3.45-20.58.45-7.45,0-9.41-.3-9.81-.38-.9-.65-7.2-5.38-9.28-12.2-.1-.34-.41-.57-.76-.57-.02,0-.03,0-.05,0-.37.02-.67.3-.74.67-.55,3.33,1.02,9.79,1.72,12.39-22.99-1.99-79.03-9.38-80.38-21.35-.41-3.61,4.39-9.59,29.53-17.57.28-.09.49-.33.54-.62.1-.54,2.7-13.3,21.79-13.3M235.01,551.13c-20.04,0-22.57,13.95-22.57,13.95-90.62,28.76,52.16,40.57,52.16,40.57,0,0-2.67-9.14-2.01-13.15,2.34,7.69,9.7,12.71,9.7,12.71,0,0,1.04.45,10.16.45,4.56,0,11.13-.11,20.61-.45,28.42-1-11.03-39.46-48.82-50.83-7.74-2.33-14.06-3.25-19.22-3.25h0Z"/>
          </g>
          <path class="cls-1" d="M211.92,525.51s.08-32.83,39.21-67.61"/>
          <path class="cls-1" d="M182.32,584.29s-1.76-10.78-19.81-7.52-18.31,25.58-18.31,25.58l9.7,1.25s-9.7,3.01-8.44,7.77,3.51,14.04,17.81,24.33c14.29,10.28,27.08-4.51,27.08-4.51l-3.85-7.02,8.11,1s37.37-58.43-12.29-40.88Z"/>
          <path class="cls-1" d="M182.32,584.29s-14.04,11.12-13.54,37.7"/>
          <path class="cls-1" d="M170.29,505.23s10.21-9.3-16.97-43.4c-27.18-34.11-33.87-39.79-33.87-39.79l-5.68,11.03-2.01-16.05s-31.1-29.09-42.8-19.39c-11.7,9.7,5.35,65.87,5.35,65.87l13.79,9.36-11.79-1.55s4.8,43.31,35.56,54.19c0,0,32.1-22.2,58.41-20.28Z"/>
          <path class="cls-1" d="M140.86,508.31s-16.72-40.46-47.15-76.91"/>
          <path class="cls-1" d="M212.44,565.08s17.77-6.18,46.29,11.07"/>
        </g>
        <path class="cls-4" d="M132.98,530.75c27.28-15.89,55.45-11.83,55.45-11.83"/>
        <path class="cls-2" d="M182.32,637.22l3.48,70.43c.5-79.82,25.4-109.86,25.4-109.86"/>
        <path class="cls-4" d="M191.84,551.13s3.01,23.51,1.84,30.18"/>
        <path class="cls-4" d="M191.84,624.83l-9.51,81.55s-16.31-58.17-45.73-85.56"/>
        <path class="cls-4" d="M160.7,556.72s2.3,4.14,5.89,19.43"/>
        <path class="cls-4" d="M172.17,639.34s7.91,30.67,10.15,67.04"/>
      </g>
      <rect class="cls-6" x="1.32" width="1366" height="769.96"/>
    </g>
  </g>
</svg>