<?xml version="1.0" encoding="UTF-8"?>
<svg id="Layer_2" xmlns="http://www.w3.org/2000/svg" viewBox="0 0 1399.32 333.16">
  <defs>
    <style>
      .cls-1, .cls-2 {
        stroke-linecap: round;
      }

      .cls-1, .cls-2, .cls-3 {
        fill: #fff;
      }

      .cls-1, .cls-2, .cls-3, .cls-4 {
        stroke: #000;
      }

      .cls-1, .cls-3 {
        stroke-width: 1.53px;
      }

      .cls-1, .cls-3, .cls-4 {
        stroke-miterlimit: 10;
      }

      .cls-2 {
        stroke-linejoin: round;
        stroke-width: 1.49px;
      }

      .cls-4 {
        fill: none;
        stroke-width: 5px;
      }
    </style>
  </defs>
  <g id="Layer_6">
    <g>
      <path d="M49.66,156.7h95.29v47.64c0,26.3-21.35,47.64-47.64,47.64h0c-26.3,0-47.64-21.35-47.64-47.64v-47.64h0Z"/>
      <path d="M120.42,246.39l28.8,76.87c1.06,2.83-.37,5.98-3.2,7.04h0c-2.83,1.06-5.98-.37-7.04-3.2l-28.8-76.87"/>
      <path d="M73.09,245.49l-29.19,77.77c-1.06,2.83.37,5.98,3.2,7.04h0c2.83,1.06,5.98-.37,7.04-3.2l29.15-77.82"/>
      <path d="M91.83,250.75v74.97c0,2.72,2.45,4.93,5.47,4.93h0c3.02,0,5.47-2.21,5.47-4.93v-73.98"/>
      <path class="cls-3" d="M189.85,55.15s3.5-7.44,1.92-12.78c-3.06-8.75-29.14-4.45-29.49-11.72-.35-7.26,26.16,3.75,27.48,4.19,1.31.44,3.76-2.54-1.67-12.51-5.43-9.97-26.51,5.17-28,.45s21.7-7.79,22.75-7.44-6.3-12.16-21-14.43c-14.14-2.18-20.74,22.02-20.99,25.89-2.31-3.7-18.75-21.78-30.26-13.61-12.13,8.61-13.11,23.09-12.33,22.3s22.89-8.41,23.67-3.52c.78,4.89-24.85.78-25.24,12.13s3.13,12.91,4.11,11.93,19.76-22.7,22.7-16.04c2.93,6.65-22.3,14.48-21.13,23.67.98,5.48,7.43,10.57,7.43,10.57,0,0,10.17-28.56,17.61-22.89,3.72,2.54-13.89,13.5-13.11,24.06,0,4.11,6.26,7.83,6.26,7.83,0,0,.78-8.02,3.52-12.33,2.74-4.3,4.3-9.2,7.04-7.24,2.74,1.96-9.39,16.63-4.89,22.89,4.5,6.26,29.54,9.2,33.46,18.39-.62-9.97,19.75-23.81,20.98-31.42,1.22-7.61-16.19-15.31-14.62-18.28,1.57-2.98,5.16.7,9.54,3.32,4.38,2.62,8.66,9.45,8.66,9.45,0,0,3.94-6.13,2.1-9.8-4.03-9.8-24.68-11.72-22.49-15.66,4.11-8.4,25.99,12.59,25.99,12.59Z"/>
      <g>
        <path class="cls-1" d="M82.78,42.14s12.13-17.22-3.91-23.67c-16.04-6.46-27.39,3.33-27.39,3.33,0,0,15.85,9.78,12.72,12.33s-6.26-7.24-12.72-8.41c-6.46-1.17-19.56,10.37-19.56,10.37,0,0,21.02-.98,18.43,6.07-2.58,7.04-15.5-3.91-20.78-3.52-5.28.39-11.15,18.2-11.15,18.2,0,0,19.76-13.11,21.72-6.26,1.96,6.85-15.46-6.26-33.46,28.96.59,0,21.12-9.98,33.85-7.43,0,.2-3.13-9.2.59-9.39s3.26,10.17,3.26,10.17c0,0,21.34,3.59,22.63.46s-.73-18.97,1.43-19.7c6.26-2.09,4.2,15.07,1.04,19.56.37.39,51.55-16.7,13.3-31.04Z"/>
        <path class="cls-1" d="M82.78,42.14s-16.86-.91-35.61,10.72"/>
      </g>
      <g>
        <path class="cls-1" d="M128.38,92.36s-12.13-17.22,3.91-23.67,27.39,3.33,27.39,3.33c0,0-18.39,7.98-15.26,10.52,3.13,2.54,8.8-5.43,15.26-6.61,6.46-1.17,19.56,10.37,19.56,10.37,0,0-21.21-2.4-18.62,4.65,2.58,7.04,15.69-2.49,20.97-2.1,5.28.39,11.15,18.2,11.15,18.2,0,0-16.5-11.91-18.45-5.07-1.96,6.85,12.19-7.46,30.19,27.76-.59,0-21.12-9.98-33.85-7.43,0,.2-4.63-11-8.35-11.2-3.72-.2,4.5,11.98,4.5,11.98,0,0-21.34,3.59-22.63.46s-1.9-18.39-4.07-19.11c-6.26-2.09-1.57,14.48,1.59,18.98-.37.39-51.55-16.7-13.3-31.04Z"/>
        <path class="cls-1" d="M128.38,92.36s16.86-.91,35.61,10.72"/>
      </g>
      <path class="cls-3" d="M81.98,141.28s7.93-2.17,10.96-6.83c4.66-8.01-15.53-25.05-10.23-30.04,5.29-4.98,14.13,22.34,14.65,23.62.52,1.28,4.37,1.21,8.43-9.39,4.06-10.6-21.14-16.81-18.52-21.01,2.63-4.2,20.01,11.44,20.43,12.47s5.16-12.69-2.66-25.34c-7.52-12.18-29.91-2.72-33-.39,1.31-4.16,4.08-27.17-9.61-30.62-14.42-3.64-26.07,5.02-24.97,5.11s21.26,11.95,18.05,15.72c-3.21,3.77-16.73-18.39-25.61-11.32-8.89,7.07-7.79,10.76-6.41,10.87,1.38.11,30.09.3,26.94,6.85-3.15,6.55-25.49-7.57-31.72-.7-3.53,4.3-3.21,12.51-3.21,12.51,0,0,28.33-10.81,28.84-1.47.48,4.48-19.29-1.8-26.81,5.65-3.13,2.67-1.89,9.84-1.89,9.84,0,0,6.61-4.61,11.66-5.32,5.05-.71,9.79-2.7,10.08.66.29,3.35-18.75,3.65-20.59,11.14-1.84,7.49,12.19,28.44,7.73,37.39,7.19-6.94,30.93-.43,37.52-4.44,6.58-4.01,1.13-22.25,4.42-22.99,3.28-.73,2.82,4.38,3.67,9.41.85,5.03-1.56,12.72-1.56,12.72,0,0,7.21-.98,8.82-4.77,4.84-9.42-7.11-26.38-2.69-27.27,9.06-2.33,7.3,27.94,7.3,27.94Z"/>
      <path class="cls-1" d="M72.05,84.36s-20.37,14.97-27.68,34.01"/>
      <path class="cls-1" d="M92.02,62.07s2.98,8.81,4.63,17.06"/>
      <line class="cls-1" x1="89.21" y1="64.18" x2="92.95" y2="77.5"/>
      <path class="cls-1" d="M84.01,140.6s4.21,14.59,4.21,16.1-4.21,0-4.21,0l-5.52-23.15"/>
      <path class="cls-1" d="M117.95,58.08c-6.18,7.58-12.07,28.11-12.07,28.11"/>
      <path class="cls-1" d="M92.02,136.52c-2.3,6.22-2.82,20.17-2.82,20.17h9.27l2.2-20.89"/>
      <line class="cls-1" x1="109.51" y1="96.17" x2="114.2" y2="77.5"/>
      <polyline class="cls-1" points="104.04 138.56 100.67 156.7 104.04 156.7 105.88 139.78"/>
      <path class="cls-2" d="M144.35,157.3l.6,48.82s-.42,45.87-47.64,45.87c0,0,38.4-10.14,38.4-44.91s-.6-49.78-.6-49.78h9.24Z"/>
      <path class="cls-3" d="M101.84,178.99s-7.94-2.12-11.01-6.77c-4.71-7.98,15.38-25.15,10.05-30.1-5.33-4.95-13.99,22.42-14.51,23.71-.51,1.29-4.37,1.24-8.49-9.34-4.13-10.58,21.04-16.94,18.39-21.12-2.65-4.18-19.94,11.56-20.35,12.59s-5.23-12.66,2.51-25.36c7.45-12.22,29.89-2.9,33-.6-1.34-4.15-4.25-27.14,9.42-30.68,14.4-3.73,26.1,4.86,25,4.95s-21.19,12.08-17.95,15.83c3.24,3.75,16.61-18.49,25.54-11.48,8.93,7.02,7.85,10.72,6.48,10.83-1.38.12-30.09.48-26.89,7.01,3.19,6.53,25.45-7.72,31.72-.9,3.56,4.28,3.29,12.49,3.29,12.49,0,0-28.4-10.63-28.85-1.29-.45,4.48,19.28-1.92,26.85,5.49,3.14,2.65,1.95,9.83,1.95,9.83,0,0-6.64-4.57-11.69-5.25-5.06-.68-9.8-2.64-10.07.72-.27,3.36,18.77,3.54,20.65,11.02,1.89,7.48-12.01,28.51-7.5,37.43-7.23-6.9-30.93-.24-37.54-4.21-6.61-3.97-1.27-22.25-4.56-22.96-3.29-.71-2.79,4.4-3.61,9.43-.81,5.04,1.64,12.71,1.64,12.71,0,0-7.22-.94-8.84-4.71-4.9-9.4,6.95-26.42,2.53-27.29-9.07-2.27-7.13,27.99-7.13,27.99Z"/>
      <path class="cls-1" d="M111.91,122.3s20.46,14.84,27.88,33.84"/>
      <line class="cls-4" y1="330.66" x2="1399.32" y2="330.66"/>
    </g>
  </g>
</svg>