<?xml version="1.0" encoding="UTF-8"?>
<svg id="Layer_2" xmlns="http://www.w3.org/2000/svg" xmlns:xlink="http://www.w3.org/1999/xlink" viewBox="0 0 156.61 205.94">
  <defs>
    <style>
      .cls-1 {
        fill: url(#linear-gradient-2);
      }

      .cls-2 {
        fill: url(#linear-gradient-4);
      }

      .cls-3 {
        fill: url(#linear-gradient-3);
      }

      .cls-4 {
        fill: url(#linear-gradient-5);
      }

      .cls-5 {
        fill: url(#linear-gradient);
      }
    </style>
    <linearGradient id="linear-gradient" x1=".05" y1="105.89" x2=".05" y2="105.9" gradientTransform="translate(142.93 105.9) rotate(-180)" gradientUnits="userSpaceOnUse">
      <stop offset="0" stop-color="#38486a"/>
      <stop offset="1" stop-color="#010101"/>
    </linearGradient>
    <linearGradient id="linear-gradient-2" x1="56.34" y1="-115" x2="57.78" y2="-32.47" xlink:href="#linear-gradient"/>
    <linearGradient id="linear-gradient-3" x1="142.87" y1="105.89" x2="142.87" y2="105.9" xlink:href="#linear-gradient"/>
    <linearGradient id="linear-gradient-4" x1="74.67" y1="33.36" x2="77.06" y2="170.84" gradientTransform="matrix(1,0,0,1,0,0)" xlink:href="#linear-gradient"/>
    <linearGradient id="linear-gradient-5" x1="74.67" y1="33.36" x2="77.06" y2="170.84" gradientTransform="translate(170.5) rotate(-180) scale(1 -1)" xlink:href="#linear-gradient"/>
  </defs>
  <g id="Logo">
    <g>
      <g>
        <path class="cls-5" d="M142.82,0h.11s-.04,0-.11,0Z"/>
        <path class="cls-1" d="M56.15,160.38c14.24,16.61,19.58,32.27,29.1,45.56h0c9.52-13.29,14.86-28.95,29.1-45.56,13.74-16.03,40.41-16.37,42.26-16.38-28.02,0-60.29,4.23-71.35,25.68-5.91-18.27-39.49-26.04-71.36-25.68,1.84,0,28.51.34,42.26,16.38Z"/>
        <path class="cls-3" d="M0,0h.11C.04,0,0,0,0,0Z"/>
      </g>
      <path class="cls-2" d="M85.25,163.38c-3.68-7.76-9.88-12.08-17.83-14.04,0,0,8.92-14.26,8.92-50s-11.17-40.85-11.17-40.85l20.09,12v92.89Z"/>
      <path class="cls-4" d="M85.25,163.38c3.68-7.76,9.88-12.08,17.83-14.04,0,0-8.92-14.26-8.92-50,0-35.74,11.17-40.85,11.17-40.85l-20.09,12v92.89Z"/>
    </g>
  </g>
</svg>