<?xml version="1.0" encoding="UTF-8"?>
<svg id="Layer_2" xmlns="http://www.w3.org/2000/svg" viewBox="0 0 1413.45 1413.45">
  <defs>
    <style>
      .cls-1 {
        fill: #fff;
      }

      .cls-2 {
        fill: #ddbfbf;
      }

      .cls-3 {
        fill: #937777;
      }

      .cls-4 {
        fill: #ba9797;
      }

      .cls-5 {
        fill: #937777;
      }

      .cls-6 {
        fill: #0d3439;
      }
    </style>
  </defs>
  <g id="Layer_1-2" data-name="Layer_1">
    <g>
      <circle class="cls-6" cx="706.72" cy="706.72" r="706.72"/>
      <path class="cls-5" d="M801.73,690.54c-37.71,8.97-119.1,140.63-98.85,166.04,20.25,25.4,90.53-39.91,113.96-38.72,23.43,1.19-14.95,64.4,9.26,67.58,24.21,3.19,74.27-112.81,56.14-129.85-18.13-17.04-68.5,7.21-83.57,3.9-15.07-3.31,86-88.67,3.07-68.95Z"/>
      <path class="cls-5" d="M639.12,917.97c8.16,14.52-16.87,46.42,4.28,42.26,18.6-3.66,82.37-52.96,125.17-42.26,31.65,7.91,39.91,38.55,48.95,55.16,6.06,11.14-5.71,16.76-8.1,11.76-19.18-39.97-32.29-44.46-42.45-47.67-10.16-3.21,10.26,24.14,11.38,40.05.83,11.75-11.04,12.33-15.27-4.86-2.84-11.52-8.69-21.56-16.17-34.59-6.66-11.6-34.51-.6-50.56,10.63-16.05,11.23-58.3,41.19-71.68,21.4-13.37-19.79,3.52-71.32,14.44-51.89Z"/>
      <path class="cls-2" d="M858.75,605.5l-159.06-55.9c-12.88,55.63,54.48,127.15-15.61,116.46-70.09-10.7-117.22-32.74-182.36,22.89-26.83,22.91-44.98,51.63-57.06,77.71-22.48,2.96-51.11-21.86-54.91,2.34-4.28,27.28,40.71,83.72,40.71,83.73,25.9,43.33,115.68,162.01,271.89,114.9,188-56.7,156.4-362.12,156.4-362.12Z"/>
      <circle class="cls-2" cx="811.17" cy="560.83" r="138.81"/>
      <circle class="cls-1" cx="792.9" cy="565.86" r="65.26"/>
      <circle cx="792.9" cy="565.86" r="54.38"/>
      <circle class="cls-1" cx="760.93" cy="557.04" r="12.7"/>
      <path class="cls-2" d="M913.02,650.48s41.56,14.24,82.55-12.33c-7.07-49.95-68.39-64.06-68.39-64.06l-14.16,76.39Z"/>
      <path class="cls-3" d="M686.36,950.2s38.28,1.24,51.05,23.75c10.72,18.9,19.26,27.63,13.21,33.34-4.65,4.39-17.37-14.16-22.84-20.23-7.85-8.72-17.91-25.02-25.39-27.8-7.48-2.78-16.04-9.05-16.04-9.05Z"/>
      <path class="cls-4" d="M560.17,950.88c8.16,14.52-16.87,46.42,4.28,42.26,18.6-3.66,82.37-52.96,125.17-42.26,31.65,7.91,39.91,38.55,48.95,55.16,6.06,11.14-5.71,16.76-8.1,11.76-19.18-39.97-32.29-44.46-42.45-47.67-10.16-3.21,10.26,24.14,11.38,40.05.83,11.75-11.04,12.33-15.27-4.86-2.84-11.52-8.69-21.56-16.17-34.59-6.66-11.6-34.51-.6-50.56,10.63-16.05,11.23-58.3,41.19-71.68,21.4-13.37-19.79,3.52-71.32,14.44-51.89Z"/>
      <path class="cls-2" d="M582.38,946.65c0,21.36-17.32,38.68-38.68,38.68s-30.15-19.09-38.68-38.68c-33.16-76.12,14.41-88.42,35.78-88.42s41.58,67.06,41.58,88.42Z"/>
      <ellipse class="cls-2" cx="793.69" cy="736.4" rx="64.89" ry="60.13" transform="translate(-159.59 1249.71) rotate(-71.16)"/>
      <path class="cls-4" d="M663.8,707.66c-73.91,8.1-162.07,87.72-152.44,118.75,9.63,31.02,98.84-4.28,120.24,5.35,21.4,9.63-37.34,54.56-15.94,66.33,21.4,11.77,110.19-78.1,99.49-100.56-10.7-22.47-82.56-19.35-95.4-27.91-12.84-8.56,128.78-71.24,44.05-61.95Z"/>
    </g>
  </g>
</svg>