<?xml version="1.0" encoding="UTF-8"?>
<svg id="Layer_2" xmlns="http://www.w3.org/2000/svg" viewBox="0 0 328.75 220.62">
  <defs>
    <style>
      .cls-1 {
        fill: #feecac;
      }
    </style>
  </defs>
  <g id="Layer_1-2" data-name="Layer_1">
    <g>
      <path class="cls-1" d="M102.09,14.41c-1.2,12.55,12.77,44.24,34.24,48.68,3.89.74,5.55-2.04.74-5.92s-19.81-4.26-25.54-26.47c-5.74-22.21-8.7-24.06-9.44-16.29Z"/>
      <path class="cls-1" d="M225.35,14.11c1.11,11.65-11.86,41.07-31.79,45.2-3.61.69-5.16-1.89-.69-5.5s18.39-3.95,23.72-24.57,8.08-22.34,8.76-15.12Z"/>
      <path class="cls-1" d="M210.85,1.5c-1.02-4.66-18.13,2.49-21.45,8.74-3.32,6.26-4.21,11.68-9.83,13.66-5.62,1.98-8.11,4.6-8.55,7.91,0,.06-.96-2.62-4.53-2.62s-4.53,2.68-4.53,2.62c-.45-3.32-2.94-5.94-8.55-7.91-5.62-1.98-6.51-7.4-9.83-13.66-3.32-6.26-20.43-13.4-21.45-8.74-1.02,4.66,3.89.51,13.15,6.96,9.26,6.45,11.49,14.94,14.36,17.87,2.87,2.94,7.85,2.74,7.66,5.43-2.17,1.02-2.43,2.74-2.43,2.74,0,0-13.72-1.21-13.72,9.7s9.45,11.36,9.45,11.36c0,0,4.47-4.98,15.89-4.98s15.89,4.98,15.89,4.98c0,0,9.45-.45,9.45-11.36s-13.72-9.7-13.72-9.7c0,0-.26-1.72-2.43-2.74-.19-2.68,4.79-2.49,7.66-5.43s5.11-11.43,14.36-17.87c9.26-6.45,14.17-2.3,13.15-6.96Z"/>
      <circle class="cls-1" cx="165.95" cy="84.74" r="29.53"/>
      <path class="cls-1" d="M133.03,103.19c4.63.16,6.92,3.24,2.55,5.46,0,0-7.06,1.87-11.91,10.04s-11.02,13.79-11.7,49.53c.17,22.98-8.51,32-9.7,29.36s2.21-6.55,2.89-13.19-6.47-43.91,6.47-62.98,21.4-18.22,21.4-18.22Z"/>
      <path class="cls-1" d="M197.92,103.19c-4.63.16-6.92,3.24-2.55,5.46,0,0,7.06,1.87,11.91,10.04,4.85,8.17,11.02,13.79,11.7,49.53-.17,22.98,8.51,32,9.7,29.36s-2.21-6.55-2.89-13.19,6.47-43.91-6.47-62.98c-12.94-19.06-21.4-18.22-21.4-18.22Z"/>
      <path class="cls-1" d="M187.25,113.05c-7.32,6.98-21.3,7.32-21.3,7.32,0,0-13.98-.34-21.3-7.32,0,0-12.94,8.34-13.62,44.94-.68,36.6,31.87,62.64,34.91,62.64s35.6-26.04,34.91-62.64c-.68-36.6-13.62-44.94-13.62-44.94Z"/>
      <path class="cls-1" d="M193.69,64.49s18.13,2.55,35.23-5.49,32.94-28.6,63.45-25.91,39.19,14.17,35.62,25.4-14.68,23.23-34.98,22.21c24-5.23,35.87-19.79,32.04-29.11s-14.11-14.38-28.53-15.91c5.87,2.3,14.53,7.32,17.6,16.13-4.68-10.55-21.18-16.57-31.27-16.19s-26.16,6.54-39.56,18.8c8.04,1.4,26.51-4.44,27.87-6.65,4.89-7.95,15.09-9.83,20.7-7.79-8.55-1.15-16.11,3.87-19.94,10.26-2.55,3.96-25.64,6.41-39.17,10.2s-33.45,8.9-33.45,8.9c-6.52,2.52-8.68-5.27-5.62-4.85Z"/>
      <path class="cls-1" d="M203.99,69.9s17.11-1.66,33.32-4.98,24.77-9.7,38.68-10.09,36.96,3,42.45,0c-2.62,2.43-3.38,5.68-3.38,5.68,0,0,.89-2.23-6.96-2.68s-32.16-2.58-40.13.15c-9.63,3.29-28.15,7.66-21.32,10.09s17.96,8.96,33.02,7.74,30.72-13.13,30.72-13.13c0,0-14.55,14.87-33.64,14.62s-29.81-7.85-38.3-8.62-34.47,1.21-34.47,1.21Z"/>
      <path class="cls-1" d="M293.04,105.57c-9.63-21.18-47.86-26.14-67.29-27.31-19.43-1.17-25.48-3.86-25.48-3.86-2.31-.57-2.93,1.91-.61,2.48,0,0,11.06,2.6,18.72,4.49s27.92,9.52,28.83,13.82c.91,4.3-8.67-.04-13.76-3.92-5.09-3.89-28.8-11.71-29.47-8.19s7.51,6.06,12.83,14.87c5.32,8.81,12.11,22.32,39.67,31.09,27.55,8.77,46.19-2.28,36.56-23.46ZM238.37,118.25c-14.28-11.94-16.07-19.08-20.17-23.25-4.1-4.17-15.74-11.25-10.92-10.85,4.82.4,25.76,4.52,30.38,25.25,1.13-5.11-8.51-17.75-2-14.82,6.51,2.92,24.63,15.81,31.22,22.17,6.58,6.36,19.33,4.24,21.83,0-4.64,2.27-10.39,5.85-20.97-2.41-10.58-8.27-17.47-11.8-18.32-15.3-.85-3.5-2.85-8.2-.46-6.95,2.39,1.25,19.85,10.42,26.2,10.28-5.58-2.43-20.75-10.25-32.22-14.92-11.47-4.67-19.68-7.62-19.68-7.62,0,0,28.04,2.04,46.57,9.32,5.51,2.17,26.53,12.01,23.09,29.69-3.44,17.69-40.28,11.36-54.56-.58Z"/>
      <path class="cls-1" d="M135.05,67.23s-18.13,2.55-35.23-5.49c-17.11-8.04-32.94-28.6-63.45-25.91S-2.82,49.99.75,61.23s14.68,23.23,34.98,22.21C11.73,78.21-.14,63.65,3.69,54.33s14.11-14.38,28.53-15.91c-5.87,2.3-14.53,7.32-17.6,16.13,4.68-10.55,21.18-16.57,31.27-16.19s26.16,6.54,39.56,18.8c-8.04,1.4-26.51-4.44-27.87-6.65-4.89-7.95-15.09-9.83-20.7-7.79,8.55-1.15,16.11,3.87,19.94,10.26,2.55,3.96,25.64,6.41,39.17,10.2s33.45,8.9,33.45,8.9c6.52,2.52,8.68-5.27,5.62-4.85Z"/>
      <path class="cls-1" d="M124.75,72.63s-17.11-1.66-33.32-4.98-24.77-9.7-38.68-10.09c-13.91-.38-36.96,3-42.45,0,2.62,2.43,3.38,5.68,3.38,5.68,0,0-.89-2.23,6.96-2.68s32.16-2.58,40.13.15c9.63,3.29,28.15,7.66,21.32,10.09s-17.96,8.96-33.02,7.74c-15.06-1.21-30.72-13.13-30.72-13.13,0,0,14.55,14.87,33.64,14.62,19.09-.26,29.81-7.85,38.3-8.62s34.47,1.21,34.47,1.21Z"/>
      <path class="cls-1" d="M72.26,131.76c27.55-8.77,34.34-22.28,39.67-31.09,5.32-8.81,13.5-11.35,12.83-14.87s-24.38,4.31-29.47,8.19c-5.09,3.89-14.67,8.22-13.76,3.92.91-4.3,21.17-11.93,28.83-13.82s18.72-4.49,18.72-4.49c2.31-.57,1.7-3.05-.61-2.48,0,0-6.04,2.68-25.48,3.86-19.43,1.17-57.66,6.13-67.29,27.31-9.63,21.18,9,32.23,36.56,23.46ZM35.82,121.56c-3.44-17.69,17.58-27.53,23.09-29.69,18.53-7.28,46.57-9.32,46.57-9.32,0,0-8.21,2.95-19.68,7.62-11.47,4.67-26.64,12.49-32.22,14.92,6.35.14,23.81-9.03,26.2-10.28,2.39-1.25.39,3.45-.46,6.95-.85,3.5-7.73,7.04-18.32,15.3-10.58,8.27-16.33,4.69-20.97,2.41,2.49,4.25,15.24,6.36,21.83,0,6.58-6.36,24.71-19.24,31.22-22.17,6.51-2.92-3.13,9.71-2,14.82,4.62-20.73,25.56-24.85,30.38-25.25,4.82-.4-6.82,6.68-10.92,10.85-4.1,4.17-5.89,11.31-20.17,23.25-14.28,11.94-51.11,18.26-54.56.58Z"/>
    </g>
  </g>
</svg>