<?xml version="1.0" encoding="UTF-8"?>
<svg id="Layer_2" data-name="Layer 2" xmlns="http://www.w3.org/2000/svg" viewBox="0 0 79.79 79.79">
  <defs>
    <style>
      .cls-1 {
        fill: #fff;
        stroke: #000;
        stroke-miterlimit: 10;
        stroke-width: 2px;
      }
    </style>
  </defs>
  <g id="Layer_6" data-name="Layer 6">
    <g>
      <circle class="cls-1" cx="39.89" cy="39.89" r="7.83"/>
      <path class="cls-1" d="M37.77,32.06l-3.28-25.74c0-7.1,10.81-7.1,10.81,0l-2.93,25.68-4.6.06Z"/>
      <path class="cls-1" d="M34.93,33.47l-12.88-22.52c-2.72-6.56,7.27-10.7,9.99-4.14l7.12,24.85-4.23,1.81Z"/>
      <path class="cls-1" d="M32.85,35.86l-20.52-15.88c-5.02-5.02,2.62-12.67,7.64-7.64l16.08,20.23-3.21,3.29Z"/>
      <path class="cls-1" d="M31.85,38.86l-25.03-6.82c-6.56-2.72-2.43-12.7,4.14-9.99l22.6,12.54-1.71,4.27Z"/>
      <path class="cls-1" d="M32.06,42.02l-25.74,3.28c-7.1,0-7.1-10.81,0-10.81l25.68,2.93.06,4.6Z"/>
      <path class="cls-1" d="M33.47,44.85l-22.52,12.88c-6.56,2.72-10.7-7.27-4.14-9.99l24.85-7.12,1.81,4.23Z"/>
      <path class="cls-1" d="M35.86,46.93l-15.88,20.52c-5.02,5.02-12.67-2.62-7.64-7.64l20.23-16.08,3.29,3.21Z"/>
      <path class="cls-1" d="M38.86,47.94l-6.82,25.03c-2.72,6.56-12.7,2.43-9.99-4.14l12.54-22.6,4.27,1.71Z"/>
      <path class="cls-1" d="M42.02,47.72l3.28,25.74c0,7.1-10.81,7.1-10.81,0l2.93-25.68,4.6-.06Z"/>
      <path class="cls-1" d="M44.85,46.31l12.88,22.52c2.72,6.56-7.27,10.7-9.99,4.14l-7.12-24.85,4.23-1.81Z"/>
      <path class="cls-1" d="M46.93,43.93l20.52,15.88c5.02,5.02-2.62,12.67-7.64,7.64l-16.08-20.23,3.21-3.29Z"/>
      <path class="cls-1" d="M47.94,40.93l25.03,6.82c6.56,2.72,2.43,12.7-4.14,9.99l-22.6-12.54,1.71-4.27Z"/>
      <path class="cls-1" d="M47.72,37.77l25.74-3.28c7.1,0,7.1,10.81,0,10.81l-25.68-2.93-.06-4.6Z"/>
      <path class="cls-1" d="M46.31,34.93l22.52-12.88c6.56-2.72,10.7,7.27,4.14,9.99l-24.85,7.12-1.81-4.23Z"/>
      <path class="cls-1" d="M43.93,32.85l15.88-20.52c5.02-5.02,12.67,2.62,7.64,7.64l-20.23,16.08-3.29-3.21Z"/>
      <path class="cls-1" d="M40.93,31.85l6.82-25.03c2.72-6.56,12.7-2.43,9.99,4.14l-12.54,22.6-4.27-1.71Z"/>
    </g>
  </g>
</svg>