<?xml version="1.0" encoding="UTF-8"?>
<svg id="Layer_2" xmlns="http://www.w3.org/2000/svg" viewBox="0 0 1413.45 1413.45">
  <defs>
    <style>
      .cls-1 {
        fill: #84a1ad;
      }

      .cls-2 {
        fill: #664908;
      }

      .cls-3 {
        fill: #00011f;
      }

      .cls-4 {
        fill: #fff;
      }

      .cls-5 {
        fill: #cbe7f2;
      }

      .cls-6 {
        fill: #a30408;
      }

      .cls-7 {
        fill: #c97177;
      }

      .cls-8 {
        fill: #f3feff;
      }

      .cls-9 {
        fill: #ff9094;
      }

      .cls-10 {
        fill: #d2c090;
      }

      .cls-11 {
        fill: #00314f;
      }

      .cls-12 {
        fill: #71846e;
      }

      .cls-13 {
        fill: #ff900a;
      }

      .cls-14 {
        fill: #ff4a49;
      }

      .cls-15 {
        fill: #aec6d2;
      }

      .cls-16 {
        fill: #bb3005;
      }
    </style>
  </defs>
  <g id="Layer_1-2" data-name="Layer_1">
    <g>
      <circle class="cls-12" cx="706.72" cy="706.72" r="706.72"/>
      <g>
        <path class="cls-7" d="M589.52,935.59c-1.26,10.16,38.01,57.58,42.28,74.52,4.27,16.94-53.26,64.35-56.58,74.52-3.31,10.16,80.06,29.35,80.52,45.16.46,15.81-31.83-.38-32.67-6.4-.84-6.02-46.55-14.68-55.36-24.09-3.77,9.78-33.13,18.06-36.49,21.08s-.42,30.86-10.49,33.49c-10.07,2.63-14.26-22.58-6.71-31.99,7.55-9.41,34.81-22.58,38.17-28.98-15.52,7.53-54.1,20.32-66.27,21.83-5.03,0-9.23,22.96-20.13,22.96s-2.94-24.84,5.03-29.73c7.97-4.89,75.49-22.2,84.3-30.86,8.81-8.66,61.23-48.17,60.39-64.73-.84-16.56-55.36-65.48-55.36-65.48l29.36-11.29Z"/>
        <path class="cls-9" d="M745.64,911.28c-1.56,13.98,47.09,79.23,52.39,102.53,5.3,23.3-66,88.55-70.1,102.53-4.11,13.98,99.2,40.39,99.77,62.14.57,21.75-39.44-.52-40.48-8.8s-57.68-20.2-68.59-33.14c-4.68,13.46-41.05,24.86-45.21,29-4.16,4.14-.52,42.46-12.99,46.09-12.47,3.62-17.67-31.07-8.31-44.02,9.35-12.95,43.13-31.07,47.29-39.87-19.23,10.36-67.03,27.96-82.1,30.03-6.24,0-11.43,31.59-24.94,31.59-13.51,0-3.64-34.18,6.24-40.91,9.87-6.73,93.54-30.55,104.45-42.46,10.91-11.91,75.87-66.28,74.83-89.07-1.04-22.78-68.59-90.1-68.59-90.1l36.38-15.54Z"/>
        <path class="cls-1" d="M453.77,483.98s-154.85-19.82-184.59,90.22c-29.74,110.04-5.18,231.02,119.64,236.12,124.82,5.1,274.78-21.31,359.39-72.28,84.61-50.96,79.23-84.92,65.29-88.85-13.95-3.93-29.35-6.22-29.35-6.22,0,0,9.79-2.02,7.2-8.9-2.6-6.88-268.41-137.51-337.58-150.1Z"/>
        <path class="cls-15" d="M1330.61,869.79c38.16-10.41-4.65-41.95-66.84-50.5-62.2-8.55-222.99-99.16-255.16-111.98-32.17-12.82-117.96-173.12-285.25-241.51,0,0-64.34-29.92-87.93-64.12-23.59-34.2-90.08-94.04-137.26-106.86-47.18-12.82-135.12-19.24-208.04,74.8-27.88,38.47,12.48,191.62-2.54,234.36-15.01,42.75,9.09,149.61,60.57,226.55,51.47,76.94,153.33,148.47,249.84,157.02,96.51,8.55,236.61-62.27,363.94-106.48,94.24-32.71,291.47,3.68,368.68-11.28"/>
        <path class="cls-4" d="M445.23,445.37s-23.27,1.16-30.59-17.81c-.22-.13-44.79-16.39-44.79-16.39,0,0,23.66,68.21,18.97,101.48,0,.53-.4,5.34-.4,5.34,0,0,25.5,6.47,34.53,18.2,12.92-12.46,35.55-71.14,22.29-90.82Z"/>
        <path class="cls-13" d="M465.58,435.79s11.23-20.43,28.6-22.47c17.36-2.04,57.19-2.04,60.77,51.06,3.57,53.11-22.98,100.6-67.4,90.89-44.43-9.7-60.26-11.74-60.26-18.38s39.32-67.4,38.3-101.11Z"/>
        <path class="cls-3" d="M341.79,368.37s36.32,43.42,50.26,84.03c7.86,22.91,9.38,37.27,3.2,53.61-4.71,12.45-7.51,13.89-10.01,9.62,0,0-51.87-124.96-43.45-147.26Z"/>
        <path class="cls-3" d="M445.23,445.37c21.91-3.86,20.67-19.61,19.67-3.43-.54,8.72-1.49,33.53-5.73,51.03-4.24,17.5-20.11,32.07-23.3,36.98-9.21,14.23-14.53,4.3-14.53,4.3,0,0,36.42-57.61,23.88-88.89Z"/>
        <path class="cls-14" d="M382.31,495.06s-79.36,29.92-145.84-27.78c15.01-64.12,79.36-102.59,100.8-100.45,21.45,2.14,23.59,67.95,23.59,67.95,0,0,23.59,6.85,21.45,60.28Z"/>
        <path class="cls-2" d="M442.61,441.53c15.42,0,27.97-12.04,27.97-26.84,0-14.8-12.55-26.83-27.97-26.83-15.42,0-27.97,12.04-27.97,26.83,0,14.8,12.55,26.84,27.97,26.84Z"/>
        <path class="cls-16" d="M445.16,631.11s38.27,11.49,67.74,9.19c58.9-4.6,79.2-38.81,143.5,62.81,64.3,101.62,344.4,53.11,375.33,61.28,30.92,8.17,108.67,34.21-131.58,110.3-164.7,52.16-455.3-42.6-454.98-243.57Z"/>
        <ellipse class="cls-3" cx="442.61" cy="414.7" rx="23.77" ry="23.14"/>
        <ellipse class="cls-8" cx="432.26" cy="405.71" rx="5.32" ry="5.17"/>
        <path class="cls-10" d="M286.16,605.84s41.47,49.8,148.79,26.55c61.28-13.28,22.47,118.21,178.72,193.28,252.22,121.16,315.55-20.06,437-13.56-146.95,110.83-180.09,133.69-295.04,168.02-132.1,39.45-254.43-2.45-322.05-59.11-84.81-71.06-171.84-169.77-147.41-315.18Z"/>
        <path class="cls-5" d="M520.15,309.68c24.75,7.41,22.26,25.28,12.4,32.24-2.03,1.43-4.64-.35-4.1-2.76,2.81-12.56-3.82-21.12-10.06-26.16-1.66-1.34-.29-3.93,1.76-3.32Z"/>
        <path class="cls-5" d="M549.64,334.96c24.75,7.41,22.26,25.28,12.4,32.24-2.03,1.43-4.64-.35-4.1-2.76,2.81-12.56-3.82-21.12-10.06-26.16-1.66-1.34-.29-3.93,1.76-3.32Z"/>
        <path class="cls-5" d="M485.94,298.14c25.63-3.32,30.69,14,24.55,24.36-1.26,2.13-4.38,1.57-4.88-.85-2.59-12.61-12.16-17.71-19.92-19.77-2.06-.55-1.88-3.47.24-3.74Z"/>
        <path class="cls-5" d="M516.02,338.65c25.63-3.32,30.69,14,24.55,24.36-1.26,2.13-4.38,1.57-4.88-.85-2.59-12.61-12.16-17.71-19.92-19.77-2.06-.55-1.88-3.47.24-3.74Z"/>
        <path class="cls-5" d="M452.53,291.86c25.06-6.28,32.12,10.33,27.24,21.34-1,2.26-4.17,2.07-4.95-.28-4.05-12.22-14.15-16.17-22.1-17.32-2.11-.3-2.27-3.23-.2-3.75Z"/>
        <path class="cls-5" d="M479.73,322.31c25.06-6.28,32.12,10.33,27.24,21.34-1,2.26-4.17,2.07-4.95-.28-4.05-12.22-14.15-16.17-22.1-17.32-2.11-.3-2.27-3.23-.2-3.75Z"/>
        <path class="cls-5" d="M494.81,355.96c25.06-6.28,32.12,10.33,27.24,21.34-1,2.26-4.17,2.07-4.95-.28-4.05-12.22-14.15-16.17-22.1-17.32-2.11-.3-2.27-3.23-.2-3.75Z"/>
        <path class="cls-6" d="M360.86,434.77s-36.75,13-124.4,32.5c71.56-4.01,133.38-25.74,133.38-25.74,0,0-2.89-3.91-8.98-6.76Z"/>
        <path class="cls-9" d="M289.3,402.35c1.71,6.56,10.51,7.18,17.09,5.48,6.58-1.7,27.51-10.67,25.81-17.23-1.71-6.56-12.76-9.83-19.35-8.13-6.58,1.7-25.26,13.33-23.55,19.88Z"/>
        <path class="cls-11" d="M1322.95,851.28c36.32,6.18,131.84-11.38-293.93-149.6-38.91-7.75,21.64,110.42,21.64,110.42,0,0,237.31,33.22,272.29,39.17"/>
        <path class="cls-15" d="M1235.62,774.27s-34.4,49.83,3.84,96.24c.18,0-38.74.61-38.74.61,0,0-22.56-24.89-23.43-61.07-.87-36.18,11.64-52.39,19-50.9,7.35,1.49,39.33,15.12,39.33,15.12Z"/>
        <path class="cls-15" d="M1145.24,740.57s-34.4,49.83,3.84,96.24c.18,0-38.74.61-38.74.61,0,0-22.56-24.89-23.43-61.07-.87-36.18,11.64-52.39,19-50.9,7.35,1.49,39.33,15.12,39.33,15.12Z"/>
        <path class="cls-1" d="M700.99,791.2s296.51,77.97,372.31-72.23c-.84-.16-16.23,7.71-16.23,7.71l-356.08,64.52"/>
        <g>
          <path class="cls-5" d="M790.73,494.41s-139.53-69.31-175.68,48.09c-32.09,104.22-17.34,263.28,199.4,259.08,216.74-4.2-310.46-94.09-23.72-307.17Z"/>
          <path class="cls-15" d="M804.11,496.12s-121.71-38.18-157.26,62.15c-35.55,100.33-28.84,217.83,70.43,238.32,99.27,20.49,222.02,14.35,295.13-23.23,73.11-37.57,72.44-70.36,61.71-75.82-10.73-5.46-22.81-9.56-22.81-9.56,0,0,8.05-.68,6.71-7.51s-199.94-163.75-253.91-184.34Z"/>
          <path class="cls-5" d="M1024.54,684.86l-154.9-54.76c-10.92-3.6-13.66,3.75-2.28,6.45s157.17,48.31,157.17,48.31Z"/>
          <path class="cls-5" d="M1033.19,702.48l-188.8-24.17c-11.48-.84-18.82,3.85,24.57,7.88,11.65,1.08,164.23,16.29,164.23,16.29Z"/>
          <path class="cls-5" d="M1031.65,724.2l-196.51-4.67c-13.78.43-15.7,7.21,34.45,4.33,13.98-.8,162.06.34,162.06.34Z"/>
          <path class="cls-5" d="M994.3,753.18l-141.3-.24c-20.84-.79-29.09,5.32,12.42,2.9,11.68-.68,128.88-2.66,128.88-2.66Z"/>
          <path class="cls-5" d="M828.73,617.81c35.07,14.85,14.74,67.79-18.04,55.19-26.7-7.8,12.04,2.59,23.82-17.92,17.22-30-32.94-49.2-5.79-37.27Z"/>
          <path class="cls-5" d="M802.42,675.3c37.35.41,33.5,49.86-1.03,50.51-27.43,2.52,12.1-1.88,17.27-22.33,7.56-29.9-45.28-28.84-16.24-28.18Z"/>
          <path class="cls-5" d="M796.75,730.47c36.33-2.43,40.58,36.95,6.91,40.01-17.6-1.2,14.11,1.4,14.11-16.8,0-25.95-39.6-22.2-21.02-23.21Z"/>
          <path class="cls-5" d="M798.69,582.44c35.07,14.85,14.74,67.79-18.04,55.19-26.7-7.8,12.04,2.59,23.82-17.92,17.22-30-32.94-49.2-5.79-37.27Z"/>
          <path class="cls-5" d="M772.37,639.94c37.35.41,33.5,49.86-1.03,50.51-27.43,2.52,12.1-1.88,17.27-22.33,7.56-29.9-45.28-28.84-16.24-28.18Z"/>
          <path class="cls-5" d="M766.7,695.11c36.33-2.43,40.58,36.95,6.91,40.01-17.6-1.2,14.11,1.4,14.11-16.8,0-25.95-39.6-22.2-21.02-23.21Z"/>
        </g>
        <path class="cls-3" d="M400.37,596.91c10.75,5.82,21.86,10.19,34.24,9.51,0,0-22.23,7.4-34.24-9.51Z"/>
        <path class="cls-3" d="M365.14,548.4c10.75,5.82,21.86,10.19,34.24,9.51,0,0-22.23,7.4-34.24-9.51Z"/>
        <path class="cls-3" d="M425.39,583.12c10.75,5.82,21.86,10.19,34.24,9.51,0,0-22.23,7.4-34.24-9.51Z"/>
        <path class="cls-3" d="M356.97,582.1c10.75,5.82,21.86,10.19,34.24,9.51,0,0-22.23,7.4-34.24-9.51Z"/>
        <path class="cls-3" d="M309.4,583.66c12.09,1.79,24.03,2.08,35.43-2.8,0,0-18.34,14.57-35.43,2.8Z"/>
        <path class="cls-3" d="M291.01,568.86c12.09,1.79,24.03,2.08,35.43-2.8,0,0-18.34,14.57-35.43,2.8Z"/>
        <path class="cls-3" d="M341.35,530.95c11.58,3.91,23.28,6.33,35.36,3.55,0,0-20.65,11.07-35.36-3.55Z"/>
        <path class="cls-3" d="M338.28,565c11.58,3.91,23.28,6.33,35.36,3.55,0,0-20.65,11.07-35.36-3.55Z"/>
        <path class="cls-3" d="M383.39,574.44c10.92,5.5,22.16,9.53,34.51,8.48,0,0-22,8.06-34.51-8.48Z"/>
        <rect class="cls-4" x="640.19" y="759.07" width="7.85" height="17.51" rx="3.93" ry="3.93" transform="translate(-352.86 870.2) rotate(-55.87)"/>
        <path class="cls-3" d="M309.46,552.1c12.15,1.37,24.09,1.26,35.31-4.01,0,0-17.84,15.19-35.31,4.01Z"/>
        <path class="cls-3" d="M290.31,535.75c12.15,1.37,24.09,1.26,35.31-4.01,0,0-17.84,15.19-35.31,4.01Z"/>
        <path class="cls-3" d="M341.86,597.88c-56.54-7.62-55.71,7.96-55.71,7.96,0,0,16.28,62.86,47.17,63.32,69.45,1.02,125.77-32.98,125.77-32.98,0,0-71.1-32.08-117.24-38.29ZM292.29,607.14c12.09,1.79,24.03,2.08,35.43-2.8,0,0-15.84,20.05-35.43,2.8ZM310.56,621.53c12.15,1.37,24.09,1.26,35.31-4.01,0,0-15.96,20.32-35.31,4.01ZM333.77,604.49c11.58,3.91,23.28,6.33,35.36,3.55,0,0-22.19,17.37-35.36-3.55Z"/>
        <rect class="cls-4" x="501.93" y="672.01" width="7.85" height="17.51" rx="3.93" ry="3.93" transform="translate(-233.4 265.04) rotate(-24.03)"/>
        <rect class="cls-4" x="548.46" y="753.34" width="7.85" height="17.51" rx="3.93" ry="3.93" transform="translate(-342.44 470.19) rotate(-36)"/>
        <rect class="cls-4" x="693.49" y="794.19" width="7.85" height="17.51" rx="3.93" ry="3.93" transform="translate(-298.1 1177.2) rotate(-69.63)"/>
        <rect class="cls-4" x="738.93" y="825.85" width="7.85" height="17.51" rx="3.93" ry="3.93" transform="translate(-161.59 1490.63) rotate(-84.28)"/>
        <rect class="cls-4" x="823.72" y="824.29" width="17.51" height="7.85" rx="3.93" ry="3.93"/>
        <rect class="cls-4" x="879.38" y="834.76" width="17.51" height="7.85" rx="3.93" ry="3.93" transform="translate(-126.7 158.77) rotate(-9.54)"/>
        <rect class="cls-4" x="907.21" y="815.1" width="17.51" height="7.85" rx="3.93" ry="3.93" transform="translate(-123.06 163.11) rotate(-9.54)"/>
        <rect class="cls-4" x="1000.15" y="786.93" width="17.51" height="7.85" rx="3.93" ry="3.93" transform="translate(-231.63 467.7) rotate(-23.49)"/>
        <rect class="cls-4" x="950.1" y="819.44" width="17.51" height="7.85" rx="3.93" ry="3.93" transform="translate(-200.1 319.23) rotate(-17.14)"/>
        <rect class="cls-4" x="777.76" y="861.83" width="17.51" height="7.85" rx="3.93" ry="3.93"/>
        <rect class="cls-4" x="841.31" y="854.83" width="17.51" height="7.85" rx="3.93" ry="3.93" transform="translate(-77.63 84.51) rotate(-5.44)"/>
        <rect class="cls-4" x="694" y="838.1" width="7.85" height="17.51" rx="3.93" ry="3.93" transform="translate(-316.18 1266.22) rotate(-72.97)"/>
        <rect class="cls-4" x="777.74" y="809" width="7.85" height="17.51" rx="3.93" ry="3.93" transform="translate(-122.85 1497.14) rotate(-83.2)"/>
        <rect class="cls-4" x="606.1" y="798.9" width="7.85" height="17.51" rx="3.93" ry="3.93" transform="translate(-400.79 859.47) rotate(-55.87)"/>
        <rect class="cls-4" x="652.19" y="801.33" width="7.85" height="17.51" rx="3.93" ry="3.93" transform="translate(-359.97 1043.07) rotate(-63.91)"/>
        <rect class="cls-4" x="537.57" y="653.08" width="7.85" height="17.51" rx="3.93" ry="3.93" transform="translate(-222.61 277.92) rotate(-24.03)"/>
        <rect class="cls-4" x="560.48" y="712.52" width="7.85" height="17.51" rx="3.93" ry="3.93" transform="translate(-306.86 439) rotate(-34.01)"/>
        <rect class="cls-4" x="602.59" y="722.7" width="7.85" height="17.51" rx="3.93" ry="3.93" transform="translate(-307.72 472.5) rotate(-34.52)"/>
        <rect class="cls-4" x="581.59" y="666.9" width="7.85" height="17.51" rx="3.93" ry="3.93" transform="translate(-224.42 297.05) rotate(-24.03)"/>
      </g>
    </g>
  </g>
</svg>