<?xml version="1.0" encoding="UTF-8"?>
<svg id="Layer_2" xmlns="http://www.w3.org/2000/svg" viewBox="0 0 1399.32 642.86">
  <defs>
    <style>
      .cls-1 {
        stroke-width: .91px;
      }

      .cls-1, .cls-2, .cls-3, .cls-4, .cls-5, .cls-6, .cls-7, .cls-8 {
        fill: none;
      }

      .cls-1, .cls-2, .cls-4, .cls-5, .cls-9, .cls-10, .cls-6, .cls-11, .cls-7, .cls-8 {
        stroke-linecap: round;
      }

      .cls-1, .cls-2, .cls-4, .cls-9, .cls-10, .cls-6, .cls-11, .cls-7, .cls-8 {
        stroke-linejoin: round;
      }

      .cls-1, .cls-2, .cls-5, .cls-12, .cls-11, .cls-8 {
        stroke: #fff;
      }

      .cls-2, .cls-4, .cls-10, .cls-6, .cls-11 {
        stroke-width: .86px;
      }

      .cls-4, .cls-9, .cls-10, .cls-6, .cls-7 {
        stroke: #000;
      }

      .cls-5, .cls-12 {
        stroke-miterlimit: 10;
      }

      .cls-9, .cls-10 {
        fill: #fff;
      }

      .cls-9, .cls-7 {
        stroke-width: 1.01px;
      }

      .cls-6 {
        stroke-dasharray: 11.57 11.57;
      }

      .cls-8 {
        stroke-width: .91px;
      }
    </style>
  </defs>
  <g id="Layer_2-2" data-name="Layer_2">
    <g>
      <g>
        <path class="cls-10" d="M286.16,104.19s9.91-9.65,5.14-21.68c-5.48-13.81,4.03-21.5-1.17-48.12-3.63-18.62-13.98-28.32-22.15-28.83-2.06-.13-4-.92-5.72-2.07-10.29-6.89-35.93-1.91-46.1,12.66-20,28.66-5.2,32.58-15.92,55.51-8.78,18.77,3.36,26.27-1.75,33.39,22.1-16.38,76.43-14.36,87.66-.85Z"/>
        <path class="cls-10" d="M308.11,119.56s4-5.05,3.55-6.31-.94-10.15,2.64-15.6,7.17-13.59,8.37-10.29-4.61,11.45-2.31,16.1c.7,1.42,17.61-18.53,17.61-18.53,2.06-2.31,4.83-2.4,2.79,1.77l-8.09,13.11,13.26-12.41c2.07-2.02,4.34-.01,2.27,2l-12.11,13.66,12.51-11.82c2.71-2.39,4.51.25,2.21,2.54l-12.47,13.6,9.92-6.15c2.91-2.43,4.42-.16,2.02,2.72,0,0-14.5,14.37-25.43,18.36-6.34,2.32-9.83,6.56-9.83,6.56l-6.91-9.31Z"/>
        <path class="cls-4" d="M242.12,73.37c24.71,21.38,36.56-12.18,39.35-28.61"/>
        <path class="cls-4" d="M230.42,52.13s-.77,4.65,3.39,15.39"/>
        <path class="cls-4" d="M265.21,50.9c-1.14,3.18-1.74,6.14-1.35,8.69l-2.84-.63"/>
        <path class="cls-4" d="M281.48,44.76c-4.78-1.95-11.56-10.32-13.43-19.62-.23-1.17-1.77-1.41-2.34-.37-5.19,9.37-18.24,19.94-30.87,17.15,0,0-2.45-6.3-6.94-3.06-5.27,3.79-2.49,15.37,2.53,13.27"/>
        <path class="cls-4" d="M232.16,63.09c2.5,4.48,4.81,29.48-2.09,35.21,0,0,18.75,12.27,34.14-.45-3.1-2.97-5.41-14.11-4.3-16.98"/>
        <path class="cls-4" d="M240.79,21.47c-3.78,6.29-5.9,9.9-13.62,13.53-4.97,2.55-5.46,10.93-8.47,14.56"/>
        <path class="cls-4" d="M211.04,55.94c3.16,9.47-4.16,11.01-1.31,18.03,2.73,6.73-2.07,8.81-1.33,13.81"/>
        <path d="M281.55,82.71c.86-4.56-3.35-8.96-1.34-13.66,2.02-4.7,3.03-5.09,3.55-12.34s-2.01-12.08-2.01-12.08c-.16-.03-3.85,30.15-22.84,35.6-.71,2.89,2.81,7.54,5.31,17.61,0,.67,4.19.34,12.39.04,0,0,4.09-10.62,4.94-15.18Z"/>
        <path class="cls-4" d="M225.6,20.89c-4.12,4.05-11.28,14.23-11.14,23.77"/>
        <path class="cls-4" d="M285.75,40.52c1.79,5.66,2.03,13.51,1.41,18.1"/>
        <path class="cls-4" d="M250,44.77s1.47-4,5.04-3.22,2.9,4.97,2.9,4.97"/>
        <path class="cls-2" d="M292.72,147.66l-.95-2.73c-.13-4.65,2.06-19.26-.61-31.17-1.56-6.94-5.65-11.27-5.65-11.27"/>
        <path class="cls-2" d="M229.43,79.4l-4.33,15.19s-44.59,1.47-37.9,44.97c6.39,41.53,16.08,143.18,14.07,143.58,1.5-12.28,5.13-35.13,8.96-46.74l72.7-1.12"/>
        <path class="cls-4" d="M269.93,49.81s1.29-3.51,4.42-2.82,2.55,4.36,2.55,4.36"/>
        <path class="cls-4" d="M251.95,64.05c1.98,4.81,10.14,6.76,12.98,2.08"/>
        <path class="cls-2" d="M210.09,135.41c5.94,51.96.97,83.85.74,101.51"/>
        <path d="M263.12,96.68c1.33-2.52-3.34-8.51-3.57-12.1-8.95.85-17.22-.33-24.69-1.4,0,0,1.72-10.87-1.35-17.65s-3.08-13.4-3.08-13.4c0,0-.76-.59-4.82,3.45s-.73,11.79.4,14.43,2.57,7.56.13,10.71-2.64,12.12-.74,14.9,37.72,1.06,37.72,1.06Z"/>
        <path class="cls-2" d="M214.53,96.65c4.23-1.53,9.44-2.27,12.24-1.63l2.03-11.17c.24-1.24,1.47-2.04,2.7-1.73,5.77,1.43,21.25,4.75,29.86,1.69,1.51-.54,3.13.47,3.3,2.07.39,3.75,1.17,9.42,2.53,11.98,0,0,9.55-2.87,18.33,4.63"/>
        <path class="cls-4" d="M283.46,103.89s-4.4-7.54.39-12.75c3.2-3.48,3.71-7.34,2.04-11.42-1.36-3.34-3.79-7.11-2.1-11.38"/>
        <line class="cls-2" x1="232.45" y1="82.35" x2="229.65" y2="97.35"/>
        <path class="cls-11" d="M302.87,119.11c1.4-3.19,5.34-4.34,8.25-2.42l9.61,6.36c2.19,1.45,3.08,4.21,2.16,6.67l-29.37,58.13c-4.56,8.13-13.79,7.25-13.79,7.25-1.6-19.64-.18-30.11,8.68-41.9.05-.14,14.46-34.08,14.46-34.08Z"/>
        <line class="cls-2" x1="235.59" y1="83.18" x2="233.43" y2="98.18"/>
        <path class="cls-2" d="M282.91,235.29c-1.38-21.53-6.55-56.05-.41-71.03,4.26-9.3,9.49-12.13,5.9-24.02-3.89-12.91-7.15-18.75-7.15-18.75"/>
        <line class="cls-2" x1="238.73" y1="84" x2="237.08" y2="99"/>
        <line class="cls-2" x1="241.87" y1="84.82" x2="240.79" y2="99.61"/>
        <line class="cls-2" x1="261.31" y1="84.16" x2="263.47" y2="99.16"/>
        <line class="cls-2" x1="257.93" y1="85.09" x2="260.09" y2="100.09"/>
        <line class="cls-2" x1="254.79" y1="85.33" x2="256.47" y2="100.33"/>
        <line class="cls-2" x1="251.8" y1="85.37" x2="252.57" y2="100.82"/>
        <line class="cls-2" x1="248.67" y1="85.32" x2="248.67" y2="100.67"/>
        <line class="cls-2" x1="245.5" y1="85.12" x2="244.66" y2="100.09"/>
        <path class="cls-4" d="M216.6,82.48c.59,2.27,2.02,5.22,1.26,8.26s-2.44,4.63-2.44,7.16"/>
        <line class="cls-2" x1="308.05" y1="115.09" x2="300.33" y2="131.73"/>
        <line class="cls-2" x1="311.97" y1="117.34" x2="304.25" y2="133.98"/>
        <line class="cls-2" x1="315.63" y1="119.52" x2="307.91" y2="136.16"/>
        <line class="cls-2" x1="319.41" y1="121.8" x2="311.69" y2="138.44"/>
        <line class="cls-2" x1="322.09" y1="124.97" x2="315.39" y2="140.28"/>
        <path class="cls-9" d="M282.91,235.29l39.37,293.19h-49.83l-23.33-224.89c-.06-.55-.86-.53-.9.02l-14.03,224.88h-51.34s11.93-200.47,15.05-222.42c4.33-30.46,7.78-53.38,12.3-68.62"/>
        <line class="cls-1" x1="221.74" y1="223.1" x2="221.74" y2="237.37"/>
        <line class="cls-1" x1="226.02" y1="223.1" x2="226.02" y2="237.37"/>
        <line class="cls-1" x1="230.3" y1="223.1" x2="230.3" y2="237.37"/>
        <line class="cls-1" x1="234.58" y1="223.1" x2="234.58" y2="237.37"/>
        <line class="cls-1" x1="238.86" y1="223.1" x2="238.86" y2="237.37"/>
        <line class="cls-1" x1="243.14" y1="223.1" x2="243.14" y2="237.37"/>
        <line class="cls-1" x1="247.42" y1="223.1" x2="247.42" y2="237.37"/>
        <line class="cls-1" x1="251.7" y1="223.1" x2="251.7" y2="237.37"/>
        <line class="cls-1" x1="255.99" y1="223.1" x2="255.99" y2="237.37"/>
        <line class="cls-1" x1="260.27" y1="223.1" x2="260.27" y2="237.37"/>
        <line class="cls-1" x1="264.55" y1="223.1" x2="264.55" y2="237.37"/>
        <line class="cls-1" x1="268.83" y1="223.1" x2="268.83" y2="237.37"/>
        <line class="cls-1" x1="273.11" y1="223.1" x2="273.11" y2="237.37"/>
        <line class="cls-1" x1="277.01" y1="223.1" x2="277.39" y2="237.37"/>
        <line class="cls-8" x1="280.44" y1="223.07" x2="281.09" y2="237.4"/>
        <line class="cls-7" x1="248.57" y1="237.81" x2="248.57" y2="266.18"/>
        <g>
          <path class="cls-4" d="M187.19,528.48s.11-2.13.32-5.98"/>
          <path class="cls-6" d="M188.13,510.95c2.58-48.05,9.8-179.45,12.42-197.02,2.12-14.28,6.53-36.8,9.27-50.39"/>
          <path class="cls-4" d="M210.96,257.87c.75-3.66,1.21-5.87,1.21-5.87,2-.57,3.81-1.4,5.41-2.52"/>
          <path class="cls-4" d="M222.93,243.11c.82-1.66,1.46-3.54,1.92-5.67"/>
        </g>
        <line class="cls-1" x1="217.46" y1="223.2" x2="217.46" y2="237.48"/>
        <line class="cls-1" x1="213.33" y1="223.2" x2="213.33" y2="237.48"/>
        <path class="cls-9" d="M232.61,546.61l-50.98.19c-1.89,0-3.37-1.62-3.19-3.5l1.41-14.6,56.42-.22-.22,14.72c-.03,1.88-1.56,3.39-3.44,3.4Z"/>
        <path class="cls-9" d="M324.63,546.58h-51.62c-1.47,0-2.65-1.2-2.63-2.67l.25-15.4,54.02-.03,3.34,13.83c.53,2.18-1.12,4.27-3.36,4.27Z"/>
        <path class="cls-4" d="M207.27,249.06s7.58-.68,10.71-5.85c3.13-5.17,3.42-6.6,3.42-6.6l-11.75.32-2.38,12.13Z"/>
        <path class="cls-4" d="M231.34,47.61s1.68-6.16-1.91-7.22"/>
        <path class="cls-12" d="M199.43,546.58l-1.02,10.29s-5.39,5.98-10.93,9.04c-5.54,3.06-6.27,11.95-6.27,11.95h39.64s1.46-9.04-3.64-17.93v-13.35h-17.78Z"/>
        <path class="cls-12" d="M286.22,546.58l3.06,30.19h62.96s-7.21-15.52-42.63-19.02c.22.87-2.19-11.17-2.19-11.17h-21.2Z"/>
        <polygon class="cls-12" points="249.17 303.94 282.81 528.01 272.46 528.48 249.17 303.94"/>
        <path class="cls-12" d="M286.22,528.48l3.15,18.11h-16.81c-1.22,0-2.21-1-2.19-2.23l.26-15.84,15.59-.03Z"/>
      </g>
      <polygon class="cls-3" points="0 575.05 1399.32 572.61 1399.32 640.42 0 642.86 0 575.05"/>
      <line class="cls-5" x1="108.2" y1="577.06" x2="711.77" y2="577.06"/>
    </g>
  </g>
</svg>