<?xml version="1.0" encoding="UTF-8"?>
<svg id="Layer_2" data-name="Layer 2" xmlns="http://www.w3.org/2000/svg" viewBox="0 0 50.4 50.4">
  <defs>
    <style>
      .cls-1 {
        fill: #fff;
        stroke: #000;
        stroke-miterlimit: 10;
        stroke-width: 2px;
      }
    </style>
  </defs>
  <g id="Layer_6" data-name="Layer 6">
    <g>
      <path class="cls-1" d="M18.05,9.88l4.53,11.49h5.24l2.91-11.85c.34-1.39.36-2.86-.13-4.2C28.65-.03,21.14-.41,18.39,4.18c-1.03,1.71-1.06,3.85-.33,5.7Z"/>
      <path class="cls-1" d="M9.31,19.42l11.33,4.92,3.7-3.7-6.32-10.44c-.74-1.22-1.77-2.28-3.06-2.88-5.17-2.4-10.75,2.64-9.45,7.83.49,1.94,1.97,3.47,3.8,4.27Z"/>
      <path class="cls-1" d="M9.88,32.35l11.49-4.53v-5.24s-11.85-2.91-11.85-2.91c-1.39-.34-2.86-.36-4.2.13C-.03,21.75-.41,29.27,4.18,32.02c1.71,1.03,3.85,1.06,5.7.33Z"/>
      <path class="cls-1" d="M19.42,41.09l4.92-11.33-3.7-3.7-10.44,6.32c-1.22.74-2.28,1.77-2.88,3.06-2.4,5.17,2.64,10.75,7.83,9.45,1.94-.49,3.47-1.97,4.27-3.8Z"/>
      <path class="cls-1" d="M32.35,40.52l-4.53-11.49h-5.24s-2.91,11.85-2.91,11.85c-.34,1.39-.36,2.86.13,4.2,1.95,5.35,9.47,5.74,12.22,1.15,1.03-1.71,1.06-3.85.33-5.7Z"/>
      <path class="cls-1" d="M41.09,30.98l-11.33-4.92-3.7,3.7,6.32,10.44c.74,1.22,1.77,2.28,3.06,2.88,5.17,2.4,10.75-2.64,9.45-7.83-.49-1.94-1.97-3.47-3.8-4.27Z"/>
      <path class="cls-1" d="M40.52,18.05l-11.49,4.53v5.24s11.85,2.91,11.85,2.91c1.39.34,2.86.36,4.2-.13,5.35-1.95,5.74-9.47,1.15-12.22-1.71-1.03-3.85-1.06-5.7-.33Z"/>
      <path class="cls-1" d="M30.98,9.31l-4.92,11.33,3.7,3.7,10.44-6.32c1.22-.74,2.28-1.77,2.88-3.06,2.4-5.17-2.64-10.75-7.83-9.45-1.94.49-3.47,1.97-4.27,3.8Z"/>
      <circle class="cls-1" cx="25.2" cy="25.2" r="7.83"/>
    </g>
  </g>
</svg>