<?xml version="1.0" encoding="UTF-8"?>
<svg id="Layer_2" xmlns="http://www.w3.org/2000/svg" viewBox="0 0 1413.45 1413.75">
  <defs>
    <style>
      .cls-1 {
        fill: #4a5637;
      }

      .cls-2 {
        fill: #ffb09f;
      }

      .cls-3 {
        fill: #fff;
      }

      .cls-4 {
        fill: #e78f81;
      }

      .cls-5 {
        fill: #71845a;
      }

      .cls-6 {
        fill: #95a592;
      }

      .cls-7 {
        fill: #3e385e;
      }

      .cls-8 {
        fill: #c18176;
      }
    </style>
  </defs>
  <g id="Layer_1-2" data-name="Layer_1">
    <g>
      <circle class="cls-6" cx="706.72" cy="706.72" r="706.72"/>
      <path class="cls-7" d="M571.87,1230.04l-30.77,163.89s88.55,29.91,234.04,16.25c109.24-12.13,181.74-42.28,181.74-42.28l-47.22-151.07s-269.37,23.94-337.8,13.22Z"/>
      <g>
        <path class="cls-5" d="M808.34,603.45s81.22,2.95,109.28,73.84c28.06,70.89,44.3,143.25,44.3,143.25-2.03.51-67.93,22.15-122.58,23.63-51.75,1.4-112.24-234.81-31.01-240.72Z"/>
        <path class="cls-5" d="M621.86,620.39s-115.19-9.16-152.11,62.58c-36.92,71.74,111.36,389.77,103.98,449.3-7.38,59.53-21.9,54.85-16.16,93.54,5.76,38.84,357.31,2.36,369.99-16.26,12.68-18.61-11.81-10.68-22.15-93.11-10.34-82.42-10.34-256.42-10.34-303.74s-13.69-189.94-47.26-200.77c-91.56-29.54-183.13,40.5-225.95,8.45Z"/>
        <g>
          <path class="cls-2" d="M951.68,824.47s48.73,169.83,25.11,211.18c-23.63,41.35-63.18,47.38-91.4,48.8-28.22,1.41-180.33-4.49-180.33-4.49,0,0-14.77,8.86-36.92,4.43-31.69-6.34-25.11-16.24-45.78-13.29,0,0,4.43,7.38-10.34,7.38s-28.06-7.38-29.54-19.2c-4.43,0-8.86-1.48-10.34-14.77-2.95,1.48-10.34-8.86-8.86-26.58,1.48-17.72,22.15-32.49,31.01-31.01,8.86,1.48,31.75,22.89,50.95,27.32,19.2,4.43,202.32-13.29,233.34-28.06,1.48,0,3.69-146.94,3.69-146.94l69.41-14.77Z"/>
          <path class="cls-4" d="M582.86,1062.02s-1.48-5.91,4.43-14.77c5.91-8.86,10.34-11.81,10.34-11.81,0,0-20.68,2.95-14.77,26.58Z"/>
          <path class="cls-4" d="M572.42,1046.59s-1.34-7.88,4.02-19.69c5.36-11.81,9.37-15.75,9.37-15.75,0,0-18.75,3.94-13.39,35.44Z"/>
        </g>
      </g>
      <path class="cls-1" d="M638.2,879.08s-61.28,87.2,62.81,85.6c88.6-1.14-97.76,20.9-99.17,15.58s-17.71-94.92-17.71-94.92l54.07-6.26Z"/>
      <path class="cls-4" d="M571.46,1053.92s59.25,17.25,132.45-5.19c64.77-19.86,82.78-11.8,104.37-17.75,37.52-10.34,33.85-18.82,41.34-14.63,11.81,6.6,43.48,0,49.37-13.23,5.89-13.22,32.81-59.03-5.45-66.83-38.25-7.79-210.63,103.75-322.08,117.64Z"/>
      <g>
        <path class="cls-2" d="M452.45,810.37s20.99,177.36,50.9,214.42c29.91,37.06,69.92,36.72,98.01,33.62,28.09-3.1,177.32-33.16,177.32-33.16,0,0,15.99,6.4,37.15-1.51,30.28-11.3,22.2-20.04,43.08-20.41,0,0-3.2,8,11.38,5.64s26.53-11.76,26.1-23.66c4.37-.71,8.51-2.87,7.85-16.23,3.15.99,8.79-10.39,4.51-27.65-4.28-17.26-27.04-28.55-35.56-25.68-8.51,2.87-27.7,27.66-45.95,35.09-18.25,7.43-185.58,18.75-218.55,9.11-1.46.24-17.67-162.33-17.67-162.33l-138.58,12.75Z"/>
        <path class="cls-4" d="M896.45,988.07s.52-6.07-6.73-13.87c-7.24-7.81-12.09-10.02-12.09-10.02,0,0,20.88-.38,18.81,23.89Z"/>
        <path class="cls-4" d="M904.3,971.18s.07-7.99-7.1-18.8-11.76-14.06-11.76-14.06c0,0,19.13.9,18.86,32.86Z"/>
      </g>
      <ellipse class="cls-7" cx="723.49" cy="503.19" rx="91.99" ry="40.77"/>
      <g>
        <path class="cls-2" d="M609.26,474.11s26.52,83.91-1.88,144.25c.08-1.47,42.41,36.15,100.64,26.02,58.23-10.13,54.52-23.59,54.52-23.59,0,0-31.46-47.35-23.7-108.8,7.76-61.45-129.58-37.88-129.58-37.88Z"/>
        <path class="cls-4" d="M611.43,476.58s15.56,62.03,65.49,75.26c49.93,13.24,91.76-60.31,91.76-60.31l-157.25-14.96Z"/>
      </g>
      <g>
        <path class="cls-1" d="M475.11,680.9s29.66-47.13,98.84-3.56c93.14,58.65,66.58,204.22,66.58,204.22l-39.95-5.97-125.47-194.69Z"/>
        <path class="cls-5" d="M466.99,926.72c46.09-.16,129.3.54,173.54-45.16,1.93-74.5-82.82-287.88-155.88-223.51-73.06,64.37-17.67,268.66-17.67,268.66Z"/>
      </g>
      <path class="cls-2" d="M813.6,373.09c-11.51-79.92-72.53-137.27-136.31-128.09-41.75,6.01-74.33,39.05-88.62,83.57-26-13.36-51.28-20.73-54.72-1.45-7.38,41.35-26.58,121.1,20.68,135.87,13.7,4.28,27.4-2,39.95-13.07,23.33,56.06,72.96,91.91,124.38,84.5,63.78-9.18,106.15-81.41,94.65-161.34Z"/>
      <path class="cls-7" d="M728.46,270.91s-31.01,72.36-118.15,88.61c-32.49,5.91-41.35-10.34-53.17-5.91-11.81,4.43-26.58,23.63-17.72,53.17,8.86,29.54,44.78,20.44,44.78,20.44,0,0,49.89,7.65,46.78,85.89-1.7,42.82-54.64,29.54-70.89,26.58-16.24-2.95-41.35-10.34-53.17-29.54-11.81-19.2,0-41.35-1.48-72.36-1.48-31.01-7.38-110.76,14.77-146.2,22.15-35.44,70.89-90.09,135.87-91.56,64.98-1.48,181.65,31.01,183.13,144.73,0,39.87,7.38,72.36,14.77,97.47,7.38,25.11-8.22,91.17-116.03,100.03l-.34-11.83s62.15-30.51,71.01-92.53c8.86-62.03-7.38-118.15-26.58-143.25-19.2-25.11-53.59-23.72-53.59-23.72Z"/>
      <ellipse class="cls-7" cx="719.13" cy="388.66" rx="9.64" ry="11.62"/>
      <ellipse class="cls-7" cx="789.71" cy="380.28" rx="7.65" ry="9.23"/>
      <circle class="cls-7" cx="567.69" cy="212.14" r="49.11"/>
      <path class="cls-7" d="M534.88,176.92s-35.43,28.35-17.57,62.08c17.86,33.73,47.06,14.74,47.06,14.74l-5.39.85s-27.35,2.41-37.84-18.85c-10.49-21.26-1.59-46.56,13.75-58.82Z"/>
      <path class="cls-7" d="M730.47,265.07s-16.44,72.57-79.37,90.43c-39.12,10.2-59.24,8.79-79.37,0,.28-.28,1.7-.85,1.7-.85,0,0,17.84,15.66,77.1-2.27,52.02-15.73,74.83-86.17,74.83-86.17l5.1-1.13Z"/>
      <path class="cls-4" d="M588.31,398.69c1.28-15.2-14.81-31.07-26.72-25.97,0,0,23.95,6.52,20.44,31.29-2.13,15.05,5,9.89,6.27-5.31Z"/>
      <path class="cls-7" d="M694.41,380.22c22.99-6.87,32.4-27.48,27.93-30.19s-6.13,5.5-19.2,14.89c-9.18,6.6-13.67,8.93-13.05,12.48s4.32,2.81,4.32,2.81Z"/>
      <path class="cls-7" d="M805.79,373.46c-21.14-6.07-29.8-24.27-25.68-26.66,4.11-2.39,5.64,4.85,17.65,13.15,8.45,5.83,12.57,7.89,12,11.02-.57,3.13-3.97,2.48-3.97,2.48Z"/>
      <path class="cls-3" d="M762.7,434.06c-13.48,1.34-50.21-4-47.93,7.67,3.42,17.58,32.82,5.53,41.32,5.53s16.77,2.26,27.86,2.02c11.1-.24,16.77-19.01-21.25-15.23Z"/>
      <path class="cls-8" d="M784.97,435.22v14.08s6.61-.75,7.26-6.59c.61-5.45-7.26-7.49-7.26-7.49Z"/>
      <path class="cls-4" d="M709.1,451.29s3.9,13.46,20.43,10.98c-13.11,9.56-21.13-1.65-20.43-10.98Z"/>
    </g>
  </g>
</svg>