<?xml version="1.0" encoding="UTF-8"?>
<svg id="Layer_2" xmlns="http://www.w3.org/2000/svg" viewBox="0 0 212.05 256.71">
  <defs>
    <style>
      .cls-1, .cls-2, .cls-3 {
        fill: #222a41;
      }

      .cls-4 {
        fill: #e9b6c3;
      }

      .cls-5, .cls-2, .cls-3, .cls-6, .cls-7 {
        stroke-miterlimit: 10;
      }

      .cls-5, .cls-6 {
        stroke-width: .39px;
      }

      .cls-5, .cls-6, .cls-7 {
        fill: none;
      }

      .cls-5, .cls-7 {
        stroke: #222a41;
      }

      .cls-8 {
        fill: #fff;
      }

      .cls-2 {
        stroke-width: .5px;
      }

      .cls-2, .cls-3, .cls-6 {
        stroke: #fff;
      }

      .cls-9 {
        fill: #bf9796;
      }

      .cls-10 {
        fill: #374869;
      }

      .cls-3 {
        stroke-width: .45px;
      }

      .cls-7 {
        stroke-width: .4px;
      }

      .cls-11 {
        fill: #2a6764;
      }
    </style>
  </defs>
  <g id="How_it_works">
    <g>
      <g>
        <g>
          <path class="cls-6" d="M177.34,61.51l5.61-.03c.62,0,1.13.5,1.13,1.12v47.04c0,1.17-.95,2.12-2.12,2.12h-3.69"/>
          <path class="cls-6" d="M106.91,64.59h73.79v41.89c0,.81-.66,1.47-1.47,1.47h-74.03v-41.65c0-.94.76-1.71,1.71-1.71Z" transform="translate(285.91 172.54) rotate(180)"/>
          <polyline class="cls-6" points="153.79 111.76 152.01 111.76 153.98 123.42"/>
          <path class="cls-6" d="M156.37,123.64l-2.58-11.87h29.57c1.32,0,2.39-1.07,2.39-2.39v-46.79c0-.61-.5-1.11-1.11-1.11h-78.85c-1.78,0-3.22,1.44-3.22,3.22v45.84c0,.61.5,1.11,1.11,1.11h27.96s2.51,12,2.51,12h22.21Z"/>
        </g>
        <path class="cls-6" d="M.19,123.64v5.58s12.32,0,12.32,0v127.13s6.4,0,6.4,0v-127.13h129.23v127.13s6.08,0,6.08,0v-83.45h44.17v83.45s5.25,0,5.25,0v-127.13h8.21s0-5.58,0-5.58H.19ZM154.14,129.22h44.25v39.08h-44.25v-39.08Z"/>
        <path class="cls-11" d="M100.77,256.69h-27.9v-6.5c0-1.09,0-4.27,1.97-4.19h11.98s13.95,3.08,13.95,10.69Z"/>
        <line class="cls-5" x1="90.82" y1="247.27" x2="88.14" y2="248.5"/>
        <path class="cls-5" d="M78.04,255.15s.3-6.03-5.13-6.03"/>
        <line class="cls-5" x1="92.47" y1="247.88" x2="89.79" y2="249.12"/>
        <path class="cls-5" d="M95.96,249.71s-3.08-.22-4.68,2.61c-1.26,2.23-8.79-.64-8.79,2.83"/>
        <line class="cls-5" x1="100.58" y1="255.15" x2="72.88" y2="255.15"/>
        <line class="cls-5" x1="100.77" y1="256.52" x2="72.88" y2="256.52"/>
        <path class="cls-11" d="M146.69,256.36h-27.9v-6.5c0-1.09,0-4.27,1.97-4.19h11.98s13.95,3.08,13.95,10.69Z"/>
        <line class="cls-5" x1="136.74" y1="246.94" x2="134.06" y2="248.17"/>
        <path class="cls-5" d="M123.96,254.82s.3-6.03-5.13-6.03"/>
        <line class="cls-5" x1="138.39" y1="247.56" x2="135.71" y2="248.79"/>
        <rect class="cls-4" x="74.07" y="238.53" width="11.58" height="7.14" transform="translate(159.71 484.21) rotate(-180)"/>
        <rect class="cls-4" x="120.71" y="238.53" width="11.58" height="7.14" transform="translate(252.99 484.21) rotate(-180)"/>
        <path class="cls-5" d="M141.88,249.38s-3.08-.22-4.68,2.61c-1.26,2.23-8.79-.64-8.79,2.83"/>
        <line class="cls-5" x1="146.49" y1="254.82" x2="118.8" y2="254.82"/>
        <line class="cls-5" x1="146.69" y1="256.19" x2="118.8" y2="256.19"/>
        <path class="cls-10" d="M88.56,139.64s45.2,11.62,50.1,21.96c2.54,4.72-4.36,78.78-4.36,78.78,0,0-7.81,2-14.16,0,.36-5.81-9.08-44.47-2.9-59.18,0,.18-23.96-7.26-23.96-7.26,0,0-2.18,46.79-6.54,67.33-2.36,2.56-13.25,3.29-14.52,2.38,0-11.25-7.81-50.1,0-59.18,7.81-9.08,3.99-44.84,3.99-44.84h12.34Z"/>
        <path class="cls-5" d="M127.19,235.07s-.43-59.06-.43-61.52,2.38-1.64,2.13-2.96c-.49-2.63-5.75,3.12-6.9,1.64s5.26-3.39,4.35-5.13c-2.67-3.78-43.21-14.08-43.21-14.08,0,0-7.01-.76-8.19-13.78"/>
        <path class="cls-4" d="M76.07,84.83s6.85,14.89,12.03,29.17c7.56-.13,9.53,3.63,14.41,4.24,2.42.3,4.65-3.83,6.6-2.77,6.43,3.51,4.69,7.95,4.69,7.95h-31.1l-14.83-20.94,8.2-17.66Z"/>
        <path class="cls-1" d="M81.14,95.62s-6.78,5.35-4.27,17.78c-4.3-4.29-9.01-12.43-9.01-12.43l13.27-5.35Z"/>
        <path class="cls-11" d="M88.97,139.83c-19.24-40.4-12.28-45.69-15.13-59.33-6.47-21.54-32.27-21.95-40.93-16.86-9.21,5.82,9.22,78.76,18.89,80.06l-10.96-3.99,48.13.12Z"/>
        <line class="cls-5" x1="86.83" y1="183.36" x2="84.6" y2="235.59"/>
        <path class="cls-5" d="M134.84,234.47s-10.04,1.54-15.29,0"/>
        <g>
          <rect class="cls-2" x="55.4" y="231.41" width="12.22" height="18.34" rx="6.11" ry="6.11" transform="translate(123.02 481.15) rotate(-180)"/>
          <circle class="cls-2" cx="41.7" cy="252.68" r="3.69"/>
          <circle class="cls-2" cx="83.14" cy="252.68" r="3.69"/>
          <rect class="cls-2" x="59.12" y="220.92" width="5.69" height="54.62" rx="2.63" ry="2.63" transform="translate(310.19 186.26) rotate(90)"/>
          <path class="cls-3" d="M58.66,232.15c2.23-.9,4.18-1.03,5.69,0v-48.09c0-1.39-1.14-2.53-2.53-2.53h-.62c-1.39,0-2.53,1.14-2.53,2.53v48.09Z"/>
          <rect class="cls-2" x="55.4" y="177.62" width="12.22" height="18.34" rx="6.11" ry="6.11" transform="translate(123.02 373.58) rotate(180)"/>
          <path class="cls-2" d="M131.71,186.01c.79-2.44-.32-10.82-6.19-11.78-4.38-10.71-13.96-16.82-26.26-16.82-22,0-22.8-5.85-22.8-27.82,0-28.85-65.15-28.85-65.15,0,0,0-4.89,56.43,18.09,56.43,22.98,0,102.31,0,102.31,0Z"/>
        </g>
        <path class="cls-5" d="M87.97,234.47s-6.39,2.86-16.23,2.11"/>
        <line class="cls-5" x1="88.87" y1="139.64" x2="76.64" y2="139.59"/>
        <path class="cls-4" d="M28.23,80.16s-6.25,25.7-2.68,33.02c3.57,7.32,29.92-3.75,34.96-2.5,2.62.65,4.29,1.36,8.83,4.72,0,0,.12-8.62-9.66-10.89-15.29-3.54-18.87-2.18-18.87-2.18l2.03-15.29-14.61-6.88Z"/>
        <path class="cls-11" d="M26.32,77.78c.98-8.35,3.56-14.66,12.3-16.47,8.74-1.8,27.12-.19,26.65,8.3-.47,8.49-15.15,19.44-15.38,22.29s-26.65,2.43-26.4-.59,2.25-8.6,2.83-13.53Z"/>
        <path class="cls-11" d="M63.11,64.94s11.18,7.99,19.71,28.15c1.03,2.44-12.89,8.52-12.89,8.52l-6.82-36.67Z"/>
        <path class="cls-4" d="M56.05,60.69s.81,6.33-4.15,6.03c-4.96-.3-8.84-6.03-8.84-6.03v-15.47s12.99,0,12.99,0v15.47Z"/>
        <path class="cls-1" d="M42.84,48.11s1.93,11.87,13.2,11.6v-2.35l-13.2-9.25Z"/>
        <path class="cls-4" d="M39.85,44.43c.17,1.14.93,2.84,2.51,2.49,1.9,5.1,4.74,10.54,15.82,10.54,10.16,0,8.21-23.21,8.38-27.61s-4.49-13.37-12.67-10.12c-8.18,3.26-16.89,5.98-14.04,24.7Z"/>
        <path class="cls-9" d="M39.34,39.49s.74-3.28,2.44-1.24,1.27,4.62,1.27,4.62c0,0,2.12.8,2.12,0s-1.52-10.53,3.03-12.23,6.4,0,10.25.45,4.25-1.68,7.29-.94c0,0,.86.36.82,1.82-.06,2.14,0,5.18,0,5.18,0,0,.39-2.14,1.73-4.91s1.96-6.69.8-9.55-7.05-5.98-11.96-5.8-9.64,3.03-13.12,2.77-5.89,2.1-6.78,5.49-.76,6.65.04,7.81,1.74,10.32,1.38,11.32,2.18,5.02,4.39,5.37v-1.02l-.68-1.72s-2.08.72-2.61-3.2c0,0-.58-2.57-.41-4.23Z"/>
        <path class="cls-7" d="M32.24,66.22c3.48-1.34,7.32-.89,9.02,2.23s1.8,5.98,1.8,5.98"/>
        <line class="cls-7" x1="43.76" y1="77.24" x2="44.11" y2="80.16"/>
        <path class="cls-1" d="M29.75,93.39s10.17.38,11.52,5.52c0,0,.75-5.66.75-5.66,0,0-8.36.8-12.27.14Z"/>
        <path class="cls-7" d="M71,79.58s2.02,4.68,4.05,17.88"/>
        <line class="cls-7" x1="70.19" y1="77.84" x2="68.49" y2="74.18"/>
        <path class="cls-7" d="M60.74,37.76s-.74,2.38.94,7.33c.64,1.9-1.24,2.65-2.01,1.8"/>
        <circle class="cls-1" cx="54.95" cy="38.9" r="1.14"/>
        <circle class="cls-1" cx="63.85" cy="38.9" r="1.14"/>
        <path class="cls-7" d="M54.63,48.96s.54,1.39,3.46,1.39c1.93,0,2.46-.05,2.46-.05"/>
      </g>
      <path class="cls-8" d="M132.58,0h30.72c16.37,0,29.77,13.4,29.77,29.77,0,16.37-13.4,29.77-29.77,29.77h-13.12s-4.53,18.26-4.53,18.26l-4.53-18.26h-8.54c-16.37,0-29.77-13.4-29.77-29.77,0-16.37,13.4-29.77,29.77-29.77Z"/>
      <g>
        <path class="cls-1" d="M120.54,35.23c-.19-.2-.29-.5-.29-.92v-12.06c0-.41.1-.72.29-.92.19-.2.52-.3.99-.3h2.54c.48,0,.82.1,1.01.29.19.19.29.5.29.93v4.22h3.79v-4.22c0-.41.1-.72.29-.92.19-.2.52-.3.99-.3h2.54c.48,0,.82.1,1.01.29.19.19.29.5.29.93v12.06c0,.41-.1.72-.29.92-.19.2-.53.3-1.01.3h-2.54c-.47,0-.8-.1-.99-.3s-.29-.5-.29-.92v-4.22h-3.79v4.22c0,.41-.1.72-.29.92-.19.2-.53.3-1.01.3h-2.54c-.47,0-.8-.1-.99-.3Z"/>
        <path class="cls-1" d="M138.4,35.23c-.96-.41-1.71-1.02-2.25-1.82s-.81-1.77-.81-2.91c0-1.79.52-3.16,1.57-4.1,1.04-.94,2.55-1.42,4.53-1.42s3.4.47,4.39,1.4c.99.93,1.49,2.2,1.49,3.8,0,.41-.09.72-.26.92-.17.2-.43.3-.79.3h-6.14c0,.43.21.77.62,1.01.41.25.98.37,1.71.37.55,0,1-.04,1.34-.14.34-.09.71-.24,1.11-.44.17-.09.3-.13.4-.13.13,0,.25.1.36.3l.83,1.58c.09.14.13.27.13.38,0,.16-.1.29-.3.4-1.21.74-2.76,1.11-4.67,1.11-1.22,0-2.31-.21-3.27-.62ZM142.8,29c0-.77-.45-1.15-1.34-1.15-.44,0-.77.1-.99.31-.22.21-.33.49-.33.84h2.66Z"/>
        <path class="cls-1" d="M148.67,35.23c-.19-.2-.29-.5-.29-.92v-12.06c0-.41.1-.72.29-.92.19-.2.52-.3.99-.3h2.54c.48,0,.82.1,1.01.29.19.19.29.5.29.93v12.06c0,.41-.1.72-.29.92-.19.2-.53.3-1.01.3h-2.54c-.47,0-.8-.1-.99-.3Z"/>
        <path class="cls-1" d="M155.28,39.53c-.19-.2-.29-.5-.29-.92v-11.96c.67-.48,1.51-.88,2.51-1.2,1.01-.32,2.08-.48,3.22-.48,4.36,0,6.54,1.82,6.54,5.45,0,1.63-.45,2.95-1.36,3.93-.91.99-2.22,1.48-3.92,1.48-.34,0-.7-.04-1.08-.11-.38-.07-.68-.16-.91-.26v3.13c0,.43-.1.74-.29.93-.19.19-.53.29-1.01.29h-2.43c-.47,0-.8-.1-.99-.3ZM161.86,31.9c.21-.38.32-.87.32-1.47,0-.77-.14-1.3-.42-1.61-.28-.3-.69-.46-1.23-.46-.26,0-.46.03-.62.09v2.98c0,.37.07.64.22.8.15.16.4.24.76.24.43,0,.75-.19.96-.58Z"/>
        <path class="cls-1" d="M167.91,34.35v-.53c0-.78.57-1.17,1.7-1.17h1.85c1.15,0,1.73.39,1.73,1.17v.53c0,.78-.57,1.17-1.73,1.17h-1.85c-1.14,0-1.7-.39-1.7-1.17ZM168.43,31.54c-.19-.2-.29-.5-.29-.92l-.13-8.38c0-.41.1-.72.29-.92.19-.2.52-.3.99-.3h2.54c.48,0,.82.1,1.01.29.19.19.29.5.29.93l-.15,8.38c0,.41-.1.72-.29.92-.19.2-.53.3-1.01.3h-2.26c-.47,0-.8-.1-.99-.3Z"/>
      </g>
    </g>
  </g>
</svg>