<?xml version="1.0" encoding="UTF-8"?>
<svg id="Layer_2" xmlns="http://www.w3.org/2000/svg" viewBox="0 0 81.14 126.06">
  <defs>
    <style>
      .cls-1 {
        fill: #222a41;
      }

      .cls-2 {
        fill: #e9b6c3;
      }

      .cls-3 {
        fill: #fff;
      }

      .cls-4 {
        fill: #b97d2b;
      }

      .cls-5 {
        stroke-width: .44px;
      }

      .cls-5, .cls-6 {
        fill: none;
        stroke: #222a41;
        stroke-linecap: round;
        stroke-miterlimit: 10;
      }

      .cls-6 {
        stroke-width: .41px;
      }

      .cls-7 {
        fill: #16181c;
      }
    </style>
  </defs>
  <g id="How_it_works">
    <g>
      <g>
        <circle class="cls-7" cx="2.2" cy="119.65" r=".97"/>
        <circle class="cls-7" cx="79.77" cy="116.28" r="1.37"/>
        <circle class="cls-7" cx="27.51" cy="121.45" r="4.6"/>
        <circle class="cls-4" cx="45.47" cy="119.71" r="2.86"/>
        <path class="cls-4" d="M76.65,93.21c-2.36-10.46-6.11-22.23-11.55-26.08-10.5-7.43-19.2-7.8-27.79-7.43-8.59-.36-17.29,0-27.79,7.43C-.98,74.56.03,111.88.03,111.88c0,7.07,8.9,7.07,8.9,0,.32,13.02,13.82,12.69,13.5-.33,0,5.55,9.89,5.55,9.89,0,0,8.19,12.6,8.19,12.6,0,0,6.46,9.7,6.46,9.7,0,0,10.72,13.39,10.72,13.39,0,0,3.82,10.96,3.82,10.96,0,0,0,.06-9.23-2.32-18.33Z"/>
        <polygon class="cls-2" points="47.85 62 41.12 71.23 26.76 62 26.76 38.35 47.85 38.35 47.85 62"/>
        <path class="cls-5" d="M68.16,110.6c-.26-12.7,3.08-19.15,2.3-26.17-1.15-10.27-6.49-18.07-6.49-18.07"/>
        <path class="cls-5" d="M6.22,71.15s2.95-4.14,5.14-1.28c4.5,5.84,7.21,43.41,7.21,43.41"/>
        <path class="cls-5" d="M10.39,69.04c5.52-5.07,16.37-9.11,16.37-9.11"/>
        <path class="cls-5" d="M41.12,71.23c4.35,15.98,5.14,22.72,6.34,40.32"/>
        <polyline class="cls-5" points="47.85 59.94 50.58 64.15 48.54 80.77 41.12 71.23 35.37 81.2 22.91 64.97 26.76 59.94"/>
        <path class="cls-1" d="M47.85,53.93v5.03c-18.29.41-21.09-15.23-21.09-15.23l21.09,10.2Z"/>
        <path class="cls-2" d="M22.38,38.56c.24,1.57,1.27,3.9,3.45,3.41,2.61,7,6.51,14.47,21.72,14.47,13.96,0,11.27-31.88,11.51-37.92S52.9.16,41.66,4.63s-23.2,8.21-19.28,33.93Z"/>
        <path class="cls-5" d="M48.89,30.06s-1.11,2.86,1.74,9.46c1.1,2.53-2.11,3.54-3.42,2.4"/>
        <g>
          <path class="cls-7" d="M33.18,28.77c0-2.9.32-4.39,5.57-4.3s7.62-9.4,7.62-9.4c0,0,2.74,5.29,6.64,5.02s6.13,6.81,6.13,6.81c0,0,1.51-10.03.96-12.84-.23-1.2-.57-5.13-2.77-7.48-1.61-1.71-4.61-1.84-7.32-3.04C47.71,2.51,44.36.05,41.24,0c-3.77-.06-6.75,2.45-10.1,3.72-2.94,1.11-7.14,1.27-9.53,3.04-1.6,1.19-.8,3.71-2.07,5.07-1.5,1.6-5.02,2.09-5.98,3.8-7.98,14.14,8.81,22.92,8.81,22.92,0,0-1.3-9.12,1.61-10.12,2.9-1,3.81,5.35,5.08,5.35s4.12-2.12,4.12-5.02Z"/>
          <path class="cls-7" d="M18.58,12.72c-11.33,3.42-5.74,9.1-8.13,13.3-.82,1.44-2.3.51-4.17,3.75s.51,6.08-.6,8.24-3.83,2.64-4.6,6.53,2.76,5.5,1.47,9.08-3.17,6.58-1.98,10.14-1.19,3.09-.38,8.2,3.14,5.33,2.36,8.6-.16,6.88,3.43,7.36,4.72,4.34,8.48,4.64,5.53-.23,8.64-3.91c2.01-2.38,5.31.26,7.12-4.4s-1.7-4.53-.17-9.97c1-3.56-2.23-5.12-2.23-6.88s1.89-3.96,2.36-6.64-3.41-4.14-3.51-7.66c-.08-2.79,4.09-5.77-.85-11.11-5.35.41-4.61-14.77-1.07-16.28s-2.22-14.18-6.18-12.99Z"/>
          <path class="cls-7" d="M58.35,10.08s3.9,8.13,3.64,10.58-1.66,7.3-.51,10.11,2.04,4.08,1.79,6.38-1.91,3.99-.89,6.46,2.94,3.43,2.81,5.44-1.53,3.08-1.21,5.74,3.25,4.57,3.13,6.3-1.02,1.49-.77,4.23,3.07,6.92,3.07,6.92c0,0-2.76-7.79-22.19-12.63l.34-3.15s14.12-.54,10.99-35.19l-.19-11.18Z"/>
        </g>
      </g>
      <path class="cls-1" d="M41.63,45.6s6.77,3.45,11.68-.64c-1.64,7.96-12.55,5.38-11.68.64Z"/>
      <path class="cls-3" d="M51.57,46.07l-.28,1.66s-1.23.72-2.4.68c1.8-.13,2.44-.34,2.44-.34l-.04.54c-1.28,2.29-10.69,2.55-9.79-3.2,4.38,2.1,7.74,1.45,10.07.66Z"/>
      <path class="cls-5" d="M39.49,34.94c-.29-2.61,5.36-3.24,5.65-.64"/>
      <path class="cls-6" d="M51.41,34.4c.17-2.43,5.45-2.06,5.28.38"/>
    </g>
  </g>
</svg>