<?xml version="1.0" encoding="UTF-8"?>
<svg id="Layer_2" xmlns="http://www.w3.org/2000/svg" viewBox="0 0 108.1 103.84">
  <defs>
    <style>
      .cls-1 {
        fill: #222a41;
      }

      .cls-2 {
        fill: #e9b6c3;
      }

      .cls-3 {
        stroke-width: .52px;
      }

      .cls-3, .cls-4, .cls-5, .cls-6 {
        fill: none;
        stroke: #222a41;
        stroke-miterlimit: 10;
      }

      .cls-4 {
        stroke-width: .44px;
      }

      .cls-4, .cls-5, .cls-6 {
        stroke-linecap: round;
      }

      .cls-7 {
        fill: #bf9796;
      }

      .cls-5 {
        stroke-width: .4px;
      }

      .cls-6 {
        stroke-width: .36px;
      }

      .cls-8 {
        fill: #2a6764;
      }
    </style>
  </defs>
  <g id="How_it_works">
    <g>
      <path class="cls-7" d="M44.03,31.6s6.82,12.62.59,18.85c-6.23,6.23.33,25.12.33,25.12,0,0,1.12-18.9,11.92-22.94,10.8-4.04-12.84-21.03-12.84-21.03Z"/>
      <path class="cls-2" d="M53.96,50.16s-1.03,5.82,5.33,5.43c6.36-.39,11.34-5.43,11.34-5.43v-19.85s-16.67,0-16.67,0v19.85Z"/>
      <line class="cls-1" x1="53.98" y1="45.9" x2="70.91" y2="34.03"/>
      <path class="cls-1" d="M72.31,34.99s-4.13,13.69-18.58,13.34v-3.01s18.58-10.33,18.58-10.33Z"/>
      <path class="cls-2" d="M77.29,29.42c-.22,1.47-1.19,3.64-3.22,3.19-2.44,6.54-7.44,13.22-21.65,13.22-3.73,0-7.93-7.51-8.9-15.89-.93-7.98-.38-14.85-.49-17.61-.23-5.65,12.35-13.92,22.85-9.74,10.5,4.18,15.08,2.79,11.42,26.83Z"/>
      <path class="cls-2" d="M20.45,75.7l-1.69-3.95s.64-2.6.01-6.23c-.62-3.64-3.49-7.37-4.37-9.28s-1.94.77-1.22,2.16,1.04,3.86,1.04,3.86c0,0-1.51-.51-2.58-1.51s-2.39-2.6-3.38-4.06c-2.05-3-1.79-5.09-2.18-6.27-1.63-5.01-5.36-.38-5.91,5.26-.21,2.07-1.31,9.68,6.28,15.4,5.09,3.77,4.72,5.91,5.46,9.01"/>
      <path class="cls-8" d="M93.37,59.43c-10.5-7.43-19.2-7.8-27.79-7.43-8.59-.36-17.29,0-27.79,7.43-5.44,3.85-9.19,15.62-11.55,26.08l-3.39-9.57c-.68-1.91-2.71-2.97-4.66-2.42l-5.62,1.56c-1.88.52-3,2.44-2.53,4.33l6.08,24.43h91.98s-4.23-36.98-14.73-44.41Z"/>
      <path class="cls-4" d="M9.44,61.82s-1.03-.65-2.96-4.35c-2.05-3.94-1.88-6-1.88-6,0,0,.08-2.12-1.35-2.54"/>
      <path class="cls-4" d="M14.22,62.33s-.99.61-.91,3.05.91,3.27.91,3.27"/>
      <path class="cls-5" d="M7.17,62.27s-.82-.63-2.57-4.02c-1.75-3.39-1.77-6.77-1.77-6.77,0,0,.03-1.24-.79-1.44"/>
      <path class="cls-6" d="M5.24,63.86s-.9-.84-2.44-3.94-1.37-5.95-1.37-5.95c0,0,.02-1.14-.7-1.32"/>
      <path class="cls-8" d="M71.86,62.88h-15.72c-3.23,0-5.88-2.65-5.88-5.88v-4.59c0-1.9,2.2-5.68,3.45-3.45,2.12,3.79,19.65,4.07,21.25,0,.87-2.22,2.77,1.25,2.77,2.77v5.28c0,3.23-2.65,5.88-5.88,5.88Z"/>
      <line class="cls-4" x1="87.04" y1="99.77" x2="87.04" y2="100.4"/>
      <line class="cls-4" x1="87.04" y1="93.09" x2="87.04" y2="98"/>
      <path class="cls-4" d="M95.48,61.4s-2.76-2.62-4.96.23c-4.5,5.84-3.34,30.1-3.34,30.1"/>
      <path class="cls-4" d="M54.75,68.99c-5.25-.91-6.47-4-6.47-4"/>
      <line class="cls-4" x1="80.25" y1="55.41" x2="80.25" y2="57.55"/>
      <path class="cls-4" d="M70.91,62.27h-14.77c-3.25,0-5.88-2.63-5.88-5.88v-1.08"/>
      <path class="cls-1" d="M26.23,85.47s3.34,12.17,3.09,18.29c.78-9.57-1.29-24.53-1.55-24.41l-1.54,6.12Z"/>
      <path class="cls-7" d="M73.39,3.98c5.65,5.03,12.34,12.48,9.5,39.85-1.84,17.73-12.61,11.69-23.02,38.12-3.66-23.81,11.88-32.44,10.35-42.64,1.17-1.67.98-2.66,2.1-5.09.64-2.38,3.58-1.15,4.36-6.53,1.61-10.97-3.29-23.7-3.29-23.7Z"/>
      <path class="cls-3" d="M51.75,23.19s.76,2.39-1.39,8.74c-.83,2.44,1.59,3.41,2.58,2.31"/>
      <circle class="cls-1" cx="57.95" cy="24.65" r="1.46"/>
      <circle class="cls-1" cx="46.52" cy="24.65" r="1.46"/>
      <path class="cls-3" d="M57.92,37.01s-.69,1.78-4.45,1.78c-2.47,0-3.16-.07-3.16-.07"/>
      <path class="cls-7" d="M63.28,20.31c-8.87-1.01-12.47-9.55-12.47-9.55,0,0-2.84.46-4.95,3.16-2.22,2.85-2.91,6.93-2.91,6.93,0,0-6.03-14.07,10.19-20.3,2.84-1.09,14.27-.87,20.02,3.26,12.72,9.13,3.11,26.21,3.11,26.21,0,0,1.7-7.35-.98-8.27s-3.43,1.49-4.16,3.91c0,0-1.25-4.6-7.86-5.35Z"/>
    </g>
  </g>
</svg>