<?xml version="1.0" encoding="UTF-8"?>
<svg id="Layer_2" xmlns="http://www.w3.org/2000/svg" viewBox="0 0 125.97 123.65">
  <defs>
    <style>
      .cls-1 {
        fill: #222a41;
      }

      .cls-2 {
        fill: #e9b6c3;
      }

      .cls-3 {
        stroke-width: .48px;
      }

      .cls-3, .cls-4, .cls-5, .cls-6, .cls-7 {
        fill: none;
        stroke: #222a41;
        stroke-miterlimit: 10;
      }

      .cls-4 {
        stroke-width: .46px;
      }

      .cls-5 {
        stroke-width: .44px;
      }

      .cls-5, .cls-6, .cls-7 {
        stroke-linecap: round;
      }

      .cls-8 {
        fill: #374869;
      }

      .cls-6 {
        stroke-width: .4px;
      }

      .cls-7 {
        stroke-width: .36px;
      }

      .cls-9 {
        fill: #2a6764;
      }
    </style>
  </defs>
  <g id="How_it_works">
    <g>
      <path class="cls-2" d="M20.45,95.51l-1.69-3.95s.64-2.6.01-6.23c-.62-3.64-3.49-7.37-4.37-9.28s-1.94.77-1.22,2.16,1.04,3.86,1.04,3.86c0,0-1.51-.51-2.58-1.51s-2.39-2.6-3.38-4.06c-2.05-3-1.79-5.09-2.18-6.27-1.63-5.01-5.36-.38-5.91,5.26-.21,2.07-1.31,9.68,6.28,15.4,5.09,3.77,4.72,5.91,5.46,9.01"/>
      <path class="cls-8" d="M93.37,79.24c-10.5-7.43-19.2-7.8-27.79-7.43-8.59-.36-17.29,0-27.79,7.43-5.44,3.85-9.19,15.62-11.55,26.08l-3.39-9.57c-.68-1.91-2.71-2.97-4.66-2.42l-5.62,1.56c-1.88.52-3,2.44-2.53,4.33l6.08,24.43h91.98s-4.23-36.98-14.73-44.41Z"/>
      <path class="cls-5" d="M9.44,81.63s-1.03-.65-2.96-4.35c-2.05-3.94-1.88-6-1.88-6,0,0,.08-2.12-1.35-2.54"/>
      <path class="cls-5" d="M14.22,82.14s-.99.61-.91,3.05.91,3.27.91,3.27"/>
      <path class="cls-6" d="M7.17,82.08s-.82-.63-2.57-4.02c-1.75-3.39-1.77-6.77-1.77-6.77,0,0,.03-1.24-.79-1.44"/>
      <path class="cls-7" d="M5.24,83.67s-.9-.84-2.44-3.94-1.37-5.95-1.37-5.95c0,0,.02-1.14-.7-1.32"/>
      <line class="cls-5" x1="87.04" y1="112.91" x2="87.04" y2="117.81"/>
      <path class="cls-5" d="M95.48,81.21s-2.76-2.62-4.96.23c-4.5,5.84-3.34,30.1-3.34,30.1"/>
      <path class="cls-5" d="M54.75,88.8c-5.25-.91-6.47-4-6.47-4"/>
      <path class="cls-8" d="M71.86,83.89h-15.72c-3.23,0-5.88-2.65-5.88-5.88v-4.59c0-1.9,2.2-5.68,3.45-3.45,2.12,3.79,19.65,4.07,21.25,0,.87-2.22,2.77,1.25,2.77,2.77v5.28c0,3.23-2.65,5.88-5.88,5.88Z"/>
      <path class="cls-5" d="M70.91,82.08h-14.77c-3.25,0-5.88-2.63-5.88-5.88v-1.08"/>
      <path class="cls-1" d="M26.23,105.28s3.34,12.17,3.09,18.29c.78-9.57-1.29-24.53-1.55-24.41l-1.54,6.12Z"/>
      <path d="M44.33,54.6s6.08,11.26.53,16.81c-5.55,5.55.29,22.4.29,22.4,0,0,.99-16.85,10.63-20.46,9.63-3.6-11.45-18.76-11.45-18.76Z"/>
      <path class="cls-2" d="M55.83,72.13s-.92,5.19,4.75,4.85,10.12-4.85,10.12-4.85v-17.71s-14.87,0-14.87,0v17.71Z"/>
      <line class="cls-1" x1="55.84" y1="68.33" x2="70.95" y2="57.74"/>
      <path class="cls-1" d="M70.73,57.22s-2.21,13.58-15.1,13.28v-2.69s15.1-10.59,15.1-10.59Z"/>
      <path class="cls-2" d="M74.37,53.52c-.2,1.31-1.06,3.25-2.87,2.85-2.18,5.84-6.63,11.79-19.31,11.79-3.32,0-7.07-6.7-7.94-14.17-.83-7.12-.34-13.25-.43-15.7-.2-5.04,11.01-12.41,20.38-8.69,9.37,3.73,13.45,2.49,10.18,23.93Z"/>
      <path class="cls-4" d="M50.74,46.77s.68,2.13-1.24,7.79c-.74,2.18,1.42,3.04,2.3,2.06"/>
      <circle class="cls-1" cx="57.09" cy="47.19" r="1.3"/>
      <circle class="cls-1" cx="47.41" cy="47.19" r="1.3"/>
      <path class="cls-4" d="M51.8,61.57s.48-1.64,3.81-1.92c2.2-.19,2.82-.18,2.82-.18"/>
      <path d="M61.32,48.13c-5.39-1.58-10.28-11.4-10.28-11.4,0,0-2.82.56-4.69,2.97-1.98,2.54-2.59,6.18-2.59,6.18,0,0-2.7-15.81,9.09-18.1,2.66-.52,12.72-.77,17.85,2.91,11.35,8.14,3.8,21.93,3.8,21.93,0,0,1.05-4.81-1.35-5.63s-2.46,1.52-3.75,1.77c-2.4.47-3.97.57-8.09-.63Z"/>
      <path d="M72.08,30.99c3.52,1.93,10.23,10.03,7.55,34.96-1.73,16.15-9.07,4.82-18.88,28.9-3.45-21.69,11.25-28.35,9.81-37.64l.58-1.4s4.26.84,3.08-9.19c-1.18-10.03-2.14-15.63-2.14-15.63Z"/>
      <g>
        <path class="cls-9" d="M71.27,41.49l7.68,1.36s7.39-18.35-11.9-22.79c-9.71-1.91-18.15-.74-19.98,5.39-1.82,6.13-2.14,7.27-2.14,7.27,0,0-13.2,2.46-13.57,6.34s6.37,3.27,8.3,2.41,3.23-2.14,3.23-2.14c0,0,3.64.32,8.86,3.62s8.08,5.05,19.52-1.47Z"/>
        <path d="M42.89,39.34s-12.21-3.67-10.27,2.14c-.08-.05,5.31,2.72,10.27-2.14Z"/>
        <path class="cls-3" d="M69.2,20.97c8.45,2.67,2.08,20.52,2.08,20.52,0,0-10.33-12.18-26.33-8.76"/>
      </g>
      <path class="cls-2" d="M105.51,92.56l1.69-3.95s-.64-2.6-.01-6.23c.62-3.64,3.49-7.37,4.37-9.28s1.94.77,1.22,2.16-1.04,3.86-1.04,3.86c0,0,1.51-.51,2.58-1.51s2.39-2.6,3.38-4.06c2.05-3,1.79-5.09,2.18-6.27,1.63-5.01,5.36-.38,5.91,5.26.21,2.07,1.31,9.68-6.28,15.4-5.09,3.77-4.72,5.91-5.46,9.01"/>
      <path class="cls-5" d="M116.53,78.68s1.03-.65,2.96-4.35c2.05-3.94,1.88-6,1.88-6,0,0-.08-2.12,1.35-2.54"/>
      <path class="cls-5" d="M111.74,79.19s.99.61.91,3.05-.91,3.27-.91,3.27"/>
      <path class="cls-6" d="M118.8,79.13s.82-.63,2.57-4.02c1.75-3.39,1.77-6.77,1.77-6.77,0,0-.03-1.24.79-1.44"/>
      <path class="cls-7" d="M120.73,80.72s.9-.84,2.44-3.94,1.37-5.95,1.37-5.95c0,0-.02-1.14.7-1.32"/>
      <path class="cls-8" d="M109.15,123.58l-13.08.08,6.9-29.61c.59-2.54,3.13-4.12,5.67-3.53l3.18.74c2.54.59,4.12,3.13,3.53,5.67l-6.21,26.65Z"/>
      <path class="cls-2" d="M85.45,21.49l.25-.87c.37-1.27,1.22-1.71,2.55-1.32l2.17.64c1.35.39,1.83,1.23,1.46,2.5l-.25.87c-.37,1.27-1.23,1.71-2.58,1.31l-2.17-.64c-1.33-.39-1.81-1.22-1.44-2.49ZM87.22,17.04c-.13-.39-.1-.92.1-1.59l.07-.24c.39-1.34.96-2.39,1.71-3.15.75-.76,1.84-1.53,3.28-2.31.81-.44,1.34-.75,1.57-.93.23-.18.42-.49.54-.93.27-.92-.18-1.56-1.34-1.9-.52-.15-1.09-.17-1.73-.06s-1.24.31-1.81.6c-.26.15-.48.2-.64.15-.18-.05-.3-.28-.35-.67l-.37-3.35c-.04-.41-.03-.72.03-.93.07-.25.24-.46.5-.6,1.12-.57,2.24-.93,3.33-1.07,1.1-.14,2.3-.02,3.62.36,2.04.6,3.51,1.71,4.4,3.32.89,1.61,1,3.55.34,5.82-.41,1.39-.97,2.46-1.69,3.21-.72.75-1.67,1.4-2.85,1.93-.79.35-1.38.69-1.77,1.04-.39.35-.66.78-.81,1.29l-.05.17c-.2.67-.46,1.13-.77,1.39-.32.26-.76.3-1.33.14l-2.97-.87c-.55-.16-.89-.44-1.02-.82Z"/>
    </g>
  </g>
</svg>