<?xml version="1.0" encoding="UTF-8"?>
<svg id="Layer_2" xmlns="http://www.w3.org/2000/svg" viewBox="0 0 81.14 121.79">
  <defs>
    <style>
      .cls-1 {
        fill: #222a41;
      }

      .cls-2 {
        stroke-width: .46px;
      }

      .cls-2, .cls-3 {
        fill: none;
        stroke: #222a41;
        stroke-miterlimit: 10;
      }

      .cls-4 {
        fill: #9b9a9a;
      }

      .cls-3 {
        stroke-linecap: round;
        stroke-width: .44px;
      }

      .cls-5 {
        fill: #6d6d6d;
      }

      .cls-6 {
        fill: #3d2f33;
      }

      .cls-7 {
        fill: #5c464c;
      }
    </style>
  </defs>
  <g id="Text">
    <g>
      <g>
        <circle class="cls-1" cx="78.94" cy="115.38" r=".97"/>
        <circle class="cls-6" cx="1.37" cy="112.01" r="1.37"/>
        <circle class="cls-6" cx="53.62" cy="117.19" r="4.6"/>
        <circle class="cls-7" cx="35.67" cy="115.45" r="2.86"/>
        <path class="cls-6" d="M4.49,88.95c2.36-10.46,6.11-22.23,11.55-26.08,10.5-7.43,19.2-7.8,27.79-7.43,8.59-.36,17.29,0,27.79,7.43,10.5,7.43,9.49,44.74,9.49,44.74,0,7.07-8.9,7.07-8.9,0-.32,13.02-13.82,12.69-13.5-.33,0,5.55-9.89,5.55-9.89,0,0,8.19-12.6,8.19-12.6,0,0,6.46-9.7,6.46-9.7,0,0,10.72-13.39,10.72-13.39,0,0,3.82-10.96,3.82-10.96,0,0,0-.06-9.23,2.32-18.33Z"/>
        <circle class="cls-1" cx="38.83" cy="26.9" r="1.37"/>
        <polygon class="cls-7" points="33.29 57.74 40.02 66.96 54.38 57.74 54.38 34.09 33.29 34.09 33.29 57.74"/>
        <path class="cls-3" d="M12.98,106.33c-1.47-31.4,4.19-44.24,4.19-44.24"/>
        <path class="cls-3" d="M74.92,66.89s-2.95-4.14-5.14-1.28c-4.5,5.84-7.21,43.41-7.21,43.41"/>
        <path class="cls-1" d="M33.29,49.66v5.03c19.98,2.94,21.97-13.91,21.09-15.23l-21.09,10.2Z"/>
        <path class="cls-7" d="M60.3,30.52c-.24,1.57-1.88,6.47-4.06,5.98-3.49,15.49-15.39,16.37-22.96,16.37-7.69,0-10.74-6.97-11.71-16.76-.41-4.14.92-5.43.77-7.45-.5-6.85-1.72-4.34-.96-12.77C22,9.11,29.77-.84,41.83.06c8,.6,18.34,4.38,15.87,25.47,4.09-2.55,3.14,1.43,2.6,4.98Z"/>
        <path class="cls-3" d="M32.25,25.8s1.11,2.86-1.74,9.46c-1.1,2.53,2.11,3.54,3.42,2.4"/>
        <rect class="cls-3" x="19.3" y="24.2" width="11.5" height="6.47" rx="2.99" ry="2.99"/>
        <rect class="cls-3" x="33.95" y="24.2" width="11.5" height="6.47" rx="2.99" ry="2.99"/>
        <path class="cls-3" d="M30.8,27.19c1.05-.75,2.1-.8,3.15,0"/>
      </g>
      <polygon class="cls-4" points="33.13 55.89 30.42 58.42 32.75 75.59 40.02 66.96 45.76 76.93 58.23 60.71 54.38 55.76 54.38 57.74 40.08 66.62 33.13 55.89"/>
      <circle class="cls-1" cx="26.27" cy="27.83" r="1.22"/>
      <circle class="cls-1" cx="26.61" cy="27.44" r="1.22"/>
      <circle class="cls-1" cx="37.98" cy="27.44" r="1.22"/>
      <path class="cls-2" d="M37.98,42.13s-.62,1.59-3.96,1.59c-2.21,0-2.82-.06-2.82-.06"/>
      <path class="cls-1" d="M42.38,71.05c-2.39,1.5-5.18-.45-5.18-.45"/>
      <path class="cls-3" d="M31.32,56.3s-5.43,7.54.45,13.42"/>
      <path class="cls-3" d="M35.3,73.03s3.52,2.29,8.61.99"/>
      <path class="cls-5" d="M40.02,66.96l-2.83,3.54s2.58,2.08,5.09.39c0,0-2.26-3.93-2.26-3.93Z"/>
      <path class="cls-1" d="M45.03,24.21s-3.55-1.33-6.57-.6c-1.83.44-2.02-1.58-.65-1.94s3.33-.73,7.22,2.53Z"/>
      <path class="cls-1" d="M21.19,24.03s3.25-1.2,5.89-.51c1.6.42,1.9-1.44.7-1.78s-2.91-.69-6.6,2.29Z"/>
      <path class="cls-3" d="M49.85,71.62s6.65-2.95,9.61-9.78c0,0,2.32-4.8-4.92-5.94l3.69,4.82-12.46,16.23-5.74-9.97-7.28,8.63-2.33-17.17,2.56-2.45"/>
    </g>
  </g>
</svg>