<?xml version="1.0" encoding="UTF-8"?>
<svg id="Layer_2" xmlns="http://www.w3.org/2000/svg" viewBox="0 0 212.05 266.95">
  <defs>
    <style>
      .cls-1, .cls-2, .cls-3 {
        fill: #222a41;
      }

      .cls-4 {
        fill: #e9b6c3;
      }

      .cls-5, .cls-6, .cls-2, .cls-3, .cls-7, .cls-8, .cls-9 {
        stroke-miterlimit: 10;
      }

      .cls-5, .cls-6, .cls-7, .cls-8, .cls-9 {
        fill: none;
      }

      .cls-5, .cls-7, .cls-9 {
        stroke-width: .39px;
      }

      .cls-5, .cls-8 {
        stroke: #222a41;
      }

      .cls-10 {
        fill: #995267;
      }

      .cls-11 {
        fill: #fff;
      }

      .cls-6, .cls-2 {
        stroke-width: .5px;
      }

      .cls-6, .cls-2, .cls-3, .cls-7, .cls-9 {
        stroke: #fff;
      }

      .cls-12 {
        fill: #bf9796;
      }

      .cls-13 {
        fill: #374869;
      }

      .cls-3 {
        stroke-width: .45px;
      }

      .cls-8 {
        stroke-width: .4px;
      }

      .cls-9 {
        stroke-dasharray: 6.05 6.05;
      }
    </style>
  </defs>
  <g id="How_it_works">
    <g>
      <g>
        <path class="cls-7" d="M177.34,71.75l5.61-.03c.62,0,1.13.5,1.13,1.12v47.04c0,1.17-.95,2.12-2.12,2.12h-3.69"/>
        <path class="cls-7" d="M106.91,74.83h73.79v41.89c0,.81-.66,1.47-1.47,1.47h-74.03v-41.65c0-.94.76-1.71,1.71-1.71Z" transform="translate(285.91 193.02) rotate(180)"/>
        <polyline class="cls-7" points="153.79 122 152.01 122 153.98 133.66"/>
        <path class="cls-7" d="M156.37,133.88l-2.58-11.87h29.57c1.32,0,2.39-1.07,2.39-2.39v-46.79c0-.61-.5-1.11-1.11-1.11h-78.85c-1.78,0-3.22,1.44-3.22,3.22v45.84c0,.61.5,1.11,1.11,1.11h27.96s2.51,12,2.51,12h22.21Z"/>
      </g>
      <path class="cls-7" d="M.19,133.88v5.58s12.32,0,12.32,0v127.13s6.4,0,6.4,0v-127.13h129.23v127.13s6.08,0,6.08,0v-83.45h44.17v83.45s5.25,0,5.25,0v-127.13h8.21s0-5.58,0-5.58H.19ZM154.14,139.46h44.25v39.08h-44.25v-39.08Z"/>
      <path class="cls-10" d="M100.77,266.93h-27.9v-6.5c0-1.09,0-4.27,1.97-4.19h11.98s13.95,3.08,13.95,10.69Z"/>
      <line class="cls-5" x1="90.82" y1="257.5" x2="88.14" y2="258.74"/>
      <path class="cls-5" d="M78.04,265.39s.3-6.03-5.13-6.03"/>
      <line class="cls-5" x1="92.47" y1="258.12" x2="89.79" y2="259.36"/>
      <path class="cls-5" d="M95.96,259.95s-3.08-.22-4.68,2.61c-1.26,2.23-8.79-.64-8.79,2.83"/>
      <line class="cls-5" x1="100.58" y1="265.39" x2="72.88" y2="265.39"/>
      <line class="cls-5" x1="100.77" y1="266.75" x2="72.88" y2="266.75"/>
      <path class="cls-10" d="M146.69,266.6h-27.9v-6.5c0-1.09,0-4.27,1.97-4.19h11.98s13.95,3.08,13.95,10.69Z"/>
      <line class="cls-5" x1="136.74" y1="257.18" x2="134.06" y2="258.41"/>
      <path class="cls-5" d="M123.96,265.06s.3-6.03-5.13-6.03"/>
      <line class="cls-5" x1="138.39" y1="257.79" x2="135.71" y2="259.03"/>
      <rect class="cls-4" x="74.07" y="248.77" width="11.58" height="7.14" transform="translate(159.71 504.69) rotate(-180)"/>
      <rect class="cls-4" x="120.71" y="248.77" width="11.58" height="7.14" transform="translate(252.99 504.69) rotate(-180)"/>
      <path class="cls-5" d="M141.88,259.62s-3.08-.22-4.68,2.61c-1.26,2.23-8.79-.64-8.79,2.83"/>
      <line class="cls-5" x1="146.49" y1="265.06" x2="118.8" y2="265.06"/>
      <line class="cls-5" x1="146.69" y1="266.43" x2="118.8" y2="266.43"/>
      <path class="cls-13" d="M88.56,149.88s45.2,11.62,50.1,21.96c2.54,4.72-4.36,78.78-4.36,78.78,0,0-7.81,2-14.16,0,.36-5.81-9.08-44.47-2.9-59.18,0,.18-23.96-7.26-23.96-7.26,0,0-2.18,46.79-6.54,67.33-2.36,2.56-13.25,3.29-14.52,2.38,0-11.25-7.81-50.1,0-59.18,7.81-9.08,3.99-44.84,3.99-44.84h12.34Z"/>
      <path class="cls-5" d="M127.19,245.31s-.43-59.06-.43-61.52,2.38-1.64,2.13-2.96c-.49-2.63-5.75,3.12-6.9,1.64s5.26-3.39,4.35-5.13c-2.67-3.78-43.21-14.08-43.21-14.08,0,0-7.01-.76-8.19-13.78"/>
      <path class="cls-4" d="M76.07,95.06s6.85,14.89,12.03,29.17c7.56-.13,9.53,3.63,14.41,4.24,2.42.3,4.65-3.83,6.6-2.77,6.43,3.51,4.69,7.95,4.69,7.95h-31.1l-14.83-20.94,8.2-17.66Z"/>
      <path class="cls-1" d="M81.14,105.86s-6.78,5.35-4.27,17.78c-4.3-4.29-9.01-12.43-9.01-12.43l13.27-5.35Z"/>
      <path class="cls-10" d="M88.97,150.07c-19.24-40.4-12.28-45.69-15.13-59.33-6.47-21.54-32.27-21.95-40.93-16.86-9.21,5.82,9.22,78.76,18.89,80.06l-10.96-3.99,48.13.12Z"/>
      <line class="cls-5" x1="86.83" y1="193.6" x2="84.6" y2="245.83"/>
      <path class="cls-5" d="M134.84,244.71s-10.04,1.54-15.29,0"/>
      <g>
        <rect class="cls-2" x="55.4" y="241.65" width="12.22" height="18.34" rx="6.11" ry="6.11" transform="translate(123.02 501.63) rotate(-180)"/>
        <circle class="cls-2" cx="41.7" cy="262.91" r="3.69"/>
        <circle class="cls-2" cx="83.14" cy="262.91" r="3.69"/>
        <rect class="cls-2" x="59.12" y="231.16" width="5.69" height="54.62" rx="2.63" ry="2.63" transform="translate(320.43 196.5) rotate(90)"/>
        <path class="cls-3" d="M58.66,242.39c2.23-.9,4.18-1.03,5.69,0v-48.09c0-1.39-1.14-2.53-2.53-2.53h-.62c-1.39,0-2.53,1.14-2.53,2.53v48.09Z"/>
        <rect class="cls-2" x="55.4" y="187.86" width="12.22" height="18.34" rx="6.11" ry="6.11" transform="translate(123.02 394.06) rotate(180)"/>
        <path class="cls-2" d="M131.71,196.25c.79-2.44-.32-10.82-6.19-11.78-4.38-10.71-13.96-16.82-26.26-16.82-22,0-22.8-5.85-22.8-27.82,0-28.85-65.15-28.85-65.15,0,0,0-4.89,56.43,18.09,56.43,22.98,0,102.31,0,102.31,0Z"/>
      </g>
      <path class="cls-5" d="M87.97,244.71s-6.39,2.86-16.23,2.11"/>
      <line class="cls-5" x1="88.87" y1="149.88" x2="76.64" y2="149.83"/>
      <path class="cls-4" d="M28.23,90.4s-6.25,25.7-2.68,33.02c3.57,7.32,29.92-3.75,34.96-2.5,2.62.65,4.29,1.36,8.83,4.72,0,0,.12-8.62-9.66-10.89-15.29-3.54-18.87-2.18-18.87-2.18l2.03-15.29-14.61-6.88Z"/>
      <path class="cls-10" d="M26.32,88.02c.98-8.35,3.56-14.66,12.3-16.47,8.74-1.8,27.12-.19,26.65,8.3-.47,8.49-15.15,19.44-15.38,22.29s-26.65,2.43-26.4-.59,2.25-8.6,2.83-13.53Z"/>
      <path class="cls-10" d="M63.11,75.18s11.18,7.99,19.71,28.15c1.03,2.44-12.89,8.52-12.89,8.52l-6.82-36.67Z"/>
      <path class="cls-8" d="M32.24,76.46c3.48-1.34,7.32-.89,9.02,2.23s1.8,5.98,1.8,5.98"/>
      <line class="cls-8" x1="43.76" y1="87.48" x2="44.11" y2="90.4"/>
      <path class="cls-1" d="M29.75,103.63s10.17.38,11.52,5.52c0,0,.75-5.66.75-5.66,0,0-8.36.8-12.27.14Z"/>
      <path class="cls-8" d="M71,89.82s2.02,4.68,4.05,17.88"/>
      <line class="cls-8" x1="70.19" y1="88.08" x2="68.49" y2="84.42"/>
      <g>
        <path class="cls-4" d="M59.01,74.96c-.11-2.12,1.48-4.22,1.48-4.22,0,0,9.33,6.1,10.67-6.35.56-.2,2.29-.32,2.29-2.04,0-1.22-1.92-3.86-.99-6.81,1.17-3.69.76-5.62.53-5.3h0c-.02-3.07-1.26-4.32-1.26-4.32l-26.17,7.39s2.22,9.03-2.69,17.68c8.47.72,16.92,15.84,16.15,3.97Z"/>
        <path class="cls-12" d="M75.15,50.07c-1.71,2.56-7.41-.08-8.47,1.4s-2.39,5.77-3.63,6.3.42-5.03-2.45-4.13-2.87,13.01-11.04,11.17c-8.17-1.85-2.94-5.6-4.56-9.4-3.53-8.33-2.72-18.34,5.9-19.17,3-.29,5.11-3.57,11.36-2.62,14.19,2.17,16.85,10.53,12.89,16.45Z"/>
        <path class="cls-8" d="M70.21,68.58s-1.97-.87-2.27-2.49"/>
        <ellipse class="cls-1" cx="70.1" cy="56.95" rx=".34" ry="1.06"/>
      </g>
      <path class="cls-8" d="M60.7,71.2s-2.15-2.03-3.17-4.75"/>
      <rect class="cls-7" x="119.18" y="81.98" width="44.77" height="27.49" rx="2.62" ry="2.62"/>
      <path class="cls-6" d="M119.93,82.66l18.77,16.3c1.65,1.43,4.09,1.43,5.74,0l18.77-16.3"/>
      <line class="cls-6" x1="119.93" y1="108.78" x2="134.49" y2="95.43"/>
      <line class="cls-6" x1="148.57" y1="95.36" x2="163.2" y2="108.78"/>
      <g>
        <path class="cls-7" d="M153.72,18.3s-1.02.46-2.69,1.32"/>
        <path class="cls-9" d="M145.75,22.6c-6.88,4.21-16.27,11.28-19.87,20.17-8.16,20.16,14.81,27.8,22.55,13.62,8.77-16.06-18.8-38.42-45.86-25.38-29.52,14.23-23.81,57.08-5.92,63.85"/>
        <path class="cls-7" d="M99.59,95.61c.97.14,1.97.18,2.99.11"/>
      </g>
      <polygon class="cls-11" points="189.67 0 149.07 0 160.73 5.36 189.67 0"/>
      <polygon class="cls-4" points="160.73 5.36 158.01 18.25 189.67 0 160.73 5.36"/>
      <polygon class="cls-10" points="164.05 9.53 158.01 18.25 166.43 13.4 164.05 9.53"/>
      <polygon class="cls-11" points="189.67 0 164.05 9.53 169.37 23.66 189.67 0"/>
    </g>
  </g>
</svg>