<?xml version="1.0" encoding="UTF-8"?>
<svg id="Layer_2" data-name="Layer 2" xmlns="http://www.w3.org/2000/svg" viewBox="0 0 61.81 62.76">
  <defs>
    <style>
      .cls-1 {
        fill: #fff;
        stroke: #000;
        stroke-miterlimit: 10;
        stroke-width: 2px;
      }
    </style>
  </defs>
  <g id="Layer_6" data-name="Layer 6">
    <g>
      <circle class="cls-1" cx="30.91" cy="31.38" r="7.83"/>
      <path class="cls-1" d="M26.93,9.37c0,5.3,3.42,14.18,3.42,14.18h2.54s1.99-8.78,1.99-14.18-3.97-8.15-3.97-8.15c0,0-3.97,2.85-3.97,8.15Z"/>
      <path class="cls-1" d="M19.65,12.06c1.81,4.98,8.06,12.16,8.06,12.16l2.38-.87s-1.13-8.93-2.98-14.01-6.52-6.3-6.52-6.3c0,0-2.76,4.04-.95,9.01Z"/>
      <path class="cls-1" d="M13.72,17.07c3.4,4.06,11.73,8.67,11.73,8.67l1.94-1.63s-4.12-8.01-7.59-12.14c-3.47-4.13-8.28-3.69-8.28-3.69,0,0-1.21,4.74,2.19,8.79Z"/>
      <path class="cls-1" d="M9.86,23.82c4.59,2.65,13.99,4.13,13.99,4.13l1.27-2.2s-6.61-6.12-11.29-8.81c-4.67-2.7-9.04-.63-9.04-.63,0,0,.48,4.87,5.07,7.51Z"/>
      <path class="cls-1" d="M8.54,31.47c5.22.92,14.56-.9,14.56-.9l.44-2.5s-8.3-3.49-13.62-4.42c-5.32-.94-8.71,2.5-8.71,2.5,0,0,2.12,4.41,7.33,5.33Z"/>
      <path class="cls-1" d="M9.92,39.11c5.22-.92,13.37-5.83,13.37-5.83l-.44-2.5s-9-.44-14.31.5c-5.32.94-7.33,5.33-7.33,5.33,0,0,3.5,3.42,8.71,2.5Z"/>
      <path class="cls-1" d="M13.83,45.83c4.59-2.65,10.57-10.05,10.57-10.05l-1.27-2.2s-8.6,2.67-13.28,5.37c-4.67,2.7-5.07,7.51-5.07,7.51,0,0,4.46,2.01,9.04-.63Z"/>
      <path class="cls-1" d="M19.8,50.8c3.4-4.06,6.5-13.06,6.5-13.06l-1.94-1.63s-7.17,5.45-10.64,9.58c-3.47,4.13-2.19,8.79-2.19,8.79,0,0,4.88.37,8.28-3.69Z"/>
      <path class="cls-1" d="M27.11,53.42c1.81-4.98,1.64-14.49,1.64-14.49l-2.38-.87s-4.88,7.57-6.72,12.64c-1.85,5.07.95,9.01.95,9.01,0,0,4.71-1.32,6.52-6.3Z"/>
      <path class="cls-1" d="M34.88,53.39c0-5.3-3.42-14.18-3.42-14.18h-2.54s-1.99,8.78-1.99,14.18,3.97,8.15,3.97,8.15c0,0,3.97-2.85,3.97-8.15Z"/>
      <path class="cls-1" d="M42.17,50.71c-1.81-4.98-8.06-12.16-8.06-12.16l-2.38.87s1.13,8.93,2.98,14.01,6.52,6.3,6.52,6.3c0,0,2.76-4.04.95-9.01Z"/>
      <path class="cls-1" d="M48.1,45.69c-3.4-4.06-11.73-8.67-11.73-8.67l-1.94,1.63s4.12,8.01,7.59,12.14,8.28,3.69,8.28,3.69c0,0,1.21-4.74-2.19-8.79Z"/>
      <path class="cls-1" d="M51.95,38.95c-4.59-2.65-13.99-4.13-13.99-4.13l-1.27,2.2s6.61,6.12,11.29,8.81,9.04.63,9.04.63c0,0-.48-4.87-5.07-7.51Z"/>
      <path class="cls-1" d="M53.27,31.29c-5.22-.92-14.56.9-14.56.9l-.44,2.5s8.3,3.49,13.62,4.42,8.71-2.5,8.71-2.5c0,0-2.12-4.41-7.33-5.33Z"/>
      <path class="cls-1" d="M51.89,23.65c-5.22.92-13.37,5.83-13.37,5.83l.44,2.5s9,.44,14.31-.5c5.32-.94,7.33-5.33,7.33-5.33,0,0-3.5-3.42-8.71-2.5Z"/>
      <path class="cls-1" d="M47.98,16.94c-4.59,2.65-10.57,10.05-10.57,10.05l1.27,2.2s8.6-2.67,13.28-5.37c4.67-2.7,5.07-7.51,5.07-7.51,0,0-4.46-2.01-9.04.63Z"/>
      <path class="cls-1" d="M42.01,11.97c-3.4,4.06-6.5,13.06-6.5,13.06l1.94,1.63s7.17-5.45,10.64-9.58c3.47-4.13,2.19-8.79,2.19-8.79,0,0-4.88-.37-8.28,3.69Z"/>
      <path class="cls-1" d="M34.7,9.34c-1.81,4.98-1.64,14.49-1.64,14.49l2.38.87s4.88-7.57,6.72-12.64c1.85-5.07-.95-9.01-.95-9.01,0,0-4.71,1.32-6.52,6.3Z"/>
    </g>
  </g>
</svg>