<?xml version="1.0" encoding="UTF-8"?>
<svg id="Layer_2" data-name="Layer 2" xmlns="http://www.w3.org/2000/svg" viewBox="0 0 226.86 267.02">
  <defs>
    <style>
      .cls-1 {
        stroke-width: 2px;
      }

      .cls-1, .cls-2 {
        fill: #fff;
        stroke: #000;
        stroke-miterlimit: 10;
      }

      .cls-2 {
        stroke-width: 1.78px;
      }
    </style>
  </defs>
  <g id="Layer_6" data-name="Layer 6">
    <g>
      <path class="cls-1" d="M1,14.46v238.1c0,7.44,6.03,13.46,13.46,13.46h197.93c7.44,0,13.46-6.03,13.46-13.46V14.46c0-7.44-6.03-13.46-13.46-13.46H14.46C7.03,1,1,7.03,1,14.46ZM193.8,235.83H33.06c-3.56,0-6.44-2.88-6.44-6.44V37.63c0-3.56,2.88-6.44,6.44-6.44h160.75c3.56,0,6.44,2.88,6.44,6.44v191.76c0,3.56-2.88,6.44-6.44,6.44Z"/>
      <polygon class="cls-2" points="200.24 129.38 117.56 129.38 117.56 31.19 109.3 31.19 109.3 129.38 26.62 129.38 26.62 137.64 109.3 137.64 109.3 235.64 117.56 235.64 117.56 137.64 200.24 137.64 200.24 129.38"/>
    </g>
  </g>
</svg>